<mxfile host="app.diagrams.net" modified="2024-01-02T00:39:50.172Z" agent="Mozilla/5.0 (Windows NT 10.0; Win64; x64) AppleWebKit/537.36 (KHTML, like Gecko) Chrome/120.0.0.0 Safari/537.36" etag="rumdCeVTS0kmm1tHr1lG" version="22.1.14" type="device">
  <diagram name="PÃ¡gina-1" id="kFndRzJAZjKGELNNP9zU">
    <mxGraphModel dx="819" dy="469" grid="1" gridSize="10" guides="1" tooltips="1" connect="1" arrows="1" fold="1" page="1" pageScale="1" pageWidth="827" pageHeight="1169" math="0" shadow="0">
      <root>
        <mxCell id="0" />
        <mxCell id="1" parent="0" />
        <mxCell id="CZz01ztnTcE0DwjemcIG-2" value="" style="dashed=0;outlineConnect=0;html=1;align=center;labelPosition=center;verticalLabelPosition=bottom;verticalAlign=top;shape=mxgraph.weblogos.html5" vertex="1" parent="1">
          <mxGeometry x="120" y="400" width="52.400000000000006" height="74" as="geometry" />
        </mxCell>
        <mxCell id="CZz01ztnTcE0DwjemcIG-3" value="" style="shape=image;verticalLabelPosition=bottom;labelBackgroundColor=default;verticalAlign=top;aspect=fixed;imageAspect=0;image=data:image/png,iVBORw0KGgoAAAANSUhEUgAAAO0AAAEpCAYAAAB/Q6WZAAAAAXNSR0IArs4c6QAAAARnQU1BAACxjwv8YQUAAAAJcEhZcwAADsMAAA7DAcdvqGQAANorSURBVHhe7P0HkHRbVt+JrvSuzOe/69vS9KW7BTQ03nQDakZqbAiGAWEGmScXEohA8NBESIo3EZoY6Qk98XgS8xgFKCQEKEajYSTMCAkGGZA0wGtoaNp3377mu583ZdJnvv9v7bMyT+WXVZWVZe6tr2tVrTz77LPPtuu/19r77LNPYSyyM7LRaJS5EhUKhcxldlZFx0971XexWMxcD1M+bD6OR5nOQHtGp5rOQPuIUxR1kcY968teOdqvfXZrmzPQPoK0V1Hj2uzxjE6eAnyzx/3oDLSPIOXHrRQ7X/Rw5/3j+KkiDK8U5duBup4Fa77+510Pmj1/VOlTBrQAdjgcTkA5ywHovF+cf6oIwytJ+XrmGAwxEZX3y3OpVPIjFMdHnR5J0OaLhBsGsDDg5JxjADkP6LgeHPSpIhCvBM3WMwxQY9aYI+CEwx8mXPjFPZ8K7XTqQEt292oYrgO8oADkYDCwXq83ccO4A6w0+G6AhWbPz+hoKd+meQBypI1wA9ByuTxhziuVykOAhuK4G9Gee8nRq5keKU1LUQKkcd7v9x2snU7H3REG0Aa4abz19fWJe5a45xGqplcdUed7Aeju3buT+g+wwlCtVrNqteoMgPNg3w+4p5UeCdBGETgGA8put2vtdtsZwNLQ9XrdG5iGDdDSuCsrK5MGzwtRPu4zOl7K13ve6rl//74fuUYb4aZt6YhxA1batdlsOohp54gn2vRRokcCtAE+KLTo9va2M1qWItJDNxoNa7Va3rCzvTBhQmiikfEL/zM6PgoRnFf384g2BrC0L0faG6IzpvMFwGEuR5yPUhueetBG40Yx0Kibm5vOuKMh6YVj/EMDRvhHqTEfdcq3GW7AS6cMeDc2NtxNh7y6uuodNO0dgJ3tpE8znXrQhhkF0eNiCkcDAlgaENCiaSHCRoNHg4YQxHUIv6DwO6Pjo3wbQFH/4R8M5TUoROf84MED76iRAYBLmwPcaPdHyUw+1aCNrAdwMZW2trYcuDQWDYc5nAcslG9wiPujJ86HOaNXhmiD3donKN9OuAEubQ9wCQ9gsa4wlWdBftrp1NkM0Vh5ikajsZig4JwGA7CYSBGGxpvX4+YF4lFq3NNKe7VPULQT7crTAtr5/PnzDlK0LX7IQ4x3IywMce200qkDbVBUflAAFqbBYiICosHmNfwZPXoU7czwKCYh87Iy2yGcRjrVkpzvNQFq9LAAlvEsDTgL7jN6tAgQ0t5BaFqGQyEPyMYscKHTDN5TB9qo7GgEjgFamOsAlskI3PMa7IweLcoDENDS9rR5yEQA91GhU69pYRqFXhXTGGJ8c2YOf2pQgDGASbvDnEdnfgbaVwEFWPNuGobJKEwletq4Ri8cGveMHj0KQAZDADUmJh81wEKPhDqiUWgceljMI6b7g85M5EebwjTOd8zIwux49lFq/1P3nJbsRgPRKPSqsaCClTEXLlxwJkw0aP6eIO6NCQwamGv0zgA+f434I55liI6EWcx49ARFPrhG2qRFOpxDpBf+R035OoGirFGX5DNf/giXr7vjIOInb/n6CsuJ/DC5FG04W4Y8UYbbt2/bvXv3PK5z587tWLqavzfcp41ONWhhhDuWsXG8fPmyP6+DItysG8oLJvd+z/d8j33oQx+agIfJLOKGuXfZBkYAETgWfpDm2tqafe3Xfq19+7d/uz322GOeHtdZFPALv/AL9uM//uO+uof08/k9KopykC8EmQ6PRQlf9EVfZH/9r/91e+qpp7z8kfbLL79s//Sf/lP7l//yX3o48nXURL1Ee0SecNOBPvvss/Z3/s7fcRDPa8/8efiRT0BLGQEsi2yIlzij/IQL92mjU69p86ClsRcBLW7uRTghXv36E3/iT9iv/dqveVwICw0c2o774t6DEoBkKSWCFNri277t2+z7v//7Pa+RD/x/5md+xv7iX/yLXg4ELSbWjppIK0ALCOk4Pu/zPs9++Id/2N7whjd4melEGGpQN3/rb/0t+8mf/Emvj+OiaE/ASTpoWeqNDu7v//2/vytouQc3HP743blzxzs/yhBLGgO0cW/cc9rokRnTRmMelLgPoYVpVASF1VQAiXMaPR4jLMMA8NatW94ZkAaCggASf6QJOAERecGf+wJUR80BihgGkE7kJbQT+SBsACDepIlHaUfN5AVgET95wRpBQ0a77EUBQpg8hhxE2fDDDS8rI682OtWgpRHyvAzFvQgmRxqfxgZINDgaEuDhtwyj9RFMXrJHe0R8pMM5QgmQQmDJAxoZ97z4DssILx0T8UMBWPxjIwDyFR0LBKBg8jYvzsMyHRpMfVPvpA+Rp3DvRdQlFG0Z7gDqowRY6JHQtMtSvpEBDe4QYICDxkUTwpwvw5jtMMKHcAFg4iMdNAzAIL1ghJgOBJoX32GZPITmzAszbvypBwh/8kx+uAaocM+L87BMfVAPpB2WAIwbK2dRinggysl5lC+AHcfTTI8MaKNx9qJ8mHxjwggJQgmYuBaCgxuhxX8ZRkOh2YgrwE96EW/EDUDwCzORcLNxHSUTfwCEdOmg6FAg8gSRX/wJF3mfF9dhOSjqAD/agrztp2nzIAzAkn/iiWvRxvmwXD+tdOpAm6/4o6BoTBoc4QwODciR6zQyggsHRV4ijnmMhgohCoDCcQ6hTSK9MMs5cj9+HLkeghZ5gjhGRxDhZsNCATqIToE8RPpc4xyzHT/KDwV4yAv+kRfijvTwI95IL/xh0ibuCAeFtsY/ABnhiYN7yB91EnFCeTdhg2bdhCOtCE98+TBB8/xOC51aTUujUPHwbg2zF0V44glGkEI4Q9igvH+kG9c5j2vzOB8GEIQg4wfhj/Dij6YDsGjbuI+wEQ43ccQ17oEjrYgzrhMWDgptz5HwgJOwhMEvziGOhIl8hR/xAjr8OedIxxQdQp4ISxzEH3HlAU5e8IPxiyPhIz7CRJ6gWTfhIz4o4ol6wx33zIY9rfTImMfHSTR0NHyAIMZ+IRS7Mfci9AhtCFIIDvdGfIDmmWeesXe84x1+PYScOHBDcY62Ii7uhbmXNELQCYMb8HPkvsgv4WDCEEfcB3MOo1khwmAev+lNb7Knn37arxEX+SMPuGHSj7xFXUU4mLRJh3twB5BxRxjCR/6jvFwPi2M34t485dONPMX9e8VzmujU7lxBw5J1BIaenh37aOC9ntNyTzRiuLnOM73v+I7vsN/8zd90/2j4IAQsBBvBu3jxogtyAI54diOed8aYNoTy3e9+t6fHah20LBqOZ4ocf/VXf9X+5t/8m/b+979/YqaSZl7oKSfnmLM8Gok48HvrW99qn/mZn+nh8KM8TDDFpBqTYmF6Rj3g//jjj9vXfM3X2JUrVzzPhIdIg3t++qd/2hd+8NwWP+4nPfJC58CReMgL8eImDHngEc4Xf/EX2+te9zrPC/fFvYSN/FM/1BP3hfszPuMz7Bu/8RsnAJylaMcg3OSPNo1ykz/KTJ64Dkf5TyOdgVbX9wMtfjR4gOaP/bE/5osgEDzS5/puFEDlfkBOHIAVkODHvQF+zgHIL/3SL/mCho9+9KMOeB4TQeSJMAFGhBNAxLiZ2egv//Ivtz/7Z/+sg5fr5JF7yCdu0qd8kXbEiTsmnaiX6Bjw5/zFF1+0n/iJn7Cf/dmf9foiDkBBeOIIUBE/xDlpciSP73nPe+yv/JW/4mnQQdFOXOceyk8c1BVu8oM/8XNvzLLPI+4jbJSFcMgCSxk5p/7o2GLegLDwaabS3xBl7lNFNAhEY9FTI2Q0OA1EI0P5xsEdDZx3Qwj3v/gX/8JeeumlHf5BNDZgRSC5/qVf+qX2Ld/yLS4Q8NWrV+3SpUtzGaFDCFmyCFjRZNwzmw8EFiFFuDBFEe5PfOIT9vzzz3t5EPDoAOKe6DBwU27q4GMf+5jH87a3vc3Nbe5F03APcfMsFj/KQ7nwIy0438EQJ+XlOukAzte85jXegXz84x/3zoU4iQMmDOcQ8eBH3mgTrgF6/L/wC7/Q6ws3aZIX8h55IF/hJt+cQ+RnN+IaacGkS95g3MRP50N6hAs+zXQ2pl2AMBdD8wA4jggEgoxwIeS7MWExpxEazhFihAsBp7NBoEPoETDc8Dd/8zfbd33Xd00EnHsJg5tOBmCGMBIXfrgRckxstGIABSEFAMQbRHwh0OSH8pEfwuDmPsoHRZ5Y4vjd3/3d9hVf8RWTzghgUwfkjXjywCAvxI8bzfdjP/Zj9lM/9VMeJ/FH+KAAPRQaG8qHgfLhgvJ+xEs9R75n7z/tdKZpRftpWoQSIQszlTHjO9/5Tk8Pwc0LzCyRN/KIUAMCwsOkgUARLwLKNfyIE+1GGECC0P/2b/+255F4CE/5QugJjzs6AIj4fv/3f9/jxEwmLtykly8f7sh75I1rxIc/4fP1ynXMWjQ4HcInP/lJBybmKCDmXpi8wBBxQFG+X//1X/f8f/Znf/YOcEW+cEe63APhP0uzfvn7GS7A1COcL1vwaaYz0Ir2Ay3xBuhI7/M///Nd28wKwjwmDAwQ8hTXIa6FG6HDzRGBY/KGtD/84Q973ign5QOY5AUKQHAPYQLIv/M7v+P+n/VZn+XXIr9QlJM4YK5DcZ0jTDwBHu4hXUx88oXpjqnM9QAqbtInTu4PUFIG3Nz/e7/3ez7v8Omf/umTNCLvQeSVe/CPPAXlz3ETLuoZwgqBycujCNoz8/hVSiFcAIS3gr7+67/etRmalxncACEEkIPxz4P6H/2jf+Rv6CDECHcw1wEZ4dGWpEX4PHBmKToDwjCr+73f+732OZ/zOR535CU0bIQDNKTHeQAYi+Uf/IN/YD/3cz/n+Yi8RvoRjnztlZ8gwsIQcXA/jBvKAzWOp5nOQPsqphC2N77xjZOxJJZEaLYQSggBBzgIKyAhDGNxAM6jmn/8j/+xm4yE4V7AhKATHmBwD+d7CTXXCAsA6Tx4ne8HfuAH7Au+4AsceMRJnoifdAhHR4Ib/wAX+frABz7gHcqv/Mqv+DXiJX7CBgAXASw0m2fOg4Nmz08znYH2VUwBQIT4zW9+sz/KYfaVybAAWGi0ABIACCBynXNeufvRH/1R12z5xzVcxx1p7EeEId5IA/qyL/sy30AAjRvx0LFAuAEw9+AO0JA2eeVZ9D/8h//Q/uN//I8TK4E4ggLoByXSibQWBf5pojPQvkoJYQsGIIDyLW95iwOEVVMIPYBAOAmDpuMY4EDguYcw3M+z0R/5kR+xn//5n3fzNIAHRxz7EeHQ4KRB3JEOk3J/4S/8Bc9fgBnwcQ1TPV+GuM6RPDPJBnD/03/6T54vwsKRJ477UYQhPZj7OJIH0gn/R4XOQPsqpjAxQ+gAy+d+7uc6QDjGmI9wIagcIYQVgIUpjSZj4giT9Jd/+Zcn4QNMoRH3oxD+WQ36lV/5lfbn/tyf8+1hogOByBuMX4AcM5rraFz8f+M3fsMfUf3Wb/2Wx0ucAe6DEHGSRr5DIR6Ya5Gn005ns8ei/WaPg+I+NN273vWuSVzHRZEXhBA3jEAzOcVCB8xLnn8GkLgWx9B0kUeAQz1hKl+7ds03v3viiSf8cVaUgWPEMY9IH4r0CE+dEzf3sSiEWWH22kKzR9sQjg6GsSxtgz/5w80R8JIn2oHHSZSP+GDC7pUnKPIDkRcozG04xvvkI/g00xloRYuAljhJA83FM8YA7X5EGPLFkbzGPeGGEdwg/OFZIYMRQI6AmEUXTFD97u/+rt28eXOikaEID8U9cNQZz1Up65NPPungz4eJ+8hzADLylA+HOzg0GxqUOCGWYDLxRdkw5blO+oSHIp7IE2kBXExkHiexIAUifLQJR/KBOyjcER/EPcgEnQF5I33KAefjO610Zh4vQAhUCAyNHo0fFAIzjxEcBBc3hJu4uB83ceYByjlEmKBZN+HoRFh88Vf/6l/1SSr8EVAYIkw+j5F3yoIWjEkgTNIwZyN9whCWuPL+ACGfF4hr+BEeZqnmN33TN/laboBHJ0cdcG8+PsISZz6faGJ2pOQRFRYE/nSokUaEjfNoFwg/ONzUaVybpd38TwudgXYBQggQsBAyjghiUFybx/TymGcQAofAhGUAER9ugBPnCBwCiXs35joAYRLoL//lv+ymKX7ki3R3oxB6Nptj1pbnpe973/v8WqQZnQzxBGjivr2Y+ykH66x5rszbOWje6Eh2oygvabFmmF0pme1GUwN6iOvUHelAkZ+9iPB5flTo7C0fXd/vLR8EBsEjfhY48CbNN3zDN0zMPvKwG3E9AEkcmJCYf2hJwEzc3I+bsJitjDPnabU8ER5GyBF2tNM/+Sf/xOsi0tuNQguRLsOJr/7qr7Yf+qEfcuCTR+IjD4ShLig32jnqbR5FfDHJRDy88MBrhmxNSzl3I+4jPGkRP+XC/af+1J+yGL3l6yLaiPzkzyHCcU6bwlgkvCQRnWekEeFPI52BVtf3A200MEBC4GGEAHMOd2iDeUR8AUjcCBGv9jEDzMbgpBPXfvEXf9H+7t/9uy7g+O0lWGhU0oUpN/ezFjjebtmNSI/4Q7sBFoT6677u6yYam7Qh0mDiis3KMVujvuYR1yhnrM8mHABmnIqpGyb4PCLvUJSFeAhLvr7v+77P24YXHiJ92jzyGGWNI9eJL0BLHgK0MOG4vlcdvdrpDLS6vh9oEe7wp+E553r03KS7G8VYLu5BML/1W7/VfvAHf9DNSK4TD+X4Z//snzlwyBdEmrsRcXKd+GLMiNZES3JtNyIP5IU0AC7pEgeC/df+2l/zDoWOJYQbwP3tv/23ffw7Wy+zFHGTD+KnXbgHwEZnN4+iAyEcICNPnJMn4sKKYP00+Yx8QaQXdYU/hB/X86DFOuJIPZMW1yP8aaTTm/MTJBo7emnAAUg5IlyABAHbjRG0IExONAagQHgQOADGkbjhAFMI1m5M+gg5zDl5RPPn05tHkVakS1qUAw3Ju7ikyzlE/kkHP5jzfB7yTFwBaOKKMT9+lHuvfFEGiDKQHkfuIx6WYfJGUYCRPECck3fS3osiT3F8FOhIQEuFHLRS4p48L0MIS9C8OPLXw51PL4SNxg8/juEPI8QIDEICAzqYMPjnhXeWEbJIF7ADcuKL+EMIQxtzjWNc2425P8a+EOfEEee7EeFg8hJuQALIAiww5Qpg44+mwj0vLzD30LFRP/HSPeUnHtLiuBsRbwCX+6mjSA+mTqLTjLzFca94oYiDe4M4X5RIZ5YPQsvcsx8dGrT5DM1mLjI8j/eieeHhPOUbI9z5MLPhZ6/Fef4+hA8KQYgjYaAQEsIFuBCyvSjijnAciY97yXv+fuLkPPIR5ZrHEIIOsKI83Mv5XkS4qDPSwx3ajbJxHa3IkXzgRzqExW82H8EQ8eCmAwg/8pQv4zwiLPmO+iYvpB1xR7oQceEm3/jDeYrzfHjCwlA+rrh/Hu9FcX2v8LP+88IsS4cGLRWQ58NQFHQ3DtAEh18+zCKUz2/cFwIX2oV4w52P/6CMhiCuEHoIQQIY+IfwQQgraeIX4Y+aIdInHc7RggEECD9AlwdF5CvOj5oh0g+O8yDyRziAzDGuBSDnUV4uZmWE84hrP96NIk4on9egKEuej4oODdpZ2qvA4U+Bo+LyHH5xfR7nwyPYgA3GjV+kO1tJ+fN8JRI+ziN/EGlFXsNvGYp8E38ANfIa/gFQhBA3FPk7aiId0kbYAwxQ5IF0I18Qx3wej4uIO+oq3PkjRD5wRx7hWYr8Eo5yzspH1Hscd+N8uDzPXied3fi46FCg3S1j+OcLSoXlOfxmr0Xl7sVRaTDn0SjEFf4HJQQYjRjaBHAh0HEN97IcE1X5eKAQrnDHkfyThxgfHgcTP/lBg4YpjD/ncYx8RJ2Qt+PME0xaHMkbTJocqT8IN4R/vs7mEXnOy9esjMBxbTeelcd8fLjzHPUVPI928z8oLQ3a2QxwHpURhaPQjIdgzLBgBJnHAfOYGcO9OMIxUwrjR3yYdKR7kIohLI2OsHAvwgpxjhshwR3CtAzz+IlHDiF8TLDAENdJnyP5p+54xMEx/I+DQ/ghygYByOhgAHKkz5H2C6GcjeuoOOqZtIPDjzohX+QFjnaDZyn8yC8ySL2GXCEvi8oZHGHzHLI2K9e453UMB5HHRWnp57TcFrdyJINkODgyPFsAmMKFG444okHCbx4hcITLp0V8VCT+LA5gMX2+QSNu8sAx3BDxUensNczSPhoFQUGQiJvrEXYZIm0EkPxBxM1G57w0Hs9DSQsBY3HEv/k3/8bLwz171cNhKeKOuqCTIk9sIwOAEUL8EFTeeWWPKuqDfB415dsq3FHn1MOXfMmX+MsR0Xb5vMOEzXdE5JMv2POoCKKTzHcC3EOYvSifFse8H2kRT+Qj2hDGnT8PDoo4DkNLg5aKgrmdI4IW2jWOcY0KyoePAuc5aL8CRaEjTu7FDfAgXu3aC7QQlTrrJr9UbmiV0IZQPn8HJeJF+DmGwJBmlCOIzoI0KUc0/GHS3Y9IO18vMGmGkFGnnNOWMG7CUIajpshLuCHSgsgLaUPkg/S5Rnj84ShHEHlnJRZLQvEPwBI2ABTl24vy9U88eYa4ns8H6UT9wbQ76Uba3Id/3L8s7QnaaEgoHywAE4Sgo0kQuGjkqBTu45wjQol2oTDLZnyP7E4aJyoLIjx5Jb0oyxk9OkT7wrRvyBTnyGOYsVCAJo7QXrK0F0VarMfGjCaeACOyhhtZRw5JLy+TAejZPEPhtx/tCdrZSOIcQAZwqZSw9dEmXAc8vIESFURYiMxyDfNrkcwdlCKd2YaJfB9Hmmf0yhNySBvn2z0UBUA5LllDSYVFSdoQeWG9NumTbgCWhTBhpgfNymTI6X50INBC+JFhwEqm82CNDALKGK9FxvLJLJKxw9JJp3dGrxyFTEKh8SD8d5ODw8oE8RJHHMMPBhNoYI4Q18kXwAUX4ARsBNAPSkuBFpBieoSGJUMsXSNTgDZfCNyzhVo2sxD370WklQ8zm/8zevQo5Aqalbe9aFnZiPRm5TifBxQaTGcSQ0eUGTPhHMFMvoM5CC00EZXPTJgFZITeBI1L78GjjfzkDWG5D8YdmVsguaUp0oLmpRd+Z/ToU172Zilk4rDykL8/HyduzGSIIzjhlUkIrMR4F1N5mTwspPKiAsgAjL0OaNG4ofZ3G6eG32xFRZxHycQdnE+DPHM8o08NinbPu/McNO/aIgyFjEHhF8Q518FGDBk5ouCwTDmi/JaVy4Xt1MhwgBbAmvJdb6RPJWIqDIcDG2VjC8I5TYCUToMCXAfm4u5MfiKfURn4kzfuPaNHj/LtDSe5w3SVTMzKzhFxUEozybl76we/CIcbiomoYpEdMadPV+J6HBelhca00SPA9BKo+rsbD6wiwF44t2atRs2qytB4TO+hCitVbCQEUX86tbIqsESpKCBxeVdxcBCNiSJz70b56wdP4dEgl5/kPEF6hWob8Y2k5ZSU6lQeOb8J5bJYwD/4oCRZHhYkxENZmgWsT6WJzBfLhspCvMdSYBVDsSlRpbE1MLtxv2397Q1rVdIcUExKpSgTyBeZ71l4TEvPEINqQHuvvW2N9VW7fH7NaqWC1dB0yh1hx1ay7kC/5apS0IDbfZQMoBUvAr55xH2pXzujvYiWKC5TwYciUoVPmijowQvruUWYlqknKaihuDQWKMe9JJjFirXHFesItY2KTgXoaoEFP0pgOLbtQsNudorWu3/LasOua14mpdDCeaDmNflutBBowySGmTEGtB2Bb+3CeTu/2rKyuq2K0lVf4bgsqMcZqCAFAVbYtUG/pwoaW7mkQEquUqkReClapo4/FemVgM8r0jiHkKPgg5IwaL3ByKrSpJXhtvAqeZam7SXd6pq2PBpaBdDK+gQE3VLT7o/K1r5zx6yz4ZNRgBZty9j3ILQvaLkMaNGymMYxE1ZUD7F+6aKtNhsC5NDNBDJL+AKmsnTrUDU6wFyWKUEHQv16HQPsZWpL5HEsee+nCtHxn1XR3jRSHQ3QIdn5QQgFjRnMlviVcceFcjgY2qDc8mvIaEmYqRR0DdAqsaGDtmgPbt6y0fYD17SYyIA3xsCLmMbQvmPaYIAbj3ngWrNl5y9etHpVtrwAXRKSsJDHArBSV0+kQijmsnqhojLEMvMBJrPcdeWtuHuyuxO3LFPLn2qE1MAnTq9E4yxXUDq2AfKanR+EZDfalsR8RQqy6WcCrcawXatpXFsSWJUrYaJqAJoUSsJtze52i3b75Rds2N7wN79YNYh5DL4AbIxv96N9QZtm45I7xrNMWzdbK3bhwiWZuiwqF2h9llYGMqBVppmAGjNYF/fkbncHynjRatViKpTHejDiHsZqy9z7qURokdRqZ7QXUUe7Cv8ehAJio9hCd2TnSgz9BlYtM85tuHkM9MYaStYE4/R8hp+a3RGGbwm0PWlatCzfU0Ljgi1M5CPTtAFajoA1QLvaWrWLAm25WrI+GtRBC1iZN0Y761hibDu2vsBKLB393LrX0TmCdXDo0Wlx15l5vDcBWjTJyRKNogY+6XT9UcRysrSsAhgVyrYt3dSSJv20Sy0b97etqsiGpbrkvSRrUoGGjHl5WUF1AsQE6M1+0e7duWntzXuuVdkilm8Nx5j2SEALAVaCxMwx+wsD2vWVVbss0BZlHkvRWjHT7OQXbTtW71OqlK2nzPcKCqP8fOBjL9sv/dpv2Atts25xunrqjB4FAgGpgz9R8t5pMWHPE6AtK7vLzLIXC32rFAf2+c++xr7hnZ9jFYG2XhwxLWXjkoaDBFK8Pi0lHAg8Sqwhi7Nk21vbtnH/tk/qom0xkzGRwdmi49p9NS0RkUAwoGUHgDWNaR+7fNUKFZ7JitRZeN6UJoAtMlQv+a+MhDSr9tsffMF+7J/+7/be+3V7UDrHXQcmtMgZ7U1U0clbIyR44omKvLTJeQACrIB2GXGqDe7Z+cId+5Z3f779t1/7pdYa83inL+VVFGiTMgJ66ZEQCKBeNHbVeLfT6dutmy/74iRmj2FMZEB7ZGPa3UC7roQeu3xZ3UndhpRcuZRSddCaBuXFgjLrz25lFqchub3v47fsH/z0v7LfvFG3+8ULfu0gREYdtMvU9KcQudm3a6seF514gjlaTiCWFaPG8K5dLd+zP/7V77Bvf/fbrSlwMn4FtKNi1R95OmgZ/QJaICZrc1wQaNs9u3HjmmMpQAufEGjrGWibaRZOuVS6DloeLBcKyrDXSsG6hbpty/Xhl7ft7//Uz9tvfLJsDyx9f/QgNFZ83kGc0Z4EaJcx+z6VCFliyLaM5dYSaJ9pbtl3/lefZ//1l71RmnZg1XHbRjJ/BxrvFgCuwvn6qImmLTto2+2u3bh+zTUt5vEsaMHbfnQI0NbssSuXbFxpKaOFBCjFxMxwcdST0GSrQZT9XmnFNnV8/t5YoP2X9h8+1LYNW/c0DkrESFpntDuhZU++ipTirpJ0zLSEWcEdy4K2Ptqy15wr2ne/5wvt69/xmK0ImNXRpgS/KpiWFWclAy0DR4CLHc5Z2p3zxsvJPAa0AdwTAe1aqypNe9HGVYHWn0N59mQIyywYdQRcHiyTaYG2siaQluymvP7+P/nX9iu/d9M2xyskcSBaon4/Zenk8UPrvBItREmXAC3yKl5GAVRHXXvt5VX701/3Jfbut63a2kigHT4QSmsCZkXxpt0phIo0t+PgRe8KtNvbDlqwNAva/K4We9HhQHvlgo2kafvqRYiE7NXEJZkKDlqNbf05bWXdHozLtqkK+pGf+nf2c+99ye7ZcqA9M/v2J6ro5CfsQAAjuRNO2Ges4YMRuVx23N8QaN/8xEX7s9/wpfZlbyzZGgsp+veE5rpyInAWa94GoCKBFmaEW9aYdttuvnzdsQRYA7Rg7djHtGutml25onFpVWNaZcgFRVyVqzTuKOKe8qrMFovWL60JtAKvaupH/tl/tJ/5rRfsdmHV74HimG/uqNBx5skpztLB2+dTjgDssqBd8jaRAPuKgHYo2Ti4UND5l8R5JZBzTmhamunVFSmkz3r6ov2Zb3ynfd5rzFaHI6v1AK00repgXG546FQbLOYd6Zy1CpjHU9DmNS1YW3QN8p6gRWXz3Aj7exa0KyurAu0VK2cqHVN8THjQxuDbz8cCNNPgFduWN4L00//He+1/+pUP28vDVRvIrMCvUC7pPgYYqnzWKitsVBaLMEII8Svqelw7o/k0Vp05fg5KXu/L1i73iXeVpmMgT04ys4TK5Jai5M3FNStykqzsxAkf4tYRBZadr48eSMNesD//x/+oPXOOpYwa544HEvu+5Ji6Z9KJBih6bCw0Ihbqlhdubly/7useArQ88oEWBe3CTZsfIONOPUdS596jqFBFH8OKkBgG3rLtYc+wfgjdKhetrJ6pNEQjZ70dQJRfUbejSctCaHAp46JqtiDmeMZ7M6tdRt3+gXncG9hIPO4uw7q/21McJ8ie3vyy7Mu6L5QDsuk8cSNr03PCSfXomLgigLaKPJtVABFSPyxgbSY4OTrQhfz7AfCmP0CNIgw8hc5EQS5KC4N2HnmhknMnhScZm7jTodHk3QiRMkvGfb0yf5755HdGh6OyeuyaLKCDcrVStprGVfOuPYq8LBVLRWvU2ZwtnSOxU6mVy+U++SDV6VSQzY6xzjiOAeI9jN4dtBBoA0gpYdz0GftQln62vsITwrkiU4A3fYCqs7vBMMslCbk70eud0f7kje9DjSWYdvBlqKeH55ZjH2YotyyVBLJWq2GVWWs2QWMi+0473FJOpK1jgBXggoE4LkJ7gjYfyU43P7h2QxH+gDILlh3htZWWenRlkDASEDKAyfAw5e+Wa7ekzugh8ppTnR6UkxGXOtpTw+R5TlkW4WWpJE3bksU4O9mrWP03wYI0cE4Fd8Tre920nWpo1UW1a54OZR4HPZxsZDwRRZlq2oZMi6pMOJ15b8fk1c5KZFg2vygHL+CnIjHtoVHtgXlQyI6njGfLsRDH/MsS5Jq2kTRtyHWSXsmn5Jg33bKzCQHO/qBv7fbOT5VAXAtehA4M2gBXDNQnNMl5ln0dvJfJ8hGFq9cqVq+WrayTwniY4slAm+4hFBxEBATKIjqjfYm3q8oNdYyfAlyZ47cIc19eCx6EAC2bP7BkN3DglmNGDsBwZ0d5pt0tBFyu80yWxRR54C5KCz3y4TgYDLyH4HEP3Gy07NKly1YVAD3cDNY84/4ebYDRbKAO6PqW2Q/8+L+133ph0zrDoQ3JdKVq/SHjWw3MFbCkGwKjYzlGzuk8PVfLJXRGE4paaVxYsZULaz5Ooh2Y7OPqSOO/gj+K2LXJ97z0qqU9xIHHjhQJoLlMil3xSN5ufPKaz7QPsPjwU91g4joidMo8C/uasbMib64BVMbQr2/17C9//Tvsyz77GX/6wYIiZpRd2hXPSPIbG0AQF9njyUqnvWU3bt6ybWlbXsmL1/JgKBTifrQQaAkCaLHFec4EaMvlil24cNHNBArnPQZpYhqQWSLwAsgry0t/aHZHlsFf/Yl/b//+wzf9db0uAao1mQ4j372x4I93yFgWnRzwEA+RP9LwK2c0S9HorSvrdu7xi+k9TbUdAkuV0YYl378r1eWnAiHDABfNhhxjurImYCxhfPGDH/fHVX1AqQpibzM6NcJTX3RyNVktrh3FTD4NdXzTat9+6Ju/2N7x5isup4C2zHp7dY40gWrcFZRjgqoWsx1Tr71p127ctE43vZbHC/Bs7HbQLw3Q7S5MRExGOHY6betsb3nBEmBJNIF0J00NXjZjVB34uJYhbWxRw5/HMQmZ50Q7z85oL3LrRD0fHZ1bKXIna2XGPYeHjGuLp4jnlGEnC3wae07rI7l9YQ+A9hp7WLKSLpt2b2x6z8zviDUGsmCqVVmF8k9Sq1CKwmNBy2Z6cHKvu7xbUHiAnXhZIs1dKR9xHrDwoN/3lVLZxXSMbGZhMqe83Uh2oKqstqIeS6VHzcsfwmSZgnYK8+AzOgjRCghsWCkPC/Ie7KCWcJ4KpnzpuBuPVR5EKJ2j/uTWX1/mLlZIAAxAQZwnH36nAEQ7DwG5ZLleq1pD7P5il1i/PYsDzu5zykSYwyyOAicHoYVBC+1MBDd+k9NUCdkpxCXVVQZO1oXITFGKqwIt5oZPRKkiuI4JR8XNJJkjr4rkPKN9KKsrKn9Sb48ou7zM8c8z4BXYnAVYpJTdE2HA5TId8QTYuC25JmHQslxu1Ou+uILr2XSBrgOl1Am4PvVz+UQknipDR8Im4Cbr8uC08F35hHDzrIpvk3gucuQVINrR0zgl4HJ1bWVF11UAD8KP/DE/+HO/nXGe0cGI2st3lmHR0NjuH2EeYsLO83+18rRsezHl9rJzlHxyD89M8zLKtSB3E06yThgYuY8ja4VD03pY+af7s1/uzXAATdPJ8ppdnw23KB0Y6pOElI+0ugPwpUzNy0D4kXEmARjzrqyu+LggVoFEkXyMMSngwQtzRomoOazCPMcbLe5Wk83j2XCveo48z5RjB3Nd6s4tYwlflI/Z41idFISTc3yow7zshhvQNhp1A7OTWzmmmyenD4mvrvHNH/yJK+LLUz4ve9GBQBuJwRQNQyOZxCmxyIgXfEcG5I+dgJd4vVm0WlHmsc9kVlWJFSsNNd4dyY9H3+ruB6rZvnjEXlNKKWmOhwt6EEovHNBoNB48srIaDmZHePyYnS7wwsOYxyW8EckLDxj2k+yfGC9Lfr8qjOrycR1H+SZ3Os5j7mOiBn1wksyMh7PkZ5gxbuqdl09oj+Joyql91CbM9BJHJhYc8jErYFYHXFC7Kj6XAcXh07tZJXOZuFj0z97cXODtV152500gwV75YzeKstUkMysa49UUDDuT0AkPKS/Eln6za2RDR+AwkHk99EebCUN5WhSwEPHuSmg+KA/G8COJUrlsRWlLBuh5Ijw9UhBuTGmew/LNnytrKrRtWW8wtt5QoBjWzLpDW1FFsYPdQAjulkfOoyLvIw4ysEV1HJwSYJUPHemBy+r1Ksp3ZcRWIbDAq/7B3yhiunHMw/eaOuT0YrO/7naCnMq5HCOkdHrwUPXtbqmYYeaHez4TVrWt9jpZVpqlgvV07HF0d7o2kszQgRbEtAtH71AFmQCZT3NSdGADSBwAklUxM8bwmEcXDOeGBcGvZL3NnpXYzymDwEjHQbEqeSt7NVbHPav2NyQPQ6uUm9bula1UbNiKzOrL1aK1FBVv+ejgJrc/l0XGdb9nZTj0mP26fPjE5f0HW7a13eaqYwI8BYDB1SyQd6OU4wNQJAI/rFEXo7qQu9JgNYjicTBTLCob8FPVqnJ5uAD7GfXoIdy9DKFJ+kJrXzYVAupHF2KO6fHBqKhxjiwA2Io9JddT3tTbGq9xqRFOkmVxzPXfhUt5t3dKJXVCvAYpdreGI+Jwz2fCjsXDE2U6zNpgaDV2gBDTkZYnZaIjz5hOPWNBzBl5yYsFErODkCMd8r5pRIePLvq96WqmnycuB4fCASi3bCWUVWnZVr066Rx2SuTOsyyyjLg2xU6e/Wp2XIT2BG0+onwi9BL5B8KMTfMU2ngecQcPrFdXePE39TQTDeMhUhhHrbv5OzyhZXrS4L1Mg3fL4xyP5D8UqAcCcM9GpY6Au63a2VKnsqVK6kqI+ifOWB3z/OdxSR1LuCuq/uqgLACIOWZcy7nnc1H3aMDiQDo5rg8G1hI3xQ1psrq4OqQc4gysAdIiZZUWlK70I4b1rpQTHJctfsQAlpfQuT7FVQJgsP+iDeViCIh0jpWXSvaywLKEvIMXMBR4Cv9F6cCaNhLjSMEnz2pztJ/2LQvjq62mLw9LmjX1lm4W+pgiAZXeLAjn3rHuTYyDCho7Y/baiFkEtgapK6+s6ILr7lfQ9cJIppDGPRVMKYbUQKJQPVHucZS51luUuSdzs8vgsNRTR8VQo5/cOubd83ko6xEdz66CJ8d8QGM8qqkNdBS7f9RDsSIuqy7EMmf7OncuVGzgGyzsL8IujzAyhrRJqSC7IU8ua2KWGobqAKj4hjLh6caInSnUcTRqM6/3HIACqIGhZehAd+UTo+B8PY9ljVQA51ROhNmLWGDBJzJZz8m0HrBNijWrPp1gigQn/8NRmsyQSS4GmADURoA2Y7mTX02ArSRzEeCKmYxivHPSDGiXY8amshpkOQzdetBRAAaYE/ccHhQBrfSawHKSLONYLcRmaOxmmECLfwJoBtiM2VcYwLLjIZNDi4AWygPUNa1bgyFvyEfSpmk8nMKEEmH45ps1SNOWJa+tRnpGuwwFfmYxsp+iy9OhQMta5Hg3MBLdD7BcrUnhrQm0mDYenIkCHX2Wj1P/I3PpSKUmE5qT5YgxUmPYEffc/PLxk0wzxnDp0YDKJfajMsIxtrthttkb9YRZlbowuz6YuKUJsBzUATm7FcF5dtyVefaISCieE2RmtGPCiGHMiPkFgWNc4EkCx2SNubzI5TP/3mZJnvYnBaRuMkJWXclkdztYYa87F0eFkUsdGD4Ob1UL32Bu1Aq2tqK6OiTNA+2iwN0TtPMAGMBlAXao93k9x66kfNVZf9yo++ooJvWoJX8UkS57paVHL8kNcYhKXoaYyKiNOgJqR9qzq7FST0BmgmOoSkjCkNLKUsnShdIjojQxclLsE0rSOT4htQhzT+b2evOZ1nLi3dwPsa55+ZmxPzkWVP0pgbMDVX5MChYGkiuxrkfZqJt4TEeHK4zvS2BhZzBAK5lTzCFTuPyhTQAHlPJIUscY07Lov1kramiHZfDK0Z6gnUV+nANSmPNYIBG8V2/BdVkZ/iGxc6strwigqmbyd0CH0nz+1XjCOmgz1jmx7h7zItRTKhtWqWkMXtqSUGxZb3TfRqW2eveODctdG1RkIpaH1quMxGPryiLgyFfS6uPuiXNtD66rPLC78cvO4Yo6puJo2wrDbdnJW9lx0/1Ko7YVdT6XdT3x1omymYZY1lb7JB6P2xIS9s5uW0n5quhYUydbH/WthbZDXnptK/e7Ai1d/XzK74jir+YJ6Dx67HYlC7oPZQojWQ7fbEybOm9cAHaqaStlOomeNetJjiN6JDRJ6ZT40Ho6svIq5RH5DgIL+Qnc2cncvWhP0O5HAJTEww3F+W7EVZ7VNmUjFzF71HMm6Kq/VRz8UZNUnGvbyV3TwzKE6d1TWpu9besMujLFeMSjRpLWL9crAnDfuupNOgrTVuNuKf3EBf9c53CgseArwKMFOMIN+30/FlS2EgJWpjNUxwr7efIrywqeyxVZUGqcckXj+RPkIpMctcS4S2L8K+WSVWXROYjUBqBn2KctBL5SVWHqAtP+IjwRSRz6B1BIVoIqlAA7sbjw0YV4L9bHtrqOpm0pjxKXaZy7UJrIkgyXlH9/rKn6VVlgMBK8DMkayGKfQ7OgZBzAbHF8XJr3ai9duuQMhblMuHDPEn0Oj5f/1W8+b//9T/+a3RyvWLtYtQZIbj9QJE0Biil1gDvW6KwrlzRfkdVJjDV3ze6eVJEgkKUegq1MUJnbKgcmULGkDkRMz5oakoZKbgSmKk1WFqhPlJCTzLkIeSshCPqrXa1b6/EVfyxHW5Ql/Kn9wjLyW+aQyi4zmfKfJKW9rWHl0RGaWoG2Zl6ByUCfzS9UfLOEAXMNtbovmBhiSci6YAgT7DGojKMSy3IoN5pMbSzAl8dFu3fzjl1/6Yb81UHoIkMm6m3IYgvd7NUz1PBJ8bdLK+rMi1aXuX7J7th/9WlN+6E/+TV2Xn1MGvHurMw4Y66nVs3MaOVpS1i5e++ea/have7v0tZqNcdJHmOLAPnArRM9BJxPME/7JYwhsLbS9H2i0LFeUo8ToGSnWeV5G+Zo5nRh2u4M7e6mKq9TtMGAVVjqxYs1W1Vv3VCklV5fLNNSoC73NdbtafzUl7k+kCXAPsIybU6UeSSxByuQs7t5+4RzP0qLINTq7uCySVgFRI4lHUuMWxnX7sJYNzJATpSZVPJ1wWIZAv6YrQprGFXhAYPaotBXIwk8Q3FPwOuINwcC8F4CkV0LeXT5EjB4qR3iMpyuJsAjkU66B01LT8/B75Eldm614Y8s9yO2sQ3iXpQcT1pIf1ncBB0ItPlIcS+aSJ64A15rtaxaTXvPTipPPZvHqRPGssk8Tml4mIMnN6FCoWrV2nmZNmuywhrqXYvWUoTrqsSVfscujLqJh1276O7kd37Us5XCwBrF4Ylzs7A7N8iTeOrmnnTeElxXRk1xw3lV7lZ23oKH0sRzuarr5l+BO1ke2JoAsQ4ohv3EMvPPqUM6p47ogsC2JkFn3W9dYGigoYScAvLjM5nzyQdbal9EKGmxdGRJYSJ54CfNAFgngBWFAiEAUYyUt7GsLSahZhXJPJpamsnCwcIDvMh3fh5oGTqQeQwPVJmYx5jGPKe9cOGCM9cWGUyTGP3cB++a/YUf/d/sQ/dHtilA1cpF9axdFTAtevAeX3GyGmksAe5iHlNgVcAyRR3y6MZNpI5dWmvYhYZ0z6htKxrnjTqb0rrePPqjsdSj+3S/RjlqvGW/F3MYoox7CUe+XSA/1Q9/9Yurtnr5vFUrbDejsZiGAETI83Tc+M0nxaXxcGqlk6OwqkjXwUO7y88f6UijVko1GxYrtiGN26vWbVtDm5cZnsm6KKhNuXueecxX8QYAkvKr/avqzEbdgb303Au2tdGWTGB5qLMbtr3VZTx7XGOlSV/As9xedU3msfLSu2dPlu/a977nrfbN7/wcW1EGkfZQKkGcjXSfg1YZ8d0uZP1cv37DHjx4YCsyi1sr6Zu0+fHtQWgp0HY6nQloz58/f3DQ6ueFrtmf+Xs/b79/u2f3ZJYBmhrjRlYnSRswh8zkQEmg5VFARw1FkzLNf7AiJirwqKc0sJZssS9++1vtc559ra0WpEWLGq8OmD3teIN7pTtYebMjAXcqVCdHpLfX44yHQOs/SQBKzYI1ztcnY9poFwet3DGbOUteegksZT5JUr9pvKzhgIVVJnKQnh5oOCPAjTSMudvpW6dRtxu9gf2n9/++Pa8x4gM7b+3Cyi6glbzqWKTDV5GrGrMO2z178RPPW3urq3g1bNgBWtWT0sMALfHSgrR8X6DtKcLK4L49XblnP/gNn23v+YK3yPrK8phqfkKcgREAqYq2gbQ6CzNu3rxl9+/fE2BXnJvNpreP33OUoJ30GKIINgtaPiB08eJFFwYSJ9zUNHiYiKWrn9viv/wjv2D/5bn7tlFc9/sqqlneBGLUC3BSldCaaLogCniwQkKAtlrs25ri+rp3fbF9zZc8beeUVIPPckr7MslBS9PY6fU1tbKvnFJvqDwwGXaS5CVUoRcuab7hhYJaq2oVaRjqLVqDEuzeMomm9XxyRM5h8pbPX0imcOWz/Ns6bqjNPrJh9nO/8bv2/psb1i5LExabPmkF8AC836MIKS/aFpkaC/h1VlIJtM9/7JPW2eooNKpB42glwH24A/h02nyasq+hFNQY3LWnqw/sv/vj77R3/aFn/KNbs3UZLUDnCBZ8ixrmHBTvrVu37O5dgZYN3dZWHbSzmhYMLALgPdtwXgSRSDCDaxg3IN+jD5jQkEXfSvl8rWCVTlsVULHSQK0y4t1aFdZ66vBYK8tbOf5IXaYsr9ExJb8ckT/faaOnPMo0qkvTrw027dzovq0ONqypMUd9MLKqetfqsCetv2V19cDNQU8N1lZvvHWiXIeVB/Ixj6tDmfTiiR9u/FSWlsbl6yoH39pfU52tcZx178Lcc9LMl4pZY8SEYENjxwYLYSRHFTU2XJesAJIL6nBXFKbc60l5yGIrrspsrmadrMRHHJ2u61u56fZ1qk4bQOuoAPTHWDEsrsGaS+uY+WCcYK9AzDmz8Zth3elIuJrqtM74u7GKPnY5nOUglJbjQJ4ljb15/OMLNPzhbgLnPJyAn0VoT9DuRgAAzUoijG9hMkFmubYfYS5AdfbZUfgw1/zeebdTUDg7XZZ85wzlmYfrzEUQXzxP20mp14WT+4yOk1ItZwSyOEx9JB+ZI5OPvjokXiYXDucK/25EWNofjjbdrW2ncgzAkE915pWymJfhd78P4t68hUp6HPEPnke7+c/SgUEbiQZAI1NxbS/TOMjHqzpiWvtCbGof/4fuxT9d89/FyrQr0b7ktN3pCrSY3Bq7kvbcylIlU9HclOXhjI6PUg1HXSfOt4pfzzx66nHZYJy2TPftTwEINmebyKv/Bs2c+QQk8Qdox65k+KTNIhRpBEX6EO78+UFpT4TlI44eLRKE0bb5VR5QhNuLig5bmUay7Vn14rMEXv3BOVq+bDsIEfDdBZQ2oB0w7lAnwYz0Xh3NESV/RoegTLS8DZEUNvtmc3vmPXZCe29CNgfDwWTM+RBhzrmc6DhznbNmo2atRnWhFEkjsABOYs4nz8vSnqDdjRByMgRHhnDTu+Qzuzulql5bXfWH0JhCsF/xe/N8RMR4RcVl3NLuJk3rfkrCHwnsaIqULj7BZ/TKENYyoylaBKOIaZ22hjc9nYx8om3v1gEbARJky5d8Sk4dNLQ9YVLQLK7EASo/0w8b6/M1jeaCL/iEJRrMeZ6D8liJNPejA4M2nwmOAdbFKQGU7Pk3Pn15Sa66FF9cP0qiaobqSYdq7O2OGl0mlgsCDeghst9I3ytTnKvUMzopyuoeCsHQqU/oSNS6LFRQO4550rCgoAfR3pjIE5okpXj0n6Wa5DprezqNonqPeq3suzAuQigyaJA9bYGJMw/YZenAMUTPED0G53AAOcyAvShAWa9W1YMpnlRf+4wf945zP+L9yKGiHo6LavShzCQaBf/Ug6dUUxqeF89j4t3zdEZHSl79Ud876zz5+ANAf346UHuOfT364iKMnPrL70pHqseTiyOUpHLa4kmu5ePhxwKshoIE2Zm1hygwAgFaHo0yWRsaPnhZ2rPEAUgoeggSxgTmCEDxx004jvO2n5klKoC1J2vsfyzEAlb/Xq1GKdMqnENqqGVJOfQp/HK1Zp0ePTUTEjLvK7woMNsOGWA11j7p57Of8oS8qd4lTckp9k5VTT/QSW9gtiVLqasxrYN2D+FPl9SSui8BRVpaGq/RaDqYuLaTaXlYra57Uhg8Rra9vWlPPn7V5TbNwexOpBW4Yb6HeMAF7sARtCx4D6xpoXxiZCLOw70XRdVwBKhMo3PunyT0gqbCBqUzQov3jnpvYvwqRgAYz/K5QQcuCWR5nk05fAHwGZ0U5VtcMuFnGamd2K6Yry/GirUUchFCvugA9JMBakoRR0oVZmFEkmfpcnmV9cOnLgEM+iXuWJQCI3lelg4F2ug1QvNC+EcvsxuRXe5kvXdTg3t/NKd75t9H0yXY7B3rPkS+FA+5ZOZ4g72tFKFDUw2UcpUoUkx8RidBs+2bPa6dUDot+PP1njQXM8fsZbFXCyVxSnfi5tGNf1UgYtNhRzruJr6Qb7nx030VIZWvPSbQHkwq8oot+DC0J2jnRR6JkhEYsPKxaRjQBZB3J68FrxpAu9JqKr7MX/c7UFIN43mERMzKGz20bK3t7Y77kXh0FoRI+fDTMzohmlZ3Vv87OEdqLgDL8IaBC4tL9zKPZ4nhEJr2IeXgp8QzjStCsNgfsPNO8spKI/NffMgUeAnM5M/hZWg/hO2IOJ9YgJYK4IXfmB1bJCMJHAKtLOOWQOt1pYrBP909U6lHQsSegVbutsxjf4AuyjdiykOcczyOvJzRrpTMrukx+3WXhKOfgRbAwrTlIoR2pZ1RMr6gZgcpDgbNHldqfcIiFrEaqlIu2upqS6DnnOmw2Tj2pjxg87QIXmZpX9BCeaGGIvHQqgy0d31gPYe8AnXUuNzN48hExHsspHjplTGOBhrTbm5tp/ENDTUnzZjJzprQ/c7ouClXz5mTlsEZOGM+Ih7XRRe/EOmGAG0C4gxlUaVkUqt72rqHzp13v1stXipJKR+E8njZDbwHoYVACwVw8wmGe5ZnQT5LXCYGdpipV8rKRArvK5aIQ26qLVXdQatoF1K8kM9wD/q2LcuA9RUjfxUrPVNLaQalM1+EnrlPmsnDQTjVU7izc9pDh8R593FwdMdwIlxAJK7nrwWR48kx03h0sMlfuZbAIFPc2Wc4BvC4Kg8fl/rf7hTXfLkswkdEszKKdxYwmdxiJqN0YNdQPgfSqKW49k7tYQITR0kLg3YepV5IRcgylQf27qQep1Cx4nBkqwr+xJrU7XDbxhros1cU383TSNkq/nkLvqGTGij2EZqp6oXJHyGwt0llbL1C3zY6A+sOaxrbqtMYNz0/xeHACmL2DurKb6tYtwelqnUKZRvwXueridXROOf8huPkxwv8wxJuCbnqjiM8lASG++hZ9arUBvodqd3Y2Jta78mU3LCubacr3g7GGzRMAyuIDDS3eNL3krjG6oWa2pq3dwq+13BZ12pCJzFu6Ibb7HCoMSY7MPEuLntT8/YOqJvuN4UMyl/X2Me6Rl21u2pjBVNvzUo83ugB9SXVHW/98N0gtm/17zwpR+x2UlZa1d4Du9waW1N9e9E7ePK4NxCxPINQFLMYSWY6Wj91SNCi4D4UaFH18ayWhMkEtB9o0WwUvSnnBT57yXculRM+AcGMoL/8Pk6vRBHazVpxKtpyxCdIRn0ecHetUk/LGVHspWLLKqW675zBfsyNMh9ZKlu5IrO9UrNCrWolmUYVWQSvJk5vnMz3T7Oe09EeR69HtVG4d+NlSSKotkt/+bRTimV8xfhLRgAnjSnORFj+bICAH5LBvEMSTTpwQM47rmyesK3OdVtRMp6NTcsBnA+BRRxcVlxe0IkCrTzZfH6sjsLDSeP6l+78j3tTGPLGxui+YbrOyAffMeALeueF2Iayhm+GsT0pho48n2WSFsovPAqgLkNLg5bE8zZ6gHaRzLjw6L4yj3yaDasxjZw1dFYmr/Dg8Em8HNVKRWtJmHnhvTjo2L2b12zz/pYaUEDub9qg+8CG4lHnvln7nhXbd6wEb9+x4vZd+eF/sjxekssqT13WS5n9godb6vw6yS12N9d2YbbgWYaTjZReNi+m72uadQTTbs+Bx1YCrDKfkJxScLIIMpDlr4nyrQ4Bep7PdnlKAeaRN3Xse0vEVItx9Mc9AmzI616UDwPAWQik/tDzRfr7EQDlft41ZzUU8bFTBf5B+C1DS4MWChUPBYDJaPjtRoQhv2S5Ua/5eEE3ZZlRZXlhUkOmxqS/nG3WA5Li9884Sr2WSxVfXMHHi5vnWrJ2pFGrVStUpFVVsa6xVLl1Ab0hrsoUq7AP7yvAs3sEL8Il5TmrQiROPxK+OMeN326cmYwHZUFVJqXSLjYksZiPas1i2Zrsdil9xVuoylXKRNb4jm35YDTvToQV7KUN2XmRdeMhXYvIhNeDQiGTLGFMujWjPW72F9YdncjzwF9uAW7Etw/eJ2DniKaNVYJ5JbcsYKFDgTaIjEQvEsDdi6aPWqQBMT0BLVt+0PgIAZWsrPkjGif5y5tGWpYYRo3HFQl1S2ZvU+PUit0fFDTeMrveHthmqWHbMpO3izXrFmoSpqrGiOJRRe6KxmPVE+WuxlMdMceDsnSpdcaMw8vW0/ic49DdLEjQCFFo2Y0HhF+Ct2XWtn1MTWWLsQgTIn0zPlrSdQwze6BFQsswlKAJhJl/RlOXSGN0JikZBre7AgCCL1ChAReVfcbN8QbaFDA708yTm89oZe4bDKzJegL33+2OKeXHs4GFPEgDtMEHJeUpi3UPyieMm15roILwfPbevXvek7C52/r6+iQT+2WGYrHnz+9e69v/4yd/0d5/s2tb1UtuavHNHf/kooDVLdRd82La+ZhDQrd///owscMeE2B8FqNe6Nl6uWff+U1/1N7+6SuKW8p2qJjVo/LNHwTM+47kcjlbvrtYjkjT5XsJqlZL1mpJUzPHB2iyvi/cx1EW2pNN6FeUxjnhqiEPr0ONfHCMs69lpXrFr2A9nbPExScehfCawO/qt1TwA1rRu25VRFuu57pm/+y3PmC/9tI927I1yca6zH3Gu0yD6Y90nLMklBe1utpcsfSGdvPaTdu8qyEQe1oL+Gn8LUXDh8nkHvN5mKJMeo1pi+MV3VOwlt23Zu9l+0vf9i77pi95s11QSPZmzvTOXAK0obzYG+rOnTtWr9cdHxxDwQVGCHcQ8C4NWjLGAPv+/fv+FgMbVp07d853TWdh9F5EbCq3tVVnH9Zw8b//yV+w9764ZfdL56007FhN4yN2e2ffnl4xvcBY4xszMldG8lsKtIWG9aU5R70tmWxja1VH9rlv+zR7zRPnbVXW3LD9wAWADzsxKeF7LnvrA1qVeSJtJ0OuhcTLpNpcqdvauRW1Q9qNEQGCWN1TYt+j3Zqc9DKT8OCEFuvaOcX95vXz9voLNZ/ddULFppme1PCQstRTnQZomXpqCFxqeHmozgXyFLSgdinaA518QoF/5j+/z37j5pZtjVetX1jVcAeAMbadD1rasCxgsnXqzZdu2Na9TRtpcFxypZADbUHAB7TyIxs2ajpoz5e3rSHQ/uB3f7X9kbe/xkHL5NdeoA2MwOADxQZQ19bWrNFoOD5OBLT5BOCBNC2gZed0MoZghLaNrSF3IxKkQdiV8WP3zP7Hn/pl+/UP37R75YuqkL6MQ76TCmhllspUxSyujza9cfFPxtbBqKCx1nBcs2G/LQ2khEddq1cwwvtqeBnAauGSBDYAm0ArM0zH+NziSZKSddAuTgqchV+7tGYXH7vkwkFbFaVe44UMH6vtRYvMssyhgqyXkm3aVQH0nW98k33ps8/YZTCIiYmUZ+Ps9GiGGyRDquxuBk1atEGBUdk6Gesa+KWtBSu7r2Af3TL7p7/xu/abd9oC+6rko5XZXWms+hBo5aA9S9Lgw07fbrx43bbvb/ks8nzQtr2tmT22oczhQcnWi5u2Nr5pf/3PfYO9802XbJ34yP8+IjgQPgAtex2jaVFmeaWWB+1BaSHQzlJoWsxjtCw9CZm8evXq5Ls+exHNBNM+H703sv/3P/939n/89ifsQfWKGggDOIGTL4EDXBqlkYEW7bsMaM2/As+Hi5WqGotvn8K4iZ+OgX9BVQ0tAVN360c1fAqXhOukCME7UIoSgBCB5pU1u/DkpckcA0eGMLhZwre3rHglHJg0ohXfsSeKI3vPW99iX/msZEHV5qa5OgKfXBSDX5KARiVZa2hob8+SNRBFZptSz6m2pg5YfFOw+/L6wH2zn/7137H3PugK8Gu6U8BS3LuBNqwlzOP+dteuC7TtB9s2lqatqE74CNs80PJhNkBbHtWsPrhlV+ub9j9877fYO55o+NoCl7596mggPAAtsHH79m3fMpU9wsM0jrZZhpa7S0QvQaLBnC/Sc6jMXsEQoXk+2qrX/C0KKj9dlUs9YXreRha5Jt+D9y8TKo/7rq3r4y2rjdv+Ua30jVrGROn5nYu9gIoQkTazyyxISI8kkv9JMs0zz38ek/two7AGyndi3LPn4Z7luBb3LM593cdz9kFFYw1pE5+Dkr8rT8aJqmBv3ZyI8Ow1rQTnWnbB2zgYvyQVdPA9OWD/6gNXFDYX3a6ERNFZ+feORMhpXpKIJcWUi83zIctLXmwzw/NvrnrK+8ghSi3wEcfwhxbByV6UYjsERaYig4sRlZREjd1mVpoJtIicV6fiwXAFsFGZCVT62bu+dqWSQJv2CBZg+dqAzOPJR6VnGp8k/OG8PL3nTimfOEOp9PszmQ03AGAix1keyS0bwznvnuXsGvcckAF7n722qnUr1fmCLOAiL2jB+OU8yySkQmJZcRrlTS5CJR9+YRRwuyfQDtUetM3kCrwPKUhsnwu5nE5ui8zsJHz9imSDl1p4DDihBYYQgQe0bWhVzgMjeawc1NhVM70yRKVH/8oOdzz1SQ1Ig6QqS5ojK6T/To8HJQCYhDjTnOoQMJ3SuEesdpC8KkW6CwHZFwvw3IKPJmFCJ+ieFHtHcgD2mpq4Y3yeZ+IM/xT/wzx7z+KM2VtRBTc1pFmr1IwntRX5pbVNCHmYsLR9kNIk39nZhDwA/gma3A1oO30+ZIXOVedA2827dw4BCr5C6FvNcA+A8RuJIR0foswLoDcbTYEuwkxzvxeRBkMShpCkH6DdTbkdBLhHAtrZTCySgRSGCQGNwWQeA9pkCKWGSs1J9og7xY+2XZYAK5oAZlzM80oeNPDslmV2VAUATkQ+0niXsU7KU8Dp5Hha9oNx6oxSJ+Q+4c7OvXPajbm+BLP+tzooWUt1uq4qna4LTqClRJC3MJmYUCpponARNoWHgCnc7g2sx8NataVLyYKCTlgAmzSt6ob7ud2v7sjMQ+SgbTZmHpXtnW7IPyuhmPPJP7fdixYFLvW9FEWvsV8PMo/IGo8WdIc/S1zhY0QyIbg7xRCCm4CLOwF2sULNIya1tkortl1qWVvcKcJNjcMa0qV1AbkmYFcdyOpKfNyUNDKAB+h8OuLkmGfUB2J1POFm8iaVg/2vEuPnR3VS6fo8jusH5+K4ZDXZySvjsq1JqmrIqb9GNR1+ROv50Rs6tbbLQ8aJ5NI9eX+eMfMCfF8ASCvmIF0J515EXBPQEhsUx90pbTUz9o0a2IVxkluNjxchtGxMAGIiHxUdCrTBeeDGtb0oIKm7HbTs2s4ePFRIqlbFJReTR0wWseAhgShN8C9DNDQz0s4CJYs30j5DHFPnkPTBtLNIOU2dRhrjniwfhHbWCzWb/hSRMzU69ae7nMfEoXDZPfM4hhQPs8ZtAmxFddlQFP5YJK2PEtEh85dIwVXncmRlRJz9ISEXGBfDupZmNqaEwhrpxoLSIfr0KE6AdJaHeB6cUGDO/thLHll7RxuTDsMG2HPEZGQWIVvLtGoVayiDDjv85yWSo5B/NCfuarXqs8aBk+A8LaploXydLEyzidODRaIcU482nySOQEacelJ60Hq1rIKpIbhXWQJYZYG1OdwQ37faeFtmbcW6xbQ6ahli3FUZ9ZyJO3FX+WBBe3qBbQpb5VMNx+MAOPnxxtHJMqt5F2f16Jm7LGEujPjmm2pTR1439O/vDtQJSsCZfJvHPj71FhBnQrwnq51ZjAIDXKyVkjrgKu+dlgTYUlusHBXYpkWgzuoW6ejLwZAFiWA8XFdwzoaEZxZaHaq6WZWhK0auzLa2u3IIANbwbw0PdWGgIQyTZzymYYY6jykHjU4q5Yr1empjdQYoSXIxltu/Qaw8lGUNVFRPMHnBIuG1vOGgYDVdv9SqSwbTIEoX5PAuZl+KRzuYx+QlPyEVeIE4D/9FaCnQQpEoifGwmIzx+UsWXOyfuFebu1CwvArHTndsp0oviNik3q/v2pYVLzpLlexNe3AivYlAZkwaUyY/UZGkAVM9qYq4frKMaC/O3DM9T3EEJXech/th3hFOxXcA7FHdOy7ppCRhZocHnggUeAYqxPijsywAAIp7Ui4h/SJLmQfPZuPJebQNhKXNJBRvEcHoBZ8RBqj+F/FlNDnRNcWfdinJyOUzY3lPZELxpfzRYZO+LEE5G2WZt1m4RSgv/7iDoTxYl6WlQRuZALSofzIDaNkraj/yzbV0P9kHpw0NGJr1urtzxfUwyWfqe9qIMobwH4j9XjkW5HzYBPlUfzDAifMEg905pbuTMWUjX+6WHzSbX9bz1nn/WOcIvIRkEhaSz+QYbqfMg3iC8teJI70s0BWgAWCy7IidjmCWsuiyOFQuaVK+KpCgrfh0yIMH15xoHBwVaf5mszaVzXkBZyiwMXs8CsBChwItmcAUzpsBcGRyNyLv6U2fJGrs3M64dsygRQ3iYbJqT8CFUiOdOlL2yfXBOZXdAbcAJ0DFue7nqDgciH59p3sv5v48BygnPHMd5kpBFhHbByUiJKQ4M5eHyZ155YQIehyJwunAF3FHX2Kx3etO8oiMMQ7fceMMxf1DAOsmfPJNqE135u/2uDO3b8SgGqtVSrbWama5zGC/e5IPkecz46OipUELAVrv8ZShsNcXIZqOCmcGmfpL++9onKAxhYM2Kx/hpkRFR5WeDiK3SUyXYARIxV+UJ+CCdf8sWNO5wmXuuZyFjft23M8xmDAPsYRp1BdoJQPIhfuka9D0LO4OwgXvbNt0nZDJKGWPajSt50n+dPpsKD6NJ5HHFlFlF3lGC5OEX3cmUDC/szmTuSwTH9lcbWkM7d6hqxej0KwHGa8uQocCLZTPzGI9yvS6A17lqlcK1hRo2Q8oVU6qxMnMrc6BOZf2i/1RIcq8NKuSEnin51Sc12Vcm8cKNgmXYzXq1M2R8xlG5JkAa1RldRFMoQmbgCCXEqCtnbksSvFJBD1aTz05nacuQMvyxe0eK5V1rqDcOw0x5TyF3+7fpE0Z8rJRDuRNAZJPGueyzS8r9g4K2picDUwA3EWV2n60dCx5DQvFDBkUx90oVRC1oyZV2JqiaDKDrJrxyagsDL26h/Ow7v0pRRQZMVnkL1XR5MwpwOhu5/0rMYVIoad36Zghjscr4Zf/o6WiHflIFZBKIRPoIIQttWhq1UTJ19Py+8IHVwrJRBbmcXswMB4i8U0fl7GE3rmU4lcsBHGLLgsomdJJcnrO5MaLM38UpDT9JlbFDa1SHGe7MKZS5Ot0N5qV/wAufBR0KNDScwDavHu/zFGc1GQFK2uQz5pjRkFrrbpXEpWVwlCB9HwwTRgNvbNCXs3k+ZXA0A/BlAGBwZ/OKfx2Yy9rBpZZporzrBuS2zu97DppZ+7RcKD2obmn8c9yXPN0c+zXEcTg8MvYy6R2q5XGttas2HjAIzSRz1skEfNzD5vlKfOjjT2DBNMh/JPhm+4HLp3B0LrMl2jMjDxASEXmTKTovXqy08jrUPcm85h86jo3+TWILoffrDSTuHVfv2PnV1smQ9BzgR+3xZ17EXtD8VoeGpenK6FlAx97YWQ/SjEtQbO9CZkiI/jPXpulBEiqnGdfY5NFZSuNivdqLhwehr4tmjdokep6NRECM3DAqPWcxxq3szMkk257MfcQNsZjs4z28FnRjH23SY7MC+gIYMc6AhLcxMeRa/jNY7+eHfM8CeNl0P1ejjgPP4FW0tSsqkPyloOm4pVklPZTeLVxXEntKwZNGaUWT/6EZIel7X7fesiWd+Lp+iQct4rTeaIAr1/y/CJbfikjUp76JctuKm8lXeDZ9apMYywHHjZyj3Lvrr0IHPDok9VQodCCDgPWoGlsSxKZyvccYcvvRam6cCT41hg31Ksa26aFDFQ3lRhv+aSK1O8+8b4aiUcgzKhWVTbncimts5ZAIBh8OXAeY4FUpDUZMizCEZbjQ6zqq0pwKqrTdL4LK1+EZXVantO17PqO45RZvFFX58s2tBU6cG832i9POvM2TL78qlvInSWguST5aWp7QLvV6VhfHYe6MvfjGpOZAU6/J3cM4ro/YoRTpNOwWV5CxhInUvUnZVKv+DGVJGKI3M6nvPwHNvIYOSypqpejvGaNc2ihzOmyVwE9uZoNIeZNnyo1JWGGqMCkabN4/fd0EXke9rs2gHsdd2M6opV8jERZXTPOY4XZgz0eNPgs8/K1ro37vXQUj2ClPRrIz/3n8wjN4PfOcBZHPr5wB6twLtwAOr4qh2iE+E7bD10FJ+I6UoALt4fzm3AlECERmwKtSp7mOWCCKIEUaso7SIEcrDzyISyymV2KbiUIVzKN4ZQqE6PIpZcphdhrGD0hT5PCZxSYCMwclhIilqDISFD+fK+M7SxwBk0VsF6ReawxF0COK0nbUrWw7gxb5tSQ8qvyJHNYgBLY0K48RqhJ+1JeTK/5zGI6gUBxLMS6Z3JUq+7UgjuP+3PEMWU0aVxL2n32ekFaNpUngRLB9ZNENF1ekLNjoqx9nTPy0xSK347MzTHy4TKhBCGFyUU5JflF/JjGA9V9zB6Tzg5Aca7AEznzG+WntqLzbMoCBLzeyUZYgixAgYngfLqHoaz0y1FkIp7RUjHY8fB+RBWwTSW1ToWwjNF3x5c/sSagomlT9Wd1eeqoUaslgCLQEmxKxfiy3+tKMUpLoTXnsGncitAA9IU46xT8Pr9XgqZzOIVRjePnY9Pw28kRtuD37uRJfNJaKd6d1zH3WxJwjQDc7HTRSE23k7iQyQ2U2npvUq5su8Mz2gRaISBFwTjVQ+yk8OOIjOaHbN7vuzMcyR/aEZvCI32tBq+NFuWm7dx7IQqgzmrXowDuoUALkanYqIrK4R1CeC+aZNt7zARaXhhg4/I0wwkh3jspV6WnhvqYoxJySlXReNbX5urISABNm/+kR579sx+q14NyTXHzmmMaj9JRMEM/5fDbm3PjWY4SOue4pnZj9huOa4yZV5p8XgWBpeS0XmqxeWIabbmfCHM9bVLOl/vHNgyh12GePMwaY5w6aOlYsr8pRSTqZNwRjFyrXKrHZqOuI74pYpKfSeIhCsDmwQodlaZVp7h8TLFsEc3KroxsYgVduXLFd2acRyTWFVMcdhKi4+9ICN57rWN/75//O/svH9u0e8XLHo4dI/iMBdPt43E1VSwvpp8SojMqjAdWK47sXKNsn/b0VbvQEiilO4pDdsWgPBIHNIjXiPu4ZHDkpfS9aEfTISQ64FNbb9j6lQveORAjHepAWp1VRBFmPumKpJ4/KOUoR7n00rUsNv03x3179vKaveP1F2zV35pCEabXIbGqqgpTVBj56jY0Ju/hprwQNj3YARpML8lNtCrTts4/KiPiJ/7te+237gxsu7RivVLDKoOh1QVEdiPZ+XZPqgcWc/Bi/rDbt1vXbtq9m3fVAVVkFQBiAKV7ison+RopL8oTW+akeMa2Nti2x0o9+75v+TL76rc/Zqty00rbQ7ZGUofrKc0n2gUs3Lx50xUaWGC/YxQcr+jNgvmgtDRouQ2mF+PtfF4U4LkUAH7qqad8j9d5RGIaYeg+CbNvSiIQq+Lfd3tgP/q//Zr96u/css3yU6oQhEwVVdiSm3RW9YupoRb0WE4DIYIar4/b9trzFfvur3+XvfXxhrV0Xh+1HQMANgk2ujgEDq0AJb/dyMf/VAWABfxZe5SrJWutNK2igSdpgF2OvCmDIbNv7SHZByR2qVhR5Kmb2EmexeQU7Txzwoui+Eu4vJaY0u+Pa7aloB/umP3Pv/xe+4O2LLlyw7fVrfZknUkF++ZxSjTWQCd9KnNWFyqAdqtrt6/dsI3b9yRLsnCKJevLxPdtZcc9T4s5FV7kT5sg8BCyZKv92/b6tbF9/7d+hX3Zs+vWUEeLldEZq4xKh7UFM6WYEG1w9+5d3zoVkAJatk6l84y1DIchpOJIaJ45MJ9SC1GwPLHQwt8QUcVMH+0koedID7h7Nb16yUtLeQQwXjFsyX5cbVRspVaaskC243wHy+zclXW9ng8nYeNcYG2VC9aSMEux+9cJm2rpFakH/Fb2Y0zdA3JzF8BCO/32a8OsvdOJH9syzfiYNFvGsI+yX1U0Lm97ROfVDiBd1lKHONVRcQziPJi4ZR2wSk/DFIlkdjf3+2FPQqMG4Y40F8fI3nRo0EZGIjOLZiwKwoHQgDaNHzDhpmBNRIjke9qIcjKEGAwG1ul2kwCoftLSOsZaafJHkuUc52lCKi2wmMf+uMgZ3RLuxElTp4dlmNjUWrj9uAenml6Oj45SbNH6qjZZCaob+e8wgxeQMwA7efOMe9UeXv/Z9Z2E75TrTCLyYTbdlwfifkSaMRmbv2+R/C5Ci+dkFyIjMJmD988Y1wmXJZ2Bl2e1aYM3xedGDgZjVODppSLmkI4IS5dPHsrts6vMwuqIqeWsck5YA62J/z7M+I96SudpxnPKqYGDFeQhv6PkwxM5hGn1KUB5+d2tFeQrux6H/QgA8cKAi6WiCNB6xJ5rLkRknqoYW11j5hov9acnGgnmqtMFCspQkWWMpDU7hsXvsHQkdR3AzfPepOtZmFQICZ1sqzS9rky5KanKyxXw8EV9hUhloIyAtCPQqmgqFwBTPeHv62KlPTPm0c04FkgMd2df4DA5H/h58kuPfhKYd4olQA73bhz3HJTj/sNTgk1iFUXc7alsOvF11ZncqPb0tz8BWp7TIpPEF6D1NvE0olaCksKA66yG4sG3k+7WPZR1P2IJI09QSIOJqMVxsRgtkoddKZ+Zg2VKVUIrQFSimBk5HmQ7aL3SZOpl1ZpCyrVw/K8eGjAWE2Axj7fU+zKLOwSYKiNDAWZ4eRTEc1xn+bH4AubRze4cj2d4vJPuwx83OwgKvapamIkdF1d1GJxnZvkuTLhXklJOyXHkmjFtz81jZn0RG3IpYUsyp7+9COCkMS0SlM4RIx0m6aSL+VTTIhjkkde8IwVfb70AkUaY5AcxqxelpWP0noqSiw4G2ETZrdSEgxTQ1qsSOkw8CVsC7rSSonLjttNBarSSzCsxdhXABcAuRFn9pbErLD8dH2b8H+Z4sYAwSUunI+cIHgtXYJ/Y41wsXGdm9O6MQCzDuvVIaAodcpzau9MbWH+gsalOAO1kpdUCMkcdJ9AmOELIanJzv9yTaEgZeZT8FUe+o4oUpVtGXuceT8rTXhQzxMF5nBwFUd9LUYxhyRCZjHPMAex59nyFIsP0PFQeelPiJYDW/Bla0W1+aVrlZLVVdxM5jc2yzKVWkkMF9nHw0RT8pIjZzkq17kK3sbmtIiQQO5CjKCqeDwXECE16uyYrN9pvDmMpTlg/HKev+xFn1s1RdaLwS8RxDk/SXJIPScRArpEPdUdOHPlqf0cmMnXG5nEJiArD0IL62IV464kJIcCC7FEHyCqyiZymzgFfrx0ROUjKgnXaly+dT/XJ5dEgk/cULL5CGPKdJ8KRDkT6YSJPJsQOSUuDNjLLkYyQUYhMMhAng7OFIhx/EL6pANOqi7Wtri3UGAhu6hPTby6qU0HkHpCi+/iaBV8x7/qkikobTBgPnR1VxnQ+Pe5HDvA8eRzTu5NbrPTcnU8/zx7ulaMoRpKGpGkBbU/gDElIYXQdWeKwR54JOyuDqYzpnrSOOcWbKKUCaHnLqiphxDrxENltgNiBrB+XZzIxQ2CANEORHTUdKsZ8ZZA5CjDg0UYG2jzF9XRHKmgRe4xKUjz0SyzB4yt6hVHfezaaLCqGpHZsg3lKqMD+vCOZxrLtAC0aQ57enyfhzBPnDwvBcpTFNQHjYpzqW64l+OgoRUZr+zd8NKaN+nIJADWQJ5yc8wj5DDmc5i/JEL8BUSKZ+pLS0GeNWQ/va6nxx0beO7kJuUWptEPmg4+KlgZtZITMwbjDTA6/8J9HXkn0Qj5OSFXHpuVsp8p4VgM0cdZUXIRTzZ4icmPXNSubY/Mdmq7GZ+qtkp8DCo3iYnGElNX5BLBByR1tN48TkZuD8uFIopKOXhcpH0iGlKxtC7RJIwpOyJTqzPPr4fLl20lMrOWVRz6XyCb35tNLLm8xjWdL/sgHKxd/H5YsSJjDMEQ6YCIAfBR0JLo7DfRTZnkuFRnOZzJA7C8kc44n17PKICMN9WxpTJuJsleshxTJ82jKfGJEzhmSs64VjcvyuW5/IAFMezvAacKF0rtoHB05YKF8pb26KzC1dgApgZY+rt3pKus8wVZd4an6jM927FUi5M1B6xWrkC5Pck2dOcqnztaplQRaNc0UtOmmh+/dSSgvOC//3snkzg9DhwbtxOzNSrJ/rzJT4pym5Q0Y3vThUYi/tudhdW1S4KMp9MlR0rL03Yxtu72hbbe7DmQvMcLnZdrJ4Tfv2jxOj8JctGb8EqVaTBTuo2d+lyeym8uyx4ZkqI9TvfHVCtBDfaZaATkhc7vRBLQZTUNTV/ylutpJqTTVWtlq2cbr+TuDYiIqT5yjwHhOy3EWuEdFS4OWDMJkCpAGRcbjOpyneNNklvDjOSPLxnwp40xl0aceRwUcNyVjKz3AYjy73en5jHKBOlN5QnA4OnsZp+6FOH+f+6Wa82Pmhlw57UOI8nJ/R0/AbSDQ8qzbBcLLmogUw2rbjSYy6KGykF5PIj/Fna+UCDe2iqxFlAiS7SGy+/j1IbXO8/JIOgNlFsDypQ3coXEn+RAfBS0NWohM50Gbz9RsgeKcWWG+z8P7FNTAoMQnJht+bUW1ca5asOpoywWsXWhar3Te2gNeqdrWPbyoRf97Wmhk1WLfKuLReCDTuG+b3YHKq1IU0stdCc7ML2v8Jf9usWJbpaaONYnO1Hw+CEPEqYoXEzcEtPerO4WhrdRGUyYOgcU/SKb86pxNyYujrq5hNfRNpRMnaCxDvJ0z0NixpLirg77VNYygFExF3hyM7F5BdVYRAIa8MVVUmGSd9SuqMwUcKp/ML0sQkwxSBsWJ8nAFQhpif7OHO3UPs79FtQkvCBaljf37QKWWilhTuUp2rlK0K5Vheg8NYSzWVVbdOBr6UlO6j1kgAlBAy1tvuMFFHKE8Jg5DKbYlKDIQmY5jmMZxnIA1jgpXHvJKVF9CKvNHlcebpdzO2yjr1aLVCx1q1XoC86C0av1xVRXcsbJ1FhC8Vw/RsOlrdgm0PTV4WwKHMCZw6dcXkiTQIhuDYsm6Gv/2ZE4jGgejneF5/k0aiYPyfjs57narRl5pg3HyCeOrI0G9DVgamIFD/sz/+6UlSNBSDaBXxXzdTuAsyYnP3UHXNgpDG5SVvpKtisuAVif9srRtSSawhIe6IzPRdZBb3xuKsYjI5RNQKxzWCPkuqj3KAnxRwAbJowLAlHYVgFcrUiAldbgUVTfx+iTfIfQnG77KLFEAN2Q+OgrAGhQ4CAwclpYG7SxFpqNXCYpCBaV9eUXywjsuUR7e++TNivQ6lOLLCjkb52miSW/PUULENjOSFTW6wKrGLwnQfH6zqk6pNupIy/CurawKnafPcO7PxDE955GS0nUhS+/q0iU4F/jIaObejQnDPf6BasWhzpPOFaazwW+MZVRsqgkbgltdx6mALkOplUXIQk6wwUu3mzYLyImQiDDTcEEBWA8vsHq9u7WQhd4ZiYeGJ4CiYXQPvgzTePfWyTu/FC7F9HDaeYr4Uvi47+hoaTQEEPMZo3fhSGWx6oQj5w9lmkkFqjiLg198AG2TlwYwY6hsrigMW9DMjecUkJdR+eZAmbod9oYSYFUUnz+Wpi3Rh8vMrMjcDPDi9o0A0GiLssxI33BUcUpkszSp3URpbfHu5CH9nsQoKRfhnF/yF7hlQmIj6NTbjpZZvnVoaWISexuL9Y/PVrvj+YjYkxy4c0Lu5zd4QD+n3D4JxfxBii7l32NNhNvPJ9cZJ9N18aHzupUkkJ6WmLtos3x97kYhq8FHTYdSYVGAyFzY71QWdj32fVyHPDzs53CqUK8RkWvaukxh5Yr1uElLsQ40EwsH++kihMnLL8YAbUvT8uhnxLPaibjriurFASztm77Jy6MhidQCnLZbcZj6sVToW03gr1pbx7YPK2D83I3fXqzxKnqa8R7bxMB8VJkNf9J39GUhkE+Fq6qDqQ1lGQwZumQNuQT5nRPZSOd0GLxkAWhZd0z9wdSZW2IE5CzuyeQRime0vDgPpTDpOm7VlLshLmVReBCUxkqr6XtuuTdpZ8Gp4/2I+Gf5KGlpFMz2OGQszOPQtPnp9p1EIVJBKE9YzBx55MPbLryhQhW5tlacpDeb5mkhtjmhqgfSUJudgW3L1uwVqhq3wjXrF8RyD+Q3wCwVXHDH9f05wqWjf3zb+wMJZ76F0/OLVOm7MeH9bXnuldWk8xSXhH/iLy2rMTcdD6aja3nf/2n59gFE3rzeMad8cLq1LU2r8wRWeSqPExCoPpV8diW5iYPryArylyy2LDxEpBkRbhKXKKw73roCtP4UI7uGHE5uzUU3jyLefPz5dA5L1NCREJkCsJG5nb1eAlzy0/VMY/o9nCZfnQPaisYTfE08vaHiQqELPr2fi/O0UBIYppk04pT0b/THtjkq27aqYKvYss3SqnjNtjLeLq1P3FtFjqsL87bfp/g03twS6LeNPZZq0rf15HbdW/fjPN5WZ9GVHu0K9Js6bijfm8r9lritNmurDFti/OEt9LbScdOItjoEOWiBRSY/6Ee6bZZ++uoxr0Ou0QGmOg1OdyQ5A7guXYxpYyLKA+gnu86ph83SgnCSCjLHnAobMrD+GD9uCtnzY3LuSsQbHOdHSUcK2jwnk3YnpcxHAbKw7poyi7RZQsY7oT77mausferqVUdeUjItgR8IsN1Rye51xvbi/a598p7ZJ+6P7OMPzD72oGgffVCa8McelOVf0vXirvzcDLu/4nmOODYr9qHtmn2wXdCxZB/qmn2oU9B5yT7YYaO04i5csg+3qwpbsQ/qng9odANz/0faOmb8B4rjD+T3YV37iOK/OW5Yp8iE1HLiRBU5RwOrvgAtzLPttFtlslagqdQEJXeSrykxxEqOLEQWfxba2eUqEtYRkKJhWRFFag5ajlncvsgj8ikK/0kcGc3m5ShJQ6mZ1Bak/CRTGnsmk/j+/fs+nmUpI7vQra6uOoBJJhVEyWH6ys3oKI04pj3r+6517Mf+l39jv/6xB3bT1m0gYSir57PtO9asyYwcUY3HVyFHTeSVr4kPu9tmvS27vF63p69esLWarJIhzzuZk02E0CfBD+HfvWm8LvOXderCrP/KuVVbu3I5WT7SHOVS2d88Yc4hDTfm1x+6rKQxL91jp9iQmZ2eJVfGPZ8cAzzMSm8NmVWu2lp5ZOX2bXv3Z7/Onr1Us8sKzR0HJZ7z8uVZnr9WEIJKze7r8ElVww//L//OnuvX3IoYWFNl1hCMHBYGMs+ZA0gQZuqtJDlhlwu2Sh11h3btE89b996Wh2E71QRJseouyZDuHfWt0Nf4v9HUsKUkO6RrT6mNvufrPtv+yFsu2jllCEllZQHE4EWVqGykpbpQYAEZZ0dStk5tNBou+2ydytJe6j6glnCwPC0N2ikIU6ZnQUtGL1++bK1Wa2dm3f0waDNf++Ctvv34v/gV+9UP3Lbr43UblhoqsCqofdffAuKeVOGng3jpHXOfZ7EjCUeZvZw1Phz10n7O6bs3CFHSJqlsjKWYmKJ2Fm+eaI/G5fO2/uTVyax7SR3oIAfa3WKkRcoygpnYahdXBMw0EVMdda0x2lJu0yOktjQrQrxW7Nl5GdDf9q632ec+uWJPKOxyoB0LtKonacbyQCmWK8YO2h9Wf/b/+l9/1V6yFQ0nVh20PDcO0MLUFHkcqK5Kkjl/f5V5gc7AQdt7sO2ABbgB1Px3jwu8JzvsqJ+QtSBLqKGcvPZSy77na99uf/jZNZURqeS7uAKt7iujcCTDaRJRLZUpJAj5v3Xrlst/s9k8NtBGl35gyic8z41wBJHZyPA8IUxVmKoRrcQ2H25d6x7XCvovMvkhAJw2oj76/YF1B0MbSgP0ZTl0NOYc1M9bpyqRL5+zjfIF8UV74HzJ7uu4UdY1H9+em8vtynnbVpgJZ+ftygXbrq5bu6YxLlxdtbaY42LcEq/Ypu7drK35cbvWVF7riltclbuxbh1d25Agd1SmMnv6ZuVdjkImaGuBAEEQb8kU7w/R+8AUgcgueIB0Bk0kChnjBHmjc8rJIBThg1xW9T+xBN2PZ7Rlf4rB0wwfBNN5TrLIPamjCLkmHngwGPgGECnYdI7H08n8wn0YWhq0sxQZioxOQTotnLv916tnWtlOVJrMo3LRN9TiKjPIXkQFRNvuDH86yMdG6njSgvdSej+0P7K2Ouw+GqFYdTCPWAHFbKy4wOyvNNpIZR6qh57HfcXXVz0H+xPazO1rrsYaeMqk9WOOWXqo0fUuzOIMYqLeaY/UJr4IRCZyxfWNzNhi+ohYozS2danW8zIh6xPdc3CiXWV76C+d+VEN7y9XjADtNDez5JKEbCFjycsprD8ohdFPFsDdHFVX/BXpKAA5ceiIZeR7cKdgft9DqeveWeL+SBMcBBaOmo4EtAHIyOi89wkDyLGsbCfhlwSE26iwNOxKYXnWxlakqepOF2Gu0ZCUn46nVJYwVGtW0LgN466nNkabwGxeNtC4jkcVAzHLHnu6dx5jRQ4UZ55Zu4z/WOZ3EdNxB2v8LC6IS0WBcB57OO7NBNqZJ0VjN+l9bRU7Qfb5LGbPCoOerai9LtRkkgvwy7YOcEsSoD/JCAYV52wzg7j4yxCwwwaeUpx5ypkcQjy+8XrPzoPi3GPyOJFbSR6y6ekDWjZ0w/AWpYj5yVE+nakbOccMJt7AQqRxlHRkmhbKZxbCxsdkSI2viqES5xaCgicGtI1GTeMACTjaSYQQe5xHX/5jJRdiCQEL7xlTttvb1tVYlgUj+vHxbNpFseDfdq1Jg9VL0loaR9VKdGDUx3zOAzHACOPvLx5Ii0+57MdOdq4R3HzmutXklhksGLYLGufpyHl3XLVBqWHDskx7mfd9cW9cs7H8qrW6ykonvVwDJX3HvXTsXjUuDW12QHEwUZPZ9ez4UFpC99QHjaf75iqIKXlaBEEm1UZpIzwsPcahKYxCiBX3JHKAnVwh166MMg6KayHv+WuHpaVBO5vRyGAAli1nYlXUbDj94ErnziyIo1dkplPCW6sk0EozEZTv/vhtk7uWpxCAKQfhyp9xLY2lcC9DESMTQVVJgX81TyBlQ/a0g2JfhWNiAxCnBQq8QVOQKWrOmLnzmUdi89gfk6kNWPyQGBM88ciPzPzKTJ/LZesJuCzwQK+Ox3xjiPCMxWvWHen6QO2reLAYxkqHGWXaZtk6giQ1MkWZ9EKGBDjkRf5pv2PV1ZgJunw7yIU8EWhC+CHQCuM4y2RuR5idpyGXI5Wdcsjit4o6zpVa6kSF43RDNshOqXMPvUqKKQ9KlFLIeVBcP0paGrRQADWfMUAbs5QANq5x9Bk0P6PoqRLwKal/L0lwKxIK+uuVFou1qzItiVthpHkG3bZrpWWJ9HigQQOlhfBJeNlVYqQ0WHPq+xEr3y4ohap1eLQhjcJ9/vrXgXksbaS4yuxakcDpywCHGh/KPa0N5U0FhdNX4BRUbl4R2415lcyXKwWzbMnd3CdWOSoqG6+74a4yvBgwc612UIrzWHf7WzOm+l4ddmxtIH2rcTGdQbek0azSqCjuqvzL3dtWGt2zc+tF6WZTuTJzcgkiXaqigLYs89nTFNNWlzfBaqoxRsyVDDsy0WVN0Jos0GIuvK8Oj47R41CfVlb98MhHN4pSxzv0dk7AZ6kngdkQns7nfldDEzq1Udfq4027Ut60NUXnC8h88UgThxIDrFh9xEsciZB1qOqfEEFmpzURIM77HZY8+aOi2YyR4XmZ9YrL3OkqAi0flR3hYXEF3wZ18SIOmkYNkx6WTyvrIEQ6nlY+YXFqQMUvrcemcjXVSElpAa4arSYgM6arugl7MKaTYS/nUb8rRcpbO66/0mMGudO4nTwgSAm05CblCSIATTSHAem8cx253Zm0YNUhAp7cCrULc92BobxVpfHr3rlgAci8z7RqSWmkCamutFJP5QOwut/zujyl9BUHj8MUP4siO/2BDdQRaUAgji4OiyxNlFFiiKKTupdNLl6tY8aPziuVSux1TN36Le6LKkU+sUCwGgpKu66x/XqVIUqKjzRTukESUl2YJ+uANz8EPA7AQlHuIyMymOf9iTDBCbTNGl8Ul3gAWASOWVVdZ6Imwh2UEDwW4kt3SvsINPSYztKjOkqVSxBZBN+26nDLGoMNu1Bq2znbtEp/06zXPjAXelu2Whb4FWdLGqTOWFSNTsPy0oAvgs96/3y5MjHLzk6WduaEegu/TFDF5AxtwxiwWW+4EB1WkDzqNAMGLKynJul0prPHiUg5cfJRXpCR7Ahj6bEXcrwosBdh5pIuE1HEiVLgiw88Y2VpwF5ELkK+SRM37coEbJwvJv8HpyMBbWQwMjl7/jClSocpfHIlwsVLA2g9zDJ6Q4QjtmdZlgALYJ1yGkf7d4N0bFYrDtpWaWCPrZTsYrlt58f37OLojj1W69njspCW4Xrvjq2XOnaxoTGTtO2w13ErolRhTJi+SwuUpzWi35DNV4KydD0LWXV7zvCQAysgxnR0pSsCbRZsafL49ZPkhU5BAyZpSjRtAfRkCXjHkR2hCXR1H9AGtEwkMQE1HMhO3odcrsQciQ3QsiDFX8tD3OSbJZ2jzEdpBYWcA1qGgIA2eHcMLE9HsiIK4pxZXj48xAQUy7lYCfL444/P2PouDvpDUKNiNuRVkSlatw210e+8fN/+7s/+tv3nj3etq3MNUaT9hjYSjzFl5lTlfuRaVuwgkXZzA4s8KTYAXB71rFka2hufuGSf85Y3STv2HMRMybSVAXT0QckFXGmMJXhbvZH95/e+3567fs9G1VXjJTmPXcCFsChK8kmv5zEM4BFOsjAWpWiP5tVVW3vigu9xRLu48OiPD1G51bJLk/OoaCTzEICW1BbYPbz8zsojPvBdkalalscA4ZQ9uzq8Y9/yJX/I3vPaFbtAPXoqByd0IiX2oYNqmo2FPtEe2Y//m/+fvf9B0e6WL1hP7Y4OLqvDpR0JCQ81xlWTanijcsosrpfr1tnq2o2XbtjG3fuqT+UJ1t+UdKfKyFi/VG3YlkDOc+jy4L49e35s/7c/+gX27s95rV3QLZkS9nogp2xMwAIQ1n5RjYED5m/4iPTGxobPPq+srDgHiPNYOSwdKWjpaQK0ZB5T4bHHHpsDWpqJEV6iIu+SOGhrtikZ/uDdbfu7P/Nb9h8/vCk4C6jq9ninU3bPZDLhoLQbaMmPT4Kp0dZkyn7RH/p0+5Y/8nY7r3zUlSZTIOzewDDpoMQ9PXFb8bx8z+xn/9Wv2f/1B89Zv7rma3vpCJiOcvGT9gK0bgG8YqCVf4HRpEKP2KOKiTrOGINLqPULRhim1BTNucEd+86v/Dx71+NlDSMYry9nuO0E7YABiX14Y2j/07/+TftYt2F3S+vWF2hpNX+P10FLm6iOdF6UVTbqq0WV2VatZVv3t+3lF1+27Qebe4LWx/KyeLYE+LLKXR0+sLddKtqf+ZovtHe+9Uk7T9m5TeESaFUj6ry8lyC3+EuRUO+shLpx44Yfz507ZyxhdDP7GEC7XC3PoYNlSqUVp1+YbKT7+W1IQzcqJV95YzzMHw2EV8Ij3stRujelg5vWSH5iuYslCbg6HdmvJkvWVhXynGlMK21ysX/bLsvMPShf7N+3ixKwlcFIncDY1mvZZ08E0JQXOqCUJ8qNIEEHqcmjJNJNQh7tkij56+gOHcWMA3lI0+IjVcn7UBRlTtNMGs+qY2j3mIgiYa7QUlwF4lgwySfyiHS4IhFAQoEsQoTlbt3m41lfDSUuKf5p7IlIb5JTXUr3ykcVA3OeB2nwUdNh63pCXmG5jMIUgMqLjHshd7D/i8lGCoNuqZcLGitVJAzqvSUcLLJgc+odlXZAIg2eN/Kox6f/XYvAnJf9XdeOxlFscdrpIKRo367VfAuY5Zg3Y1q8wTrcctN7rcHSOAmXBNE/gYlAeuZSLUBoBfKaynrCpCy4spUTDRvWRWgl8j1Se3g7SsPUJeQtGUguRIxzszIclCJ+iHITE497AC1jWvy89ZUux0jH6yiTLfZzQs7IGzzYd0ybgMqnR5ljGLEISPelTcqzFXmUM8tXUMgq3iHnUAA1JqJ2I6+7Q9LusS9AkYF8RvIFwR9bP4DLORpTDmcOlN4r3zlliMclq6yKUkvywBs/wrImd1lKz2crDlDMzmRm8/xO/uoeZJg6M2s5EHg93ZEadKjRp8a3RWnMgzL3sRVLfSTgyvxqVXnGmkqLiZ4oCeK0BiBccf1kyfOgus6DFkDBzMryBhAPZZhfaEhAeUSWcrqYZtuNAC7EK3Zo2q3OwHjUarKAomZc0yoPCTLUIf7pGtuj4qRjYaKM/O1HyCQf9GbyiYkr7qtg4VUEvKzsJEVqniLxe+rIOB4pjjgi3xyDg8Kdx8lh6MglI5/h+Ix99HruP9MjJzNnqlnIkIO2WdO4iTFUmoDS3dn64+WIpkbLAlZSyVcfaQ+VEUZuaNu2xkf+OAbWdbZx4c2cgzL3sfJJXYWXpdnI3g0WRS5Kqo947ASgyUuaUaY+Up2cJM3VtJ5PaoI5BffQ/8ga0oKsg8i8DkHE7V2B1zvSsq3eE4tIzaGrqVbgFBYffkk8gSXIFYMDV1czOdyVCBNHOVhWiqZl1VrqRFK8hJnGlFy5JCfp5NPDHedHBdagQ4F2t0rBPIABa6w/joxP79G5nPgipHHCVT4s3eLVKB1Tz8plft21FPnkExo2SyvFRvxcxSWTGRNZgPUtTgCOa2PAXvHNww/K3Mc42Rfcq+tu8AqbzDjqgscMxB6A5UguIE93l7o9TsrX8A7QKls8M4fQtASig2lW1bHKnbXe0uTt4ICk7Mwfo2l7/qQgPcv2Kx5mClyICztTTqBVR5/ldy8KYNNGxJIe91T91bwEDOKYxpPOUm5Tt6HU57RTmMrHRYcCbVAekDCZzj9k5nqwv6IWNKkPKiH5ezNIgOsyU3zxg6746ijFw7LAZSkqPJ2g3dJMpLM0odqLAvgHsrZZPkeepJn9WSpl8DwekHWfKoGIJUQFmV68J6zzDMiANdLP5rM9e3QYqXM5eXJMKq950zO1iTunmlbcqtV9FtlzmoIuR55WEDXBmLYnFDGrkeoy0bR242xyKSNMXN679knFBQi5wuwnC2wz02w0fEybspSkJlxxdHd4ZBQYoH13Ay1+8/wPSkcuGWQqMg4zGYVfgHZCmZNDABaiSACVT16WdcICC3pAGgiz57BEg/s01AQwMop19F5c6fUEWv8eqmdEWlHaOd2TgHUQdivBtTVaXGa/hLws88sFj46DfBB2h6ZNqblAvgJEqill5SOyoGy5kzYkZwz45Gb7H8zjwwtRkoLkSrPH7HfM+8d0dsnfJSALkSjVFkCQO5MtjqwhX2T2mLB+rzQzcZYlr81mw6ppZxlRitOJcJnTSeezAOQ85D34OGjp+p6XoXxm4QDqw8+qdhT/IaLyVlstn37XXd4AtEm6a7mK4C7/Dg1gcQ0OYPsJuDovsK5ZzMQZoGXFZBrXStOP+r4U8aDMs1+Xb6WOyVtTL14TcH1srnhJ0/OT6RP8KCOgPQooHIZSPhJRd0nTKn/uSFfSx9LceQTEYzB+NabVTxvzWPIy2bfYf70mM5fIM+Y/nDlhFru8ZOH2I0mqyxYxSuy8TBK7LMZ5caT0+AsKOYdCzqeyfvR0LJIRhcgXZmdByvIQkHHpMgvQ0UzUA00kmFijpR5PlVcqSKB9Oj7Mx3kVuT+5JlU66Ugc/KLReAijHh3Vql6d3f97vLiuEDCzmfwR+sCsZMYjJEBAldauoplkTxZYoeAjtySQ5AOdy3d8+uKeLAu+ceRZ0l8q8zTe1PFgLSQuS0grzrwpRUdArNS16lxl4tkrE0llqXu+XeOTX1gCTPkU2CBtYMNS3waloXXUoXR5zEK988pMQR2YrvV1bVzUfUqHJSFlloZUlDs1Yh5WyxEZVvyp8a2v6umqx0zQo4NNbcYkotePGKLck7KikZ2VH/W4vqBC7lhYkdwK6uET+c4oZFsVXZI88myWl98ZKuHthcvdg19i/WWyjHzTSbDIAjpOsAYtDdo8IPNaNArBkZVQjG3jnDCuVzROZCNsEi/xeCS2RSm2XZTZZae1VpZQpLdtbNDzxz/+/umShNFVlAACGO/BFfPA2D2CV794DZBXq5ouOFubW75gvK9GHWGa6yQ9KjooV6W1MYdbSldlBbiyJ4fDts77MjMTJAnLih+fpS5XbFuC09XYwMfSum+i3VSHU8Cy9FI5l7DURiqFTMJgLArudfHSbWWViV0OqwJCTeGrCl+R9ZC++6OhQKkrwLJktG8b1bJtVGq6n5aiTTZtUN62drXvoC2pouqkpzZbW1e9KZmuzulOlidlUsLgz1qpfzauHLGrh9Kpl3wFFJLTVz3RoWxLpmjDuspSYtyhSpKIqX0BXsnam22r877vgPqi01IxYc+lHJA8RiPJFabCSPdJHngra3VFMqvL3hmM5XLg6j7klE4/iwuZhpF9rLPbt2/70xKPWnnL81HT0qDdi8gohYmC5YkyeH34CdfooTjDnUwkiM50sv+xhNSfbx66/Cl2T1+RpVnaNOZkRRTt389mvAGxMpjCTpr7YOwpseyt2PHyVGoCTUOCKVlIWoRQ6uVV9IoAhRA22cKl37EG774Oy7qmIcKoqvLzvJKV0DxrTotEklYuuXZsS/jgbTFaElBi+tNJjQS2fol3YgsKWxarcyjVBYKGxJCOasUKw1UrDVas1q9YS2VfUbYbQmR1yCcmWQ4pII812IMRcHUufHQZAXdraNKOyxN308Zo2oHaO8WmOnLQpIve6avNIJ/Rhr2uM8FSIyZlQs1mAqPTzOUUblZ1MXHlIXUP+GXvK2J3WSMaJ4/Yj3g754QxlNdxAjVPhwJtZC4yDeEHYGH889dmATylqIpEuKhA3rZgTJgoVdhxEeNMxkOsz2Wbk35fjYlwoOqWJQGmWNqSRn2g0UDHylVpjmaZkUHSolm5MVsB6WqvY+e723aps2nr3b5VBwLFoC7Q1ATcmvLCV335dEj6ZEhb2mRL4NnQOOJ+rWz3ahW7Vxeg2bJGY+ryOH3EC9O2LXRtqhPckPXzoNKwrVLL2sU1geO8NNIFK/YvWa173tY7FbuwPdKxYCvdstV7NeWhqaK0lP6K0m86eEvlutXraRdGtoX1nTamUr4EpXomBhXdX110K0NtkmopuzhDAW2XRf3HmFY3ys8v7UoFdXqEdxAIvFUJHROg0TKThGfjyS6SZl7GQ/Y5Bh8HHQq08ygyzTEon/msfDmKaxxVUP0iCLLSbLWVQMsWJH7bYSthLgAVs6eRzpRzn0FmYzUalXQfzvNihF6oAFw+wCzTnjETn/JE1ablk2hMNKeEx7WHUldiPu5ko7TCtvIgLrR1qSsGGCw9QKARLawEmYoC0XjMt1XrOjak8xpJixZ4Vlz1dHxLFQ+f8oV5XZH5WZWJ2FD+mkNpd/b/dbMZoaVCWEVGJ0E8dblrSlcalzGg6qauNqKt0P/s6HA4Ild0ZulTIL0Bj90oKS0kT2UckzUvsN4sWdsgY7QTY0sW46TntFmj7kLIaFrwn1L37Xsb1az8UNyvuPOyl6WZJ+9cFCbk/zhpadDulrHIeDCFyQ/SkzkSJJfHkwQWd5xJcdhqs5HMY52nX3hZyu7fDbhOKe/sUwxwffE59yyZLCZXxSdvNCaTBmerl3q1rmLy/DHM3GTqpjeJMrggAIBW40nGlFbcUmQa6Am4aQM3CRphfLwl2GA6y3wtjOqScoFr3LReoenA7QM2hxWGbHQKGtNqjFZjexVpZNZGN0abcmssz6tnCk0rsR0P40i2emWPKNZ28eya6qqobuIZrU8ieh3OkeaFKLWNsqZ0WQ3VsS7Ak5shC9fSn1w6d1NZxCFzqk64Ki2r+5hxdu23X7tJIyCbsdClLqFrNVSPD5n6Wf7E/IZPnkg/zwHe4KOkpUG7G+UznQDALoTtrEdT5qlMwomT/pQLLYPAClD4u6bVT4sF9t5CmaZVfEdHKd6I27FM9pTHjsa0MAKDtl2+mlgg0rSizMvKsC7DsmHnKi1rCGxMIPHoaSwA9pREu1L0SaD7Ms/u1Rq2WZEJLP+BQD8UMwnETC/mLu9+phcS2tKQbWsNtm21v2lrA5nVOrJVDOY3M6dMQtWlnFdk7q/2BrbW6+so7ar7KnxaSx1Cv7Jp7dqGbTY27V5jYHcbY7vfGNlmbWCdat8G5Y7abktgfyBgb6gc27ZeHhrbp5Kt1HFQT1TispTTtJIZto/1qP1aijkAG6nQZplkZKQ4JF8T8zjz3Y0IwbvBiBXKgTfLmgKud0KZnEIpH8SGX/inY8i7y/YJ0ZGgIGz6oHwhmFkDtIAXIuTO4nFGNmBAywMYpjokbKyKUmXilxroEBWzM4sZ5Zpc+eWMBuc5bYeljHQi0ixLN4jAOZbmK8hkrch0XVERz5dqtiJrgy++821XNrWzYk/jTqVbLvjMKIBta6zKvkysv2VLVCauUl8vsEvnlQGuNKV/PV4aEk3ZHG5aa7jhY1nKxqMSHgXVND5sCLStPhNdfQFW42U3g3s2KnatV1EbVbsCaU/j3qF4ZNuVgXXlP9BYHMBW7IHSuqc07tqqwH6u3LeWGqpM2wdovedbhpL+ArAAhH2deWOWd1i93LoI+yywh6Z0KTmOULQRsjhdDZX85pHfrxrgTStuZTINy4E3zJLlEHHsTCfuzNM8+VhaZhagIwEtGhXyChOTYfx43JPPPNfYDiT5qOBccy0LTAEIM3cAN2nb9ZWmTL6RVWvM7KoRJew7q+tglGKeoUwiGDt7/pUnntMC3GJRwFGLsdBiGcLcHQqkY14cUDl4qf4zn7lkX/9Fb7Eveu26vXGlY08Ub9v54U1pwlvWFPAaAjGLOQoD1eFwVap2xcb9po36MnMHafY2mdfKq4A+Fnj8kY3Gvv3ihtKTiSvtWR1LM440HpbpW5RGxtyWzra+hJRtVPk+Lp+/3FBn8kCpbhbXrFteU64LVpPp3FSH0JLWXukof72b9sTwlr2huml/6MLYvviNl+1L3/I6a6rO2LPZu9iRWmxJQaWzpDuC2Lx9Wx095nGpqnpDPkSpmdSCfkQKsruYAdYZnW1F8oaCCCuPodjulNqZD2UNBj1/q+vcSsMaVcktgGWMzv3IhWcNA9pvEyll5FF55EjayDk7tUCkjR/MdSiOR0FHAtrdiILkOfzoxVJV80tlJOY8+TC5IZOO1/NUmwDdhTRFsTTR4KTxMKni1UCkgUnMLv89f9NHuYGzUAcl7tvWWLYzGijOtjWKQ3v2iab9sS97m33vt3yF/ZU//m77M1/z+faet7/G/tCVqj1WACR3rdm5bw2N6yrKR03auinQtyo1q/OivnqQbrvr67DRByzC6LMYQ9zl0Y9AhJbC7KZEA4UCrgPV41im97BasW0JE8CtVFsax60q3paVhxqKdAvWaPdsZWvDVrce2OX+ln2ahslf+MS6/dHPeMq+7YvfZt/5rrfb13zup9vbX3vRzquR6Fx5mj5QHufX7f6EPFNXQAzQdlVnPPnl3V3aBEIyokP30GrM9Pw6UYAi7Q0V8rZ3frjD9x5T2zMMA7CsB8CSSblJcfIbnUqcQXnZhkN5pbQV6giBmid1WkcXM1HRuwxUcTxoZsuZzU0J4sqKXbp0yWo1DfK9PPSR/Ob6DN2boMk6naJtK9xvfOie/fBP/bx9crtiN0ctNWJV2kNj4+yWg1BWzfqjw4gGkRb1WVXFqNMK48Nxx167OrZv/ap32Ds/8/W2Mnyg3GCSHryauIOvuWFBkHKaPJInBZBA8gkPjVBd6230S3btTs8++PHr9oGPvGgfv37Xnr+r8aZASm75khzMqJa9lIcaa/NNHxaq8EV21kj7RJYqePXyip1//Lz3/LzkzdrtksDMi97UMa87lhhTD9LiBB5y1BV3S8BuDbbssdW6ve6pK/a6Jy7aE+ekgRrqQJUFOlLWavtbMSoHe1fwHiutCKeproMTe04jEVuyIF7umP3Mb3/UfuUTL9kDdSgDq1uzrw4F21n/PVkXXT6xqUqpiOm4eAjOI3/C3Hjxut25fltlKqfFFbop5VXtIYe3ok5wsV9yTeUed0f2eKNt3/jlr7fv+urPtGdKd2WdqNCDuqwZDSLUM3Efi1HomnzYo0hADkBleyX2h0L+Y38orMz8C/FcCzAflnKoOVrK90B5Tn2EF9nDpTOIAlGbCbxkbKVZ91faELx0+TCFzuLfwTlyL+VKRx73pO078SMnM2EXJQlJX2PPUbGvBpSZXxrIbJUG7W9YpXPH1mQOn7cNWx/ctSsyUt9yoWxf89mvt7/49V9u/913f71933e+2775q95mn/uGNXuy1bF1u2drMn3PVfp2rla0BvXRG9qgzWbugBIzvGn9AV8CQKAlXCztEmD9+z5FCWlhYOuVoV0qD+wpjVvfLNn8/AsN+8NPX7SvfcOT9j1/5LPtz3zVs/aNn3XRvvBxszdI015WXM3OtjV76oBlNvtHJxUf2wEBCN55hZcnr3yXA/Ldkdk6krD7Yy1vc8kOfwqQzhLRPIjT5FwNljdJ9yJC0Jky7CLlsurILTvK5F1BigN5wLUzRsKkVDGR85+/yb8wkKfZ88PQsYA2n8F5BQjTIypjUimqIYL6wn6d8k6tOjqNKVWJaBGvqMMUft69k9SVtvplMRuXtdUQmKA+e3yICq9VmI2UOeofrULT4SetVm/4R6wG7Q2Zpm1bKXZ929bHqx17qtazN6737Mvfsmb/zVd9un3vd3yF/eCffI/96W/8Evuqz3zG3ny5Zhdtyy6oA7goM/iyKumSwHlO1droCFA6NtXL8232CktAu21pq227oLHt1ULbXl/r2+deqdl7nn3Mvv0L3mR/6kvfaH/iCy/bt769ZZ+5bvYaqdSL6iebbcXXUzso/02Vg8c8Pn4QqS+1SsYuRMl7KaLOaRui8P2O6aQz0LJmm9qH/TltPh15ZrpTcajTEmBjnEmb7d1sZFxpcLusIVZCrTRr/mZZssTgabGyVCYunKQJWPMTrWjWkPmH5f5oqPQ3RJn7SIgKg6k8Zo4pDGYxO9NRIK7592YI6yOiVA0UzxvfK42PDBetIxD/n7/1B3Z9cyCTaEUgkpnH/YQ7MHGXKlJxJ/FIFD05vmX1sHw0uDHu2hseu2Bvfu0T1izpivxSQx6MiJndEEoj5XtUVjwsB5TJOipZV36FRl3ccDOXMRzPF4fDvqdXFBirSpvdIFclUBdbTXv6Mnl6yt7+7BvtM17/pL3+sXN2rjq05njDGjLjV8YPpAXv22ply84L+JdKPbsqfsNq2d56acU+W+E//5kr9off+hp7x2sv2VufWLXXnisrLKam6oS2UpOUi9LKSluWt9u8A+Whr3FmeuNG4fTPpBDjfTpTLyPOrMzLEC3SVTw3t0b228+/ZNc1uO0wThZXNI4oy/Ql7qFQC+NGXgAdq9kQKV722Lj3wHoa81fIvMrEXZN8ReZ0JD16HranYYhwZbVoX/C2p+1NV1etyZa+rECTMcwa+bQTI7fxtJs6kId3NOpkJOMMAzliGiPrDEuQ9QBwUJL96fmylFI+Rtovk1SecwTz2kwZk3XsK4gYkxENHcFRUj5tN61UqVQs5nFXjTAccp4FWoJcsNtq6F7FKuOmBHtNaZ23Qfmi9aqX7UFh1e6Ma3a/VLMtHvNIbfWqMqll/tq4b5WtvjVk+q50B3ZO2ueyTNtn6kN709rIvkwm89e+/ar9yT/8afY93/A2+/N/9PX2X7+jae96zQP74ssP7F1Xh/a1r63bf/PsRfuutz4uftK+/c1X7Btfu2afJSy8UeC8KklXVygzt2ulqrg5sL7Gcx27bdsyxbeK2xpn8uaPzO1qw/q1lvWrTRtV1DAaCzKJw1s/JVkmJdXVYcSRiVrvNwS8rjoPRrk+leYNMKWsv58Q7RXEWHtR89hJQuWaWhkHYLwK6no91+hTFxSudMxr03nuOD9qOnLQ5jMbvU2YLRC9NSNWmJ6LaSD0LXf4myn0YIWSNKpMM52eq5X9A0+SYcXFVMhyhEgxUUOKnrYahpVBrApiY3LWDPl2M4W6f+Lx/rBsHaRIQgupVP4LE1eKj1448YCxd8Y+o5u5CzIreVlkIMD1Rx3rjbZUB9tKnw3jeNtGJqySKLs2odx8x4g3nGRWV1R/utffBlIFjIcdSXXbigPe1+3aWmloT6xV7c1PXLAvfMvr7Wu/5HPtO7/mq+w7vvrL7Ju/6O32ns951t75GU/bZz+9bq9dL0orqxNUERqKk8UrOnjdM5UUf+VCU9dWfEa5IT3P6mLZByms6sxBk9OyapSM8UvAm7CCBlOLs8wcLYybMTcTc5sDWSI9aathwxp9AclN5Y71y13raAzeJ8PKE9ZLZSgtT3uq0yDvzKwXNLgukT+BP7WZZ1dtBTyVKQpAOfCX9mZxSG3ck6wNZKGwGkpXxisKh5bXQadRT1NDHZ7SIgBduCNZgJSto6PIfHCAloE6dr/3ggo3VPHhNCvLy+jM6FKxiakUxko1VeglNnhTNzzsS2NJI81W2KKEGUzTpnW+7NirxhBo6yxOEBhqakxA2y42bVsCe1egbSMMalU352l52O+UUBBfxg8BVrZiz1lCCSsO3kkdV3qu0cqljgRrW0LXtbqEqyHJrUsAEcKibLGRBA9tz4MP/oYSqLGY5YslxVVhUkn3+keyBHw+lNWSWX1BIH9qrWVvvnTOPn29YU+qj7ugUreUY2oO0445gmkVIqKIvSwBmYIVgbQo47CoOxgRs4ktX57lwx9NhW4IpHXVX1mcdsZURCo/BweGqikPWCnfxHL7ZBVH/LNjsEuFOiZGhQ/0Mxg0rDpoaRxeUv2o7AJtr9KxbfVu1Cm9IB1clY4OCXLQKgO85DFQ/TC720e2FJT4aVudIFsA17tcLgB6HRuFrrVUr+uyJsj4wNaVJt/eTcUjydRpEaM4M40BYoAxL/fHTSn1YyIKQKFiV0a0LVrEr/nvw5SqIKss1RbT5+mbK1QSorAcpcktGlcp+D9Nx1nS9QgXwkajYWYNe7ye15WbHpv1vl3lg7dmdNSIm6WE7EwBA56aQAPXxQ0JGuzvex5hD/tqJtrTtwYKVq3KxhCrs1W78WnPKhM+HOVXg+WGq+o8y6orgOQva+i8n2leAM4jFj7vCWimm6kDRDkUxnEiZ+zC6B76l2tX4pbEkgKF50Pm9WziEyFYRDMSBkWUV1CnFrRknKnveE5F4WJWj2upWPtXCuVfW8VUUcUqpwm0+983j7xxJCD+rDTzAcJuLmM2IwzkjYtKp9+VSSZOaUof8LkMX6yfmGd2vMCfTFzelpGpPYQliGIAW8VcWy67p5BUt7yVVNhKrFFxwViJ1XGWvaW66IlVj6or2bTGdjtpmx/Vkx/Nur1tgVWdptrb2RtEml2qssjkHe0kH5658qK+Gz/ycRArDgeR++h3H+ARtUevhP2jbzJH/NRlLORkDjlYU9x5kCLfi4D9sHQsoIXyPQ8Ajn2idtLOAsYZR9U92LHVVRl3auSybuVl+GUJiPJSeFpXSoMLqDLxfG0vekFHHu+wLA4R6KNpZdbjDhM4jV+5D7M49DZlEksT5D/6XJT55u7dm/4RI4xcpo98HlwVDqu9nHPtHCYmaMOtOtINYgBs1ul1BFoNDcqqa6m9MY/cXMMyjpUSYLkkranbGXaMmUlWeyTFkGlInefBNJ/QsB6TnNL6VQ0GiFqU/D1TO1vPT5KPLzBRGigmZPskwBpEDR45URiYXg8CrBQMms4A711INBwhVlc0mhJo+UqbV/CS5FumSju6ttW5x+agTZoW8DEbGo3NOLwr4JIHHvQTLm0hk8bjMTZ2nhiC2ZSNxlzZ1I14R7M/skR9UrNTTjMWqWNTPai+vD7i6PWT1ZGDFy0VoBUANdhkqx/axjWt6hTAFj2sIEUYB22SN+6daNqsDffHEY/WAC8rmTSmTyM33T+/1abRSb7p3LN0OIaSml1vfxx0LKANM4HMP1SAhcqDCEjslbs1adqiumAmq/gafL7qDkLE59uvOPAxphAoYoXlVrSkCvGYgUc+nd7Anw0zCpPBK2ES5468q9ov1MRpJ4k+PHHjz5z08Tbgq4WoR43k1S22Mm6KVT/ul+ppwObjAi2TeI69hD81Dmgp+mTVVr9rPdV2X0ACvF5/meUS1gutmSaX0vLHRDoXYF3uON232nWnQM4YtlIpWqtZ940EoV3vT7a4riW55tks8zWsRQjAhnI6TjoW0AZF70MBw3xgxwNotk64Oql+hdVtbqZQmSwxA7huQmVhDkqAlg3ROKa0gK+0AFpWzOqn6GwAcG8o4A5Z5ysN6i+ZS7BynKZaEoep7Oazm9Ey3cT+UH7ZDJ86omanFgadYmL8AXVi6iSYOhoggW6PVnhJ0TqyxPwFB0CZtUUSU4YaCbCJ1VY501tBBdrUfosSX2NECngphTGtsOsxE/eU8xRpp7Swxlh3zBFC1g+S/rK0NGhDwOdRaNg8YPNhU7GnFNUzDZF6TahaLbuJzE6MgDcf6mAU4iMXecrAmgSLzoQKl75Q18tMckdStT0s2jZboAqk/gxVip5F6TwH5KERM8PoYTcGNQ4rlnR/WX5l9fgFlkGmiawoe9QLfJy0W7scNUW7enr6l+IztsQFthx5nOITvGIQG6WmZf1DZ/JnbNqTFPZLNduQ3yaTd2VZKGr/Cvaqd7S0XNbJ4tY9SekpbYEnyZnu3dyUtmTrHUVMupHgHCLGakXDnEGatzi3vsot3i2ggUk3Eb6JUnz8TCda0baDgYZv2bgWxj0L4KNs96VBuxdFBsNcoQAUJJ/p3bKfiqmrWQAmB9iVEWAw43hYStCdMsQvZhJT/14lparMNLOX73dsW6Zdl2lMSVe1UreahAIhHKuh0K+Y8Ixmi8wq8/L5qC3/jlVKfasKvDzjjXJHo+Yb8zRTtDMMQKuS86qaqKzOrcxR5wCZt21oWOHRgdpT+Zkh7mfPZrfE13Xt2rbZvc7QOv2RjXgDSf58xYCbqTEAziQgbtrAd2PkGnXqWjaAtijRIdBRy0SOWSgn4s0fE+08m5Yf+Q4Ov+OkYwEtFBmPQlCxSXsmuOysgp2FpBcNWKkztNVWQ56SBJnHy1PESFopB4nkQ2MziTHo+xaqpVrLxrVVe+FO2z744l27JwRvbXfVk2/bNu+y8jBfJh1WHZNk46HAKmYDtxIrnQTaWrFrdUmu77xxzI34aiF/bCPNU2D/3y4rt3pWFjhpw5JQXSiqnt2kVWAJOPPMW6qzm0Lux3XLi1ssnmhYRfXPAo5xr2/jPo+JsFxkMktaMatpQ6IITQ4lUzqBezEiZOpUfRfGBi8oJkrNxfX9Y6Nt84DleNx0rClQAEwIyGdjxWH2RgXNUroaFSbQyjo9t7aitmYSiqv7V+Q84i6fJc7Gn6llMG8547U5Klxj2H5fpvHYNvtF+52PvGD//F//B/uZX/4N+/nf+qD95gt37WMbY3upW7Yb/ards7QVaUfcL6/YoNySYKGZS7YlHG+1lWelF/QoadmHCNUHihgY1iv+MsSoVrWuTJhN1fV9tfhd1fQt8XW5nxNQf//2lv2nT9y0X37fR+1//y8fsP/w/o+4dTNU/VULZX9flq8hFARYJp4GQihGj3fqJJfhPymEobQtll2SoIXIZXFktVrZP0NKXC6XRO4OaLa9JhdeMTr0Wz67aZEAJ0dm2LD9efuhUW+kRyuqjKTvuD+NVbjDz9RIqXfVmFLX3vfx6/a+T96UKVXTvUzxHbziYkTE7C67NiS/scZeLJKgwaUVNZYaEj+9fLHkz2k3t7bs4y/dsA++8LK9/3mO1+25m/ft1lbPHmhg1h2rl602pTWY/RT8md0sVKwkU7pSbfibJ0HU1UloXYYifN2BThOBjjTz7qMmWpI3gZhEgruqP97aacufDQ3uqnFfkh38kRv37fc+ecve+/Fr9t5PXLP3PXfdPnhry57fHtlNBW6Ple8SG7QDStUqYJQc8MmUntqGGWdSYxVa2sCu7PXOssV7t+76nAPK3DPkZRVnByicSfYGMuG79uSFln3p57zFHlstZMs9URD5kKnjzaLQUX6qSx5fMhHFkfqGqXs46Djqe+mdK+K22UyFPwVhKhztylv9APf8+fN28dIlXwwPiHycSgWompjOoaqoHs5sxMvjZbtpFfuJX3yv/fgv/ZZtF9cVoDmpxIOQL6wQOLvFhhqfheGKSn5sIco18j2u8DHohr9pwkSEby0qU3ckawGzzJ/1Soga0ijnZE5dXKnZ5bWGPX153Z66dM6euXLRLp9btVX13Cgc9pko9+97ecKEgjyt5ap9IUJ4Wq2WCw+dZqSbdy9Ls/mOczahA6CMUeG2gHNfPzc32nZrs6uhxgMdO3Zb7nvtnrVVoWzRyiMg7pVhY72RQFmoqyNVCw8FyjHPyYc2EIj5IsJWiRXQBV8WyQ4bTbVPV/7tkTrZTt+e++BH0/rtMMrcspJ8heZUvA5BP6WNNYQZb9rbX3fZvu+73mOffk5DMV2vSVVIYsR08+mxIEQUwZQb2b5586YfWW5LncereUGnCrQISJjE9+/fd9CeO3dOoL1oJTeZk1lKFVAxaQ42VQjVxBgRbXdbmvGnfuX99qM/9+u2XTqvBmhQ7Qp1MAJwpNeV+Yq29VTlxzakaFuI2eJBdc1zRvNW/VrXtqqYwOzyLxDqHtbK1sTVcU+gZ7H50C7IJLyy2rDHLqzb01cv29OPX7XHz9ftqVV1DAWN7UplaRAsDNWR6sbNuKhDpRaUd5OH/SmFmd7FxF1FAtScA1rVXA60+XuCUvpxJdKfpkGWI0SE4thWkJdVpJsC5Y07d+3G3U27cX/Lbjzo2F0NE+73CFPzDnMgoI1Un77fM1qSbywVFWBcsbKuFyUzlUFf9cY2tn3ryQJql2tT0CqdFYGWrWM7ZUCrllVH8NwHPqo2K/nkVxItxa0hj490KYIy7y2rU2b9x6MOAxx7xxsv21/57vfY61psq8O6aL7JQz0l0MJBRBO1gmzfunXLZRvQwoD2Vatp9yKiRFjQtBQI0PKWz+rqql29elVmKBUBuaGhqlHXqIEKZlCCFppxLJO6a/1a3f7Vf/mk/Y2f/Ne2VbuoXrnmdxyUSId1x2klE5WazlkSwPNbqE8e3Dwmfp4KDhRmaL1MIyQoK3WFTyus1AfL7Z/KlGbAlKupbC2Nj1ZXWibM2rNXq25+PfPUE/aYNPGqNDRPM9EkMsb9CwQspkfrG3EQt9qZPZ8w46mnnQDXRQkC+/UmEVRZePYtTucFa1aHttaQxpkIT5rJh308qA4klSQNSViiQGycsa0ri/o9Tpn5SePQqaaOFSVGF8eTyS2d3N0c2K179+za9tA+dF9uadP7m5u+MIWdLKlTnnmPWFihOKlHX2BBO6uesbcYs2LTsvm67x7CRB/1qtQoOyvSHODkifCqCr6EUFGd8Y5YsVS1u9dv2/XnX/JXHAtKr+RDoKQIArTMNqf2S26GRKuFB/alz67a9/+3X2/PyDau6rq/5OE2NrmTLGQLOqAhiXscKpvkG00bsh2gjXmc46JjAy3mMQxoHzx44AWjUFeuXnFhojqoliQSPCrhTJUsTcge92yg1ecbpfWq/crvXLcf+p9/ye6VzwtALB08OGiPl+ikkslLx8oWKTzvrRf6dm58z1qlge8/hOn8msev2Jte86S97okrdr5ZFkikhYfS2AJvXWY3ncCo3xUoFZfM3FgLjchwhPDRZdUfQi8A0NlJ4Hm+zGOVVl2gbRWt6sKjuzxf1JmLrzh1jL4jhZhzhBPISxem4Qlp4JLAsssGk2s9gQegXpPafOHuAx0fyPzdtLtb23anX7a7pQv+qGwwUGensK5xlHFfE6wYcacSJKID4dzLlr9wENJ9VWniGy+8bLdeuu7P08e8xik/YvZFM4qc6P25ujOg1a0q5oXqhr37M1v2l77tj9gTUuG8oateIgXwLkG545zBtP55+4hEGXNvq9x8LY/yrq+vu3mMaZw3j4+Djg209EL07LEdB6BlyxlA62YbFaqwE9CiTeTHEkFAy4TAgCl/mXq//qH79kM//ot2Y9jSuAlNiQC+uihVI+BSIwu5mEX+Nbn+pr//mlYoy/RSgVf1syZ+w9OP26c986S98anH7bGLdauqWKyz15DYAVxkPIysEKVM89GAfaZ4GV6mubQlacB0EqTp5qDSL8o0Lquu3TaQZHIPMsiCB6wLEO/3+FsY3OdZd9pUp8hiBxdN+Xflf1/Nc0fDvI/fuGcfe/mm3djSOLWtYY/G/l2lyZhUOtoGfbbTQVsqX2pj/yqd4kEOPBH9Z8k4HRVoy9KqaNk7L9+S9lW5Bmha6oSObA/QKtyVZtu+4Qsv2Z/+xnfaZXVhvE2EjbU3aLk0tNu3btvdu3d9mxmGfhwB7KnUtFB+IioP2suXL1tFQNwLtJhfFa/Uvg1VCe99vmc/8GP/0j65XbYO63lfhaBF8BwAoqhSfrdU7kq17GYzu0UwLsY09m+u9jvSsn1b03j4qccu25vf+Hp70xtfZ49fqWuMbLam7qtIOJlxGKeAulkpWUNxDbttBzLXAKbv2qD0AMywsSZ1u+7fW6V+qa3MqktoDHJkJifE45TbUhLX5b5xS2PUW217UYL5vE5euH3XthR2VGtYr1TxceaoonEpk3RKGZO00lPHpLZBywIT6iGenZKvXFJOgDboMKClc7r2yRft/o07VkM+pGnngRbAJuAmTLK7xdVG277tq15n3/HV77ALXt8aOjhA6f5217Qjmf/XX77uVuTa2pozgAW4+THtcdCxgTbGtICV5WWYyZgPl69cfljTjpmEUGWoYflCG5oW0CKQfIP1w7fNvu//83P2wVt961eapwK0LrDKZ3X9or/Y3eftFY3RAZrvygGApTH5DEWtpLroblt7a9M/tfiErJE3PXXO3v7GC3ZFJvXli+ftHDt4yCYrDbrOfECLMR3jYsbTjL1Z5cmWs+XGeas0ziVNGqRrNHRXld6mgqUMpFQdqB31khvSpHe7I/sPz9+xj2/07JZA+mCbj3zLTAaYaoeRwMrYlHEqE0iAlTJiqjOr3sK8V9SkQ/vzRQhVhIMYekjQsjy586GLixGWDdbJS5943h7cumfNcs13OXFjX+3hEAvQ6jc0Lc94pVnsUnXT/tTXfYZ9y5d/pp2T5KlrxRuhVHg6S9EO0HJRXgLtjes3/JFPzBwD2tjA8Djp2EELWNm1giMFunDxgpsPqR/Lg1bZcNBWHbTMENKHMwn0ggTqe3/kF+y9L27YoLoiQfGqfNVRhlkvCoRQb9HGEviytB6f0PCcC2C+ekigBcRMulS5Lg3K8+mBhhTj3gNrFLfs6qXzPhP9jDTxU1cu2BMX1+3SSt3N66akj8dPbJsDcP0VRtXsSqNltXrDhYxxLvXMaiImj9o659EMJu/1B9Kmdx7YC9Km127eshsPNq3dPG+b0jY9aSGWDLIO2NcCC5wDRcaYuShzFB3uwED4Gc8r7XJJZQJ9qgDXsLrfv0iH+ayAxyFpvnme8vrix5+3zTv3bYVOna9Sq+7TQhplZx5odWRDuovVB/aXvuUd9jXveJOtG99WEuhHuleBAC0PJxNodcxASzMPBdqbN266bANYGLk+9aAdaICOeUxvROHoidbPrduqeiZ/YK5wE9Bm1eqfVZSrLAGpSrMA2luq+e/9e79s//njd3wr1VcraGfJ27mirkd1Mab7RmAkQIwrMRZ59OPbj0o7jgRgxvDUg+8KqPt8BwcNEZiY4jHT+VbNnrp83h6/sGbPvu4Zf0589dyK/OsymQv+bBjleq7CfkeqNMVBzdJx3JPjRntkL2/17KMyI69tduzFB9t2R2q2rfoc8skRHQfqXB1oPJ6SRTSWAJJ/vnTAu6xsTVpROPZhKg6UBiv/dY0Z6GGDScJMnBTHxPKgbY9FyhJoAekLH/2Ebd3bUGe24oBKlQ/scM4BrToatr25Ut+y7/+uL7GvfPYpf+5bKmpcQtfnWecjoaKR5C1FoDYhxgTavKbFPAa0mMenGrSMawO0jGs5Z5btikxktA/Fp3hs25JqpTABre9SqArS6M/uqQL/7//ff2+/+nsvWpv9j7HrXuXkbS5hYXWXL7Gjmh208pYww66hvPoFYoCijoz7eMzRk6srgJQFHMzewlA+Mot9B0nFiWl8abUp7XvRnhA/JhP66qWLMqVbdkGWcb3Gh6yGdkfa8+b9TXvp7oa9eGfTbm/37YFkui2Lhn2FB6XEmLwjgXBdeWb7HAchjMAzoaS8OVEGYbWoTrVIG+m+itpyrHy2FSSJdCojRPlCxDBlj5oA7bDbl6b9pG2pjKv1lkxX5Vx5pNOZgJY6JO/O6twUoKp2eaLVsb/x57/a3q7hSAvQanjGuGEKWjlc05KYfIqsmAa0Q9e0jGl53MPCIUCLYjq1Y1qiBbgBWsa1HPmmz5Wrl9WoqUKpG57HJTsrgRYNzJi2LMjyPut9Cc3/+LPvtf/1P/y+tSvrpwK0EKN2OqQ0ek/ksuC/yZUqH727k3ihvu27T6ar6dkwD3iIUyaaNLAv9JA8oWEbEpbz66v22BXV7+vWrHGxYPc1UL11567GsCPrqFK70hgsahixlFM8QNeoLv2xkbpPWdp2rstHpvsSzulaX0xrGEFGk+rfcx+zsZwTx0CdDKPJlGfxbKGOgZgX6m137Mbz12wD87jW9HdL+Lh0qaIyIod50FJS3VNRXZZlwbzu/Mj+nz/wTfa6VZVdXSXLUMdsLO/Klb1IRDOg5WSoOr2jur13755r2gsXLriGjeWjx0nHFrtrDmU+jlO3+tvZxvRuLTjqh19VsLzot5q12CnvNJHGVAKFAyRjVmPlOfyYgEu7YMB80KPg+zGzvzHPcllMAEgBCfWVhhcldWpF66pje9Ad2Ceu3bL/630fsH/7Xz5k/+fv3LTfe6FvL2217MHogrTgBesW/Cs8ipvXC6UhFR9psI1sc7it47aDc1tj2La0b1fMLhzkkd07XISzryTAbA4AS9+KAT75Ss3prRfujI+DiJZ9j7FOXLsrYfzmavV0eXJEnhr1qqwZQnvudUEA1zUPN5emV1BMpAmH+yTo2GEQhQqO6ny4eJNqS2dZALbjJJMrrYabiaeJKA8GlgxaB+VODuBO3XwuMrasoWlq7Iss5liVxsY0ZvEFwC2X0ZIsekCDMtYSgCp1G5brtm1rtjG+KuA9bh1xu3DJOqN1641aNhyrQxDQWNHDFwjpEPjAdUOA5QPV7NPM1w62FX8H4DJbrLiHxJ+BVXpKhQuwKh9j1hGlycUgByrHjJ2Oof2QJuYDsOpcw9Gp+YUEpHmUfJVbXWf1mqzaiW/+EDyPQp4xicMcTvJ9/HRsoKXCotKmgN2NuBacJx4MJVFYXWmk8eCu1fjqo9QJoYEQ6DzjF0wYmkGFm6gk1ZfqbvpMkXMYoZSBx/iS8a8AxZtJzA/0Fa47GMoM1nhOJ5WehhddXRKiCzLlmD+plCoy32qeBC9AoFVZqM+u/WwC3i2PBdixbVbHti1u69w3XCdZ8qd8MhnFVqbp+0QluZnxRmgxPHe2jhclR1yb9Ts0UQ5muqVtS6qTvMzlQetpJ+eEWMa40mykNSZZCH8DTeeJyKw4l+cIx3vXA3FYkX7tNIOWyqLnOzjNFNorPYkLW6mW888dTw2R+wBd4gkwJ1eTuMM+5toxMsQlcMsEZtyYuCxwasypeMYCopU19uUoDVmsNaxRq9lKpTxZiMGYlziHzFCjlRQtj3PYz4rVTLxtw/PwHgyAy0MBeajrMjuzxQSeL7UHQxs6EnIGURSPj9yHZ47CL7XkwzTnlgMTH5JmDDsFjfKZA21W3Q+TrrcALX1OLodT7NEiO4lLfE93c2PD52iYXA3KA/g46VhSoMKCoyDBqWLn1WCiadWJZApyRmgeE1Vju7xTQg5CNTCrn4LTogixj1MTY6ImZvyaGE3bLzSsV2gm5pVCzv1YN6uuyZRtyOwt+3rfTfG2VGJPWq893rKt8cvWtpsC4V0blDdtVO3KdO4LnAKug5W3Rmsy3xs+zh3y/ZpR0xrqDNZ7HVsTr/a71hp0Nd7FRO8o33xdgbevegJ137qVvjRy37ZqfetUBwKHWk6NtaMNRfPAfFRE1ACW58JToKYOEfdeHQmWW6vR8MUuyUv3ck9y7ShDnlBInW7Xl+iGjIe8nwQdW7cQhQieAFfuBMNUUVMXv6knT2cjNQQrWlQhOlutF3w9Lj4PM/5T3r26T5bINxou8uluH5MyocT7TOmdppgZTpyuQazHgScaVnabQqSjikhpCzw3rdWt2mhaWaYv4dxarar+BKxhoadzaSFW+JTVDiV0Zro36U9MdJnsjFXFLGqpsiRRglkWpzG0p6o7lC8eYcFFNPFQ4E88lJ/XP+DJYnY37QkrTee5TQO4pjy5Sf55SnHk/iQfmOtjbH3lm5ciSN3DcvD0k4UQ9Rt55IaiTIa6FAGqIAGBsqks7k5+Ln2E98RTfpSqj2NhxrRwAHY5C/NgdKygpQADTBcdYabDqU1WxzipDqgPf1HZ63FoVVUaH5TynStk9vk7rrp0sWF2rsz7rGnD8VkmfBKSaDai9yYSTxvzJIki0asHU+pkmsKqB8An9q8cTFhAFROeD24V/cNbLK/jGS3LF5MmLg3aPjnF89qCNKLvxwTIVIds7D1mlnjcEEsrj5gtrliB19ZUmb7aTKjnWSUbAPBYSoaxagiQYyanyTB2ioC7pbI/M8bd57GOwjCOZVxbVfvUYMVdcbArXjGLF3zVkTMGPqvBEthSxST29sFLwB8rc7w/Oxz1lW/MXVn8sl3r6owqSpsvCvp4WunBRfGop3jH6qwGqjehrVrh1U0VWXVRr6pDU/kqyJUucvQZeO8sMam37bFL6wqj/OleSauGCrJIvKtU2jQYCCZCWSijgvIlpw9z+CODXFYZeT4b5vhx07GBNgjtSo9EAQcCMOMAljd68bJC8ptAJZcEiXdL05nAllVMTTltVdXv6R588jyleZW2M8RJUypbxspKYgQ1OpTM7Ux5M/Z8cxfaITHaLglccPgptNdLuotmjUkv36cZuEgjJdZVZSJNcGVayO9LaTgpHPekeDL2fBF7KoRrOfU+bO9SlqYDmFB2eIjoqH3xPidZ+UiN94L5QiBjQxaX1NSx1wTSEu/8DkfW63Sts9X2FUiCqVVLVWc+E8IreNsb29Ztsw2q8qx8Y4EkMI0FSslRlBF/ks6OXK9Jnhq1pGmZxAr/ia4lg55hflhqgofHEpE4UIOhAPJx0rGBNgoRoIVpGEDLWCDMCMJ5NeTLymAD4lrmZFqeh9gQd0yEydljcCbVlHLUa5yd0SKEcLtmnHDSlhOAw17j01oPQGClSvnN5b5AO5CWYz0RaxWYsi1Ii7IhQglWrKzI6nX61uuydFNWQKEsgNasWq767oz4dQXgjfsbdu/OXbtz647duX3bOp22D7vIQzyvVZaksekk8jISbjJQsJq042qr6TLG/akUwXkitqCkZT29jKGQ95Mgcn/slNe2YTKz7vbhyoEovPz9kqo6C8I2nOurq97bh8jsYPwJ7DdkN4mSK4U6o72JOgKUk3FsHqh7MPdRuyN1tukjZTvZW5r3f8W0DxsG8GI8jLuAtvY/jRGzP8aqgLQvAHe3uwLqpt2+cctefulle/nFa3bz5ZsO2q3NTZ+ISpvNp3jJEUuaUs7krzRhbImJ/OjIlwX4ggWKNUmNw9F/d9JO0E5CK44ALXRSwD1W0OYLBHDjQTRmD/WQuyzSCR4UfOJPlSfiaQ9buKSLial837wa9vNpL5qYSkxXzmgxAqxpC53gDJi7cVbH/CZNK6Bm4E0bi6ejBEDNm9jbTjdwDVMZs53xqTMD/v7Yeltdu3f7nl1/6YZde+Gajtft1o07dv/OfTeJe202BJAc6Z/oEystRYyJ7KLtcwNT7Yo7N6CQPBas1dCNxKF7Emh1zr15wstJDuXVv4Iv8olVL9ckwInQTO6OnqJAHF3jit1oUcP6JW88AsDKDifuoVMdI4NYzM1GTdfSxck96Uad7+Q87Tw7o72I2qN2839e2zEYFCOzE+amjOI59GSiJnMzhtbgVYhWy+jAhBTmbkWtW85A2mFvqdsP7IZA+rJAyvHuzbu2cfeBtTfbvvUQbxNhMrNIhLeNMKmRJ+ZBfB8tReUzyMoUHXloWx+t63wqG+ROY1qZb3xJdSpnXMPFMTtwEVQrfCpruj8//IOhU61pyTxmMEANxi/Yi02lEpY/lZVqTBWCZ756RKnOrKJKpgk4odKDoiFyd0yu+hnxT4Of0R5ENbl4qsJ2PIaZXklgnWGINpwAVWBME15psoqvuPMNJN4MAsD9rY5t3nlgd2Tm3rp2Q3xLJu8tu31d2lTgbW9u+5s0rOSa3ItGVhoc06QaaSn9ERNZAx9nYsnR6C5CyJ1OppYYGc0yqzM+N9NsKH6hIIljXM/CuJPOAJM7eXj5OcoRiihkGToJ4B4LaKMw4Z6ANSucH6JwnOjfKyPvB+ipTJ1iGjPZcWF9zfgSAE8veaGcR0T0slSlv2TtfymuKWU+LnhnBKVaElH1qmtvD3erSlVPiXGn/tK1lNozcRawqA4UgOjo5qai9G/4SGuWB2wmXrCagMV70dYb+BanfZm1m7fu2R1p0VsvvGy3X7xu96/fsg2ZwW1d4xU7MOJgHyVTGZi6vQt2yLbcPh+CZoW8/XUPwsKpyxASgamcnePl7DpXYZVH3bS+mu3L5df042NbzGc3CtI9yNgkggTWTcqhsbRbjqoDONx5AB8XpZIeA81mnnMHcnaMy/TOEFXiTi5wpFG8ATCnxPJbU7fYkLYdD3rO7P7AGxr+zilxQym6neStckZQquKoY/71R/W4W968/O6zumVnQDpQW/QGAylIHntgpY5tKG2ZdrLIxpACWL1YsbqVrcazVIF3sNm1LQHytsajN59/yW4KqHev3bQHN+9Y98GWbzDuj4t0r5vNgFytzV9o0Slzntgzkfn7UX8++6uCpD2psvJlxDVnArOMU7LT723bWovcJvmadAyzkBgD2qQQ0rlZp9P1z8cgx8Gp80t83HRsoJ2lSaH8LFUAlT7Rrk6AmiylHs1/xNzD7HGzVrFzrZq/BM6CgDK2kxph2O96j0j/msLn4zyjnTQVLAeshJU2COZj2jAL4n1mVwLpY8hy1ceTPmkUjDb0o0Rd4Btud63D45jrtwXQa853ZfJuCrjbdzesI6AOpHELaGOBL5nLypGDJf/H+ZSn5EIxh2cp/ACbWLKB/sQ6q1eK1pDpxrrsc6sNB636KBHl55iluyMTPLtNu3M4tpVf7yReITo20ObBiJCEGaGq8Rfj2UbFr800S6LMjzgy8wdzpq4xyLCzJTNqU2Odjhq7r3FPWz1n17816pab4n+I5nidUaplZM/ZJwZZ3MBm2xU3dIZ9jRU1ruT5KaYjAGVVkj+ckbsgM7i/1bOtu5t2X9rzxksv240Xr9kNgZVx6oPbd62/3XFNWhXwa74wgq8IJE06RlvLdPbvHdFGs5ynqcrdybtSmuysYLICN6wzde6jfkfc1nlH5jFfqwCAHlzhkJ5ZCeIs+USH4i7VVV7DniSdiKalUBMzQn88W+u02V6MiqUKUrXEdpuJVH0Ik45gl4y26lW7uN70fYPZE4kVUk0BmXGuL2PM3Z1IEWBOeQpnNCFVE+0Qj2DQprQNQwz8faWTapwZ3lpRQCsIaCxo7glk2z1p0y2ZuPc0Lr1hN567Ztc/8ZJdf+4le3Drru8iUVbDNSqyiMo1tUtRpqg6VwET5jU6dw+TqV0QgNnuNFopz0kq9uP5NMG0hIdHVqFl2QWzVhxbXSr2/PqKa81JNMoHbr+NczKRIcTrBUNafqzWmjWJg0+CjgW0YWrlKUALdTudtMACoOXK6fjKyCvAz1Pfh7NWKUsYFMewJ+HYsEG3LQHxJ3DW63akHZJWzlO6M/iM6BaZ2ff2UZVE/VN37h+PZsRFKUD2W+pstn0rl3s37vj49MbzL/v49N7Lt60rABcF5ppMZ1mQikcpZCY3RJtjWvteyErMAcFR7Buas9h+oS1J/M5dONHUlZHkC9PYt5clcwylZJnByBBb006kwuuDTstHvn6ayM88nHsRTGGQz7xMQ7Myf1x0LKCdpeiFKKAOommjcsDldabjpBJTQKcIqyGtveapx+21Tz9uVy9d8AXhjGUxb3z70SzuHSQ/OoMZ3zOCVClULWBlDNvrMrmHPA9sK1uBdP2Fl+zacy8489kNHtP0Nrd5494qTD5JCzdl9tZl9sY4bzAc+UQNcdJJsFTRJ7bU6eIGrP49IYXXyNktrNRCU06PmWYpd30mzGxougfy4xu2Y/r7mNZsrdW0Z5583N72GW+2x69e8neNAXdSueSfsBOnKJeeu1N95bVq3n0SwC0okSNPhShhQEoBMYU4su743l2ZUNKQTzzxhK2tn1dVpgKnCkla0/tjKpL7hbghqJP7vryu98w+ca1vL9+8bR/95Ev2SY2drmtMtdUb2/123zqj9E7pSMIkKdGxOJm+d6HSP3mjiSYFlz8V7+dZ2KAkF5hvqX8LE94biriyG/xuSXyKJfPjQCBnKPXYEKuJUjiupmOeCEnep/fuTyE8jaurtvbEeV98z2SSz5xSl2hQyulCpw5UyTpgBdJur6sxbN8Gm0wWdX2G1Bfx6y+ZzWoZ3Y8W9fEc93tcxEH7Kqxv06g8y8z0JYwqI3XP5A0mJWUhzTRTrCMsX1qD1/0i/9E2nDMu9Qkxr5F0we/x+tORE7E/ylFm+AgaG/xUFZ+/MSagrjcqduXCqj12+bw9IaC+7jVP2eufrNilmtllZbelOjCVXT2/sSk7+0Oz4Q+rwQpjtv8YK0bKUbEhHxR/+bqCb1prpenr4eOjW5H/OB4XHQtogxwcVIiII3sfb2w8sPZ22z8Psrq25sKkUnoYwnsbzCk0maTi2Gyb5XLEqs7ebt9r23PXbtnz1+/ZhzTGunZv256/s213tkeq/PRZS4CM+DPWYg9fdr735W1KO0w1wOipSgrSH4LKudpsVLGS4iFEnw5I3sUy85FAllfIyB1H3k5C0JWxKIvGdAotlttLIRD5NVgxTdyJg3hFjr2j8F2Uot4aV1u2+sS6f8AboFH3zABTJiZ+Bn0eezAJ1NdQpSfOvtIvwa10+/5qXeTEc+zxTnMXq4uC8Kc2eDUQEPVVr+mbs4A3PcflvV+KW5QW5nmub8usG9mCtV8aWUd1x72ehicX6elX/0xeUYu+BDabuGJicyj0jwSqtLFA11qFvl1qFe3xtao9tl6311xZt9c+cVkgvWKXzq/KOkuTmjCLYlNXspNIF7+BLAU+pEa9Ijd0Vg/uP7Br1665P9/vAbSxPDdZkrOxHT2dKGj5REh814feiW0nG42GX6ew+xWYjMYLUinWFJ4NuTvyEH7t5Xtd+8gLN+1jL92yF29v2I17W3bngTqLbQlnn3slDAiEev6RBGGgSIPR6mhV30GfJXD4sXROd/G5DV9IID+2fxVqE4BVLv9ujDoCxAzhna7JVX51X3IFhbhHGB0nAaYhPY8eMoVehKL+Vq6u2Prj56xeU90qw/4xNIGXxfcdaVFAipvX3voCMGjhWTfAGMtiifzsyLeiDigHuFJqyY970EwQ+QbYvuZYbnxdDhSILy34y+i8L6u6olrZx38wUntQbzoXNnREdpj1ldbEvHYtqvt43U5loj3Yb1kDaslQyS6fW7HHpU2furhqzwioT19asavnmg7cpoBaV7wK7bnzHCqtqtoxlWE+keeQS6wOjnxw6+WXX/ZNyeNLeYAWwD4yoM0znwZhJQmgxc23atnkOSrHte6exMSCGo16gZVz4u2rER100kz08Jg325LFu1tm127es5eu37bnb27YJ29s2PXbd6Sd71u7P5Qmk+lcYBf+gmtt09iM79PyWYiRtDMg9UdV4w2Bsa3kMNdpGGmtIqanxEDhmGv1h/5ysZoHAWYFl6LxzdKwDJx0nF/Z6V6uxXVWffGC+kEoBKZ1UWbbhaZ3PIxTO+2OwDn0WVw0LR1RsiTIUJY5byOAVqeLwiPLEbTT7QXkqHvCn7hSuXn+yjFZFOltITSwAFhUJ+e7XGi8W+BL//KXli2MVqwwWFcMRKSbaWPKT04wm4fSonJTH+xX3JTZf251xc6vrdrrnzpnT17G9L1gj186ZxdXCrZWN42zw8TF8oFd3+dARY7n6dlEecAiY0F37tzxD0kDWr4qwGdAQsvuL79HQ8cKWojogzHBMJEBLjuzM65l83Kf/td1eqy9Sb0vQhD1zGoV9cbJn1/MXTWPj2VpdoFGP9vdsT3oFeyONPGN23ftxes37PmXb9oL12/ZtTv3Be6uQKz7Kw3dW1UngBlMXIC2osagilQG/fpqICkNxNV0HWBAyFrAjuzRk6Mt6RiSecmVuKpj5pfu8jvyd2egTc+yF6UQyEq9aJWaYlC9AloesxAn41BlyzPiY9osLWVG/kwIqc4KbGaeB+3DR1W6uyf+OsQaZcqdgCtWPVF1Dl41mlKwvoA3AtVKwvs8gbI0VD0PBFGe3SsfFV0vC9B8UaEw6FhTYVeq0qbrLXvyyiV77ZOP29NPPK5x6jm7sl6wVY1NNWyVRla0ipoW4esUgB6NPiGVmfIiK7zCx3u6Xv45NAtajgNpfTQt1iKgxTSOr+SFlo2wx0nHBtrIPMfg+CAXoOXr8AAWbcs1KonC70VkdJpZxelLGdnRQL7UE2j2QPzIjfkEiNVKvWLNumqzngQJIG90zG496Nonrt22l27dtw8995JPaF2/u2HbMhEBLxNgXd7pHKGBq1ZiskGNw5iYMY4K6HKgnCi9JMgcfaZFeUCbSfzkTo2ID/dwJCR5dLc3cnJz9CtKw7+8cAAKYaG7gqkGOjnywfdo/Zu0OksTR8qP6iXlQ9e5V2UbKL+MQ1NuuZqOQM7dXq7MPWHAxxcJAEgCrS/E8BVTCbykARHO16TKTGZ2oCctylcAm6oznqXSnjbUeaVoV863BNSmf4T7yUvr9prHLjlwZfVaXSDlWStbwjDxxDeR0pZD2RwDTAUInGmooTK5OZ2+goDMMceRauxh4nrIbxCKhi8KQGhYmGFeXsvGfcdJxw7acMOAFm2LeUwFsGfUlStXfFybD78bIcJtNRL1g1hRTW6KIThqMD627FFkFQgBWHpVGqxQwchKwO1IvoRNmWmJbz2Q6bM5tk+8dMM+8JFP2Meee9Hu3t+Q2V20jcGqbfYBsYRCHUuhjMCpTLoPE1gp+x/u2HIUaUDLsEkak6qJ5CnKMOyUKj/nEWF0jDHhojQBLYLrYNU5fmJvA+Uj0vOwmbbVpXSdVBH2LBSEuCeKO+efk1cmoDjGldRCcsmDauHbtRVdL8gCYDKJsSn4rdmmNYobvnH4xfPr9pTA+fpnnvCPbl89X7ULKwqjcDIgnNl6iPaHY2YZKyJ93IznzXRYSlBpMT8BSMkXzZC6lZQ7PrpCHHtRaFyOjGVROGhYxrJoWWSY61H3hDtuM/lEQTvgWWCv54ymBcBoW3gRArRSkF7pcGZlecMDEFLzFPVDemkvXMwWVeKolxhtXmL7UD6kmUxoJrI4MjPNbv19He9rPPzJFx7Yxz/5kr3/+U177kbbbt6+LTOaONBGLKTXfWqgsTqEtEuD3Eo7CS4m4tjq6khKNDz5mpBudE40BcKU0Hbs6k88i1LUt3diaFGl7+mEEJE5hSkyCac8+df8FI4cpMc4En7VBnt0JZrJWRY/lPyn524XKL8ODnnHm0KgFbgU1PY1XeObdEW1f0lj67VqzS6trdsTlyoCacPe8NrX2muevmBSpv72TUON23JkJrD6Xk7cr2EDE1Tkd+zfJkoTSjAljTxzDAawMCXjSDxMge4HWn/sldXfc88955aifxhdCgDQxiRU0KkG7SyRDBUAcGHMDMYGmBhUAkcKTLiJ8OUKjz9jTQ1/vBGikejFCQXnZMopXzB2YbCRBrUAGDFSQzNm9V5YPjDAhWfPN8Uv3jf74Edu2B986KP23Asv2407G3ZPY2H2HR6XmxLYmvJWlxDxuY6KzL6s02C/YOWZRwRp1ZFi1BGNhknqWZZmZAEAM7iEwSLpK18FjbEPAtogh1qu8GAV38SJuJyCTP0BV4n8qgcExMzmMobnSpFHRsqff/ZyQDupznUOewcwUH4HaQiRnu70ZJl0lUhHJelatdAT8ATUcsGurjbtDU9ctc94/evsTa99RuNUs3O816qU4GjPcE+PdCpYEbRKyv2wUPc2ilJMS5gv49TtbZudNBQp8QZRjpBBKJ69YhkyAcV8DEANLctwLkAbMnsSdKygjagpEG5v3Ay4mBkwBeZTgfH5e4iw+XujQvBhhxEoGohK53LUWb4w4eaYHjMwrxx3cpPrJK4KaEmrED3HPG/Ik8lkhAcBuSN1/7FP3rUPfeKafeST1+0jz9+w+1LTD7pjjZd5lMRX6dDmakyNeTCl/XszKjvlYujNxIxOHLg4B9LgXd+grGitlZaVq3Vr+/dqyd/BiDxPiGQy52xcyX/qh4tlor3OtgRVYFPb1NlPuVzxIUZX+emr0ykVK1ZWWzFJx019TF3xmrQeixvGbtV0rFzsW6s2slUB8nVPXrTXPH7enn39kxqjPmaPrSbzlPaDaXnS9/Z8iGklNHY6Um/eW4uG0t20GeGguAciGJ1kOs98M2Hxzl6J4UubzAMd8opmZVEQTBjAynAuP5bdby7mqOlYzeOojKiQ6MnQJJjIsTMjhUbTMlaIMQLE/YSHvGJ8UIaBk8tyPvdI/6TZ45gOjHGkNzx85qt09JPUEI7pBdHEWxQ9OxNTjId5rjjkOa1u2dalm2hhAfj9H3nOPv7iDbsl23qrO7ANAfjWeFUmvbQxdUED+2RQVhfUEfHrL3ptiC1F/XUyT/fglMbW2YkoX0VBfnnHBXyYIVW6Mp/pQKkfz6d3NgKWwMvOiSz45/kunS9E3hvSpM3+bZmzQ1utVe3qGtr0sr31jc/Ypz/Nl+xrbu6m0suOYHZXJ6nbVL34QIe6zvI2J9epTKnOkouw0obZHZP7kBO/iryEOxgiJIhNi1coY8gpHLLL8I1hHBoWf8AKI6Opfhgzn6yWhY4dtBAFg8IP0KJx6cWoEM4JQ+8VM3L5scIkHhphiLbUOfXklSX26zoCiPCbcCJCAAH39dtprjwRIljkF5N7zL66tD2gckkjnaLGtALxWLmSN+NiKVqZzGbPv3zbPvyxT9hHr923998c2W1p4e2tbetJ2DHLebQykI2Gm46gz1o/xVeq1NwEdfNz1LdKpk0OSmlMmZ1MKFdektNhRxBHBON0Ca7yQP+XvpHDe8vSwFVpW1kDLEGtqR6q5aIvlGgIoC212Xp9YE+vd+2NT12WNn2dve7KRbskDbuiJqwrvbIq3x+d+awcJ3RaQ9VJX02mtq8w2s3RpOhZLnUgi3hPWZ2dWLDJfCAd80AN9+SIv0h1b0U+KcoiGsUkuQnADlTueDyJYkFWkcl4xINshun8StCJghbCj0oIjUvlAF40Lv702lRQmCH0apP7eRzQ207tiB9Mxf3/2zsXrqiOLAofleatKGrUoDHJJJP//2dmTSZZoxMf+BYRRKHB2d+p2k1x040IKIq9taiqU49bdersW497u3sEUVtw7M8+cXBgpXYMWkUzkyCNa6vpa/HG+ljtyzaQF0umgloh3+ubbz/lshgyb8XrrV788exc3HuyHv+7dz8ePHoST1dex8vVjVjd2Iy1d9oqaKl5ZmImD502IbBsi302XWMPdxiYtNmFQRWYeCVu7V6GK+gSqWekb75APL8VREJuHLzUwDNT3uflUQzu/EwvFi/Mx9L17+L2raX4/upk/HrrXJyffB9zWuzyPf+Tqker49IYgD1wgwJ1/Hi/mhP3sxO6+qCtQhsGqsKkbSiZ8/NgHBM1JT3lTOfcrVOpiVn5ZRWEwyYhrFeB2CbEhKC2SewRG82V3wnhs+1pDcty2dUoCeLiIDJAUcy6Ji4gf0939jzA0WADN556825Z4xhoQb2eHJ852SWtB7taQmsxVTT4FElfMw8WQwFfQEadBEbGIZM8Pw9k98X1mNnzsZIcXyb4an0nlp+vxJ2Hz+Kvxy/jvtbVT0Tgp6tvY+WN9IAB5VtZnGzzzLS94MHByS3N7XSJwd7jg/SVr8QJKE2zYP7USn8zX7q/MHUuLs9rybswFzevXIib312KH29ciRuXL4q4EzGvSZLHMNSBKZdrQHz1QNeiF/kcOC9CxpKrfGWNlt4STUyyzHXZ2j75BaWBhbT8K+OJr5FRksedv6SXeOaVzeSlB7YhmdrGqfkWx/+SegLx5IFNIoOYEBXCshzGJpExibQT0efGJyUtMJkM4r4kiiGMklBa61AeaRAWZWU+DdHUxcsac5Yn7AM1aAxI1tYYTMcVMIScPFa5/LKsanMxU5ITw6++HOQDzgnxy0km8ZqRBIGTSbqHKHdpOzyMZ/GsmPZQ/Gr72k4vXutGsPzqXdx7th7/ffQy7sotv1iP56tvRO638VpFNs4yX328cdDT7GBF2+ecbdVA9yWz1nB5trsRs2LgwtxULM7PxPXF+fjx2qX46drFuH31Qny/MB0Lmk0v6D46yQ8D8daWlvLxfkoVaObisqqMU34WJ+VmCWgVsUK0sqzlmspDfoWLPqsved4Ksz7+qLz87JucScsRVqV4osiKjyMfqYO4LsR+nGf6a8+flnfKBVZ52B2AmJAU24Ownl1N1rwByNmOW7S2/qnwyUk7DJDVMHG9ZMahPN/1WmKzD5yYnk1iTEywjJ6OaZSq2XdKey5NeDlAVlurvhxsjFVC5PkRs0woufi6lVQEfxiQWpioDaTkxzdhge/gBeRz3pTzmIkaWBloBuUNKZbPGDKOHfq6/mjCjRevNuLB8uO4/2A57r7YiD+fb8bK2kasaW+1qVmBDzjwcl4fNkxyaso7U8TLXrTM9BCiGDxvCbGPzJNzEYt3eM/mXlkl5eprB9qjam86PRVzmlF/vtLTbDoXP9xcips3rsXiwnxcmOFbQrSvVcWc8uJyWcpBmQ8G+WaLTKk6oPNq5i65QCEdGivzY4oyr3WWUKT0BIlK0P46cFmDxjHrREYPNJbE/eV+XoEDTryxLXLs9Lfz8Q3LXpbNG2tr+TlsJgXICDEJe1ZtHWktIR1u6fM5CAtOhLS+JJ3MAZAzOR2GuH2I2nGkk0YeK7S9K1InMsIomvytgnEOW95Vdrdd7d31Y7GfcjEkHqVgVNRNe+kjhvXo3UT8vnI2Hj57GX/dexh3Hz6Oxy9XRe5tzda9WHnbj23thXfOzWpW0z5Ue+JtrTMhL4TiHVwIBVl5h5lX/WbOaeWinX1srmlfys+HatnLkvf61fjp9q24fX0xfr20HVemtvNZ5FSP01VVJD3ka4KwUEAL1sTHa+TvQMetnoehlXsMLaMsMuuPGz46BSapy3giwF48c2I/7fLXBDWRnc+grlHt/Bw4EdIOA82w8yCOcgwCg8PA2FnJlGdAePbLQBA3iVvFG6Qb1NEOhtvSlYNufBT2Uy5pXCPbQHUI5EOPTdW/ommKDzKwH+Zd6eWnPBu+H3fuP467y08l24lXbzZjne9uYn7lBYiJXmxp67ApgrKnZHY9t70ZM5pxF7RvXJydjN9ufR+3vluMfyxdj6Wrl+PSfC/3pfkGkhxLf052aVK+Hpgt2u0vod3Y3vBhYB109Yzukbfj1qan3gRvp2wbnPpiH5RD5mUvdoAMu+C8hLqIm6hOb6/RjX8J+GJIa6BkSNhtFnG7LmEZFHzKcmclDwcIKBs5JGbmwLcjzfUB4q3M8S7a/AfBfsrlK1moBmOBFOTd1qaLwxM+rcSjl3xVEkd+SKzVKO9NP1vtx4PHz+M/d+7FHc3ET56vxOt1zSrar73QontDy9k5LXkvzs3GtUsL8fPSjfjnzZvxw9XFWFqci/Mi57x4zhFf/l4tvrjBoZBujZWY5R+9KB88gMS7rwwabfiosP4hC2BMCbd6RwZJPYMSZtyxC9sGJGSc0S3wbEpdyHxDpz5kJmc7rt34l4ITXR636CqnzUMa8fau6XTLfWflLssgUgYf5+UO4A4LoX13NYmpx8ZBfW3cA3oY7Kfc/FUE1Y8DXIMXMJIqHO7032rmlNFpL8updD4XFmG3xCyImwST4yub7j18Gv/69+/x+x9/xqPV5zF9cT5+++WX+O3XX+LWjetx6fxUfsTNbyFB1snc02pG1Y2CW0Y54SWFHTHtYkda2zX4V9Bq43Ca2QX6xlnfXI8wMAGRM5aMv2dTlsFOIx9lcMhYWXnmxJnA1O1rkC/7JncQeJzAQct8CpwoabtK+JAiyM/gko+wy5u0yPEtZ4C9v2HATWxgY2AG5rESZXh4zh0YHKQ9gHL75TuIciEIfaiRrFMUFYk0a8hA+YaMqem5ONMrlHvHW0taBlMiD7QIqFu0gusRJczREL7l9NyOh1Lls0rMoITBmXyTS3cK7WFl7PRLDj1xKyk5hmOU/KCwHj12+IwZr7pCNsLMpvgmuceI9kFKbsaMn8loAgPHcS5neRftmLbtaWE7Ogmc6PKYS/vyXSV25c5rZRFm4ByHkCYlZSAl6eSDvKQRJ+w7NmnkdR0QmEFHxp0aMjPo1EXeNN5msJABt/FjYQPkJfucBao8a+UZMPvKNDremuLGtB0TvDV19kxsbCpdM3D++mBtEuUg7KQm6XypAXmtNJuqOCfvW33tc7UWxmVaOrYaOzHB+8Qq1PbINxX6CZlH4XBaKECXjJFXSoAxgrSktbo2Sb3cxXnJ6zEiv+UuC5B5vOgT6I4f+ZHhXLa9fuufBE58T9te/iCKcH4TkkGiXBsHLKEAg0YaBgH5MATnJU4+jMQzLz4Oo2ApjSHgbBQ2FOC2tO1GdtAB7ebdY0T0SeHya+YYWyESYWZWHm8B4jjyko6blCDfFnQijgTzjTBo06p7L8eyHQKniOuqLaWdOFDaVCSW7aZ20fbTOsN3GP3zBhKrIkjKWKF/xoMw+kbvXuIixxHGtXWTl7R2jBxuga6HyYfB7QS+1kniizuIOgr26wqDZFKQjzAGgSPsGdhxgG8yYzSefb0nNmwk1IvzwFKe8KiBdt5uOnL/gvpBBsd5unmpFZdvgcnh41KIbwcs176Xgyiifu4JRQfZFCgfMi9kKN+GIaH+0w1I3NUDYdDq3LpGv4QhrPNRr2+QJiky/Ja0rd6sR/J19Xna8E2RtpuOzA5gRJAXQ0KGT7wlMgZhg8JwTGaMibDJS1kFihHZkOrlM0hbFNhjYLV9pDHP5c9KCh9rgpw0QzvK7Tr+lcm2vmA0aE+CcM3MCTbN4rOymVTbWvQHGX1Qlcny6yoHAlsodHXrAyQ/kqHvJiB6wnn2bMmaOlRefJPVjuviG5afZpwq0oJR3UHuAW4Htc1vctqZtORxGEcaMnyMCAPDoHyoBYhD5qRKNeqCev19DYu8MnbeODoo2j6JlRwx7QXpJY//ZtsGKOk5E+MyiT9llt2jM/3LZXueLkM8kUr/+FQQsyZ9xTF74iiLrtCvdYx+uMl5yWtCmrDEfU3kgHjbjmH4UPppwKkj7X6gq6MGFVJaFeQhbOK2YRyGh3G2BgqZMUCIShyDnBeJ88MN+tfDOCX7O6r602uGIgnL2bBk77ttVhxR9qWGy58KlcnpdC9y9pZv141DPa0V8lfusu7aN6pOveX1VA55lsgs6ju/96rthWZSPycnv88L0AXxLlFNzq7rjtEwWbZLQN5NO+34pkg7CqNUgBwHUSEt4db3rAFhMU6XIYycn+XIWUIy74f5FoiejBXjlbVlmYGvfAPwIj6vHCZaoyQsl2Xsd8ARMVXVLAMnqPW5fLZjrsSRXQvPmBZpe3y3KaA9WbaSW/Hsn/rLEhpwor229jqXvJAeXUCy7J8AoTgDMCGRQ1YvcwFyZNQNukREPkwGWtm3gm+WtG23hw18Vy3ETVin4UNoL5lxxCEtMmXIwxxmH05jMVgcRnx+fj73umAw69RlYEF3eUwb5dzW3FcWdP0PnYnmsnZPl0vJvAJvbDCze0mf1ys/Ns3H6LhRrfNiQz2dR3f97X5+m8WMbkwAQtJPL3fxTVKT185ox6A7HrRj2Bh9q/gmSesut4bQqqFNx0FGx1uYpM7vpfOAwDJkJQ5e8OCxDen5vFXGDDBcSDwzW06l+UqXNOa8VL2ePK7gFrZ+VwbaMDVADfwMk1i6s7cCg8wibL+/lSSlEO3NRzLv3qYsfyVeeSAiS938gjfphhXEZG93j4qPztCPSWqd2oFW963MjusMQ1sOuOxpx3h5fETYsOwgaxtnxk15/TRPLqW1B+TQpnzCp5CcFywg7WxdQkPwnJUVx9gpK6vU//ISPIc/ef38uxfIcDbh9GvGElYkM9UZTO696s9T3brsZSblx9K4ydC2fB9acs+e7M93l7qQEZJC3uHktOxjge4OU+40Y0zaY4RVie9wS2LCZaYtzycdZzmND5wPsA/mBQ+IgtFDatxxGTFtYBXAjcQnvRAXMnIN5JCSa+KDAWmro104YJ+ydo6PcXwYk/YTAzK2RgshW+fZ1ySGwN4TUw4iMESEOcjyI6X9hu1DJKEs5OOa7Lc55eXaABk3i3xcpXogpsM430Dst0D2oWuPcXSMSXsMaFXYNVpIAFo5+XEmreOWeTaGuPgmlYligh8FkJE2UQ/XZXb1cpd9KmFAHmTkIUwbLG/7BJxG3i66ecc4PMakPSJQn1U4zDBHGavL4Ju4JlDrm7zEqcsy3wyGgbyjQB1dEtohB23YedyPdgk8DN1rO96dlcc4PMakPQZYhcMMeT/1Oj95IKPDBjI75M4HaffDh67p2RqfGdWkNLHwibse4ji3wXD77Y/xeTAm7SeC1dqqlzAG3hr5KIMnr8nqeNcdFi7fzqjEaUs7qwLntYxwF04b1Zcxjhdj0h4TDqrGLiG6ht7W4/AwMrSE7uKg5PGM6roIt2UJj2pD99r75R3jeDEm7VeKowzbmFRfN8akHWOMrwzjI70xxviqEPF/+HAOkXN9WJkAAAAASUVORK5CYII=;" vertex="1" parent="1">
          <mxGeometry x="200" y="358" width="61.44" height="77" as="geometry" />
        </mxCell>
        <mxCell id="CZz01ztnTcE0DwjemcIG-4" value="" style="shape=image;html=1;verticalAlign=top;verticalLabelPosition=bottom;labelBackgroundColor=#ffffff;imageAspect=0;aspect=fixed;image=https://cdn1.iconfinder.com/data/icons/ionicons-fill-vol-2/512/logo-javascript-128.png" vertex="1" parent="1">
          <mxGeometry x="310" y="310" width="58" height="58" as="geometry" />
        </mxCell>
        <mxCell id="CZz01ztnTcE0DwjemcIG-5" value="" style="endArrow=none;html=1;rounded=0;" edge="1" parent="1">
          <mxGeometry width="50" height="50" relative="1" as="geometry">
            <mxPoint x="270" y="470" as="sourcePoint" />
            <mxPoint x="270" y="350" as="targetPoint" />
          </mxGeometry>
        </mxCell>
        <mxCell id="CZz01ztnTcE0DwjemcIG-6" value="LOGICA" style="verticalLabelPosition=bottom;shadow=0;dashed=0;align=center;html=1;verticalAlign=top;shape=mxgraph.electrical.logic_gates.logic_gate;operation=and;fillColor=#d5e8d4;strokeColor=#82b366;" vertex="1" parent="1">
          <mxGeometry x="250" y="300" width="38.56" height="20" as="geometry" />
        </mxCell>
        <mxCell id="CZz01ztnTcE0DwjemcIG-8" value="SQL" style="outlineConnect=0;dashed=0;verticalLabelPosition=bottom;verticalAlign=top;align=center;html=1;shape=mxgraph.aws3.mysql_db_instance;fillColor=#2E73B8;gradientColor=none;" vertex="1" parent="1">
          <mxGeometry x="400" y="260" width="60" height="60" as="geometry" />
        </mxCell>
        <mxCell id="CZz01ztnTcE0DwjemcIG-9" value="" style="shape=image;verticalLabelPosition=bottom;labelBackgroundColor=default;verticalAlign=top;aspect=fixed;imageAspect=0;image=https://static-00.iconduck.com/assets.00/node-js-icon-227x256-913nazt0.png;" vertex="1" parent="1">
          <mxGeometry x="490" y="210" width="57" height="64.28" as="geometry" />
        </mxCell>
        <mxCell id="CZz01ztnTcE0DwjemcIG-10" value="" style="shape=image;verticalLabelPosition=bottom;labelBackgroundColor=default;verticalAlign=top;aspect=fixed;imageAspect=0;image=https://cdn4.iconfinder.com/data/icons/logos-3/600/React.js_logo-512.png;" vertex="1" parent="1">
          <mxGeometry x="560" y="160" width="72" height="72" as="geometry" />
        </mxCell>
        <mxCell id="CZz01ztnTcE0DwjemcIG-11" value="" style="endArrow=none;html=1;rounded=0;" edge="1" parent="1">
          <mxGeometry width="50" height="50" relative="1" as="geometry">
            <mxPoint x="650" y="260" as="sourcePoint" />
            <mxPoint x="650" y="110" as="targetPoint" />
          </mxGeometry>
        </mxCell>
        <mxCell id="CZz01ztnTcE0DwjemcIG-12" value="" style="shape=image;verticalLabelPosition=bottom;labelBackgroundColor=default;verticalAlign=top;aspect=fixed;imageAspect=0;image=data:image/png,iVBORw0KGgoAAAANSUhEUgAAAMIAAACqCAYAAAD/RpAGAAAAAXNSR0IArs4c6QAAAARnQU1BAACxjwv8YQUAAAAJcEhZcwAADsMAAA7DAcdvqGQAAEkoSURBVHhe7X0HnF1lnfZzyi3TZ5KZ9JDQQRSwICAdFBEs6Iq4FkRWV1xFVFQQQaXsiq6ydtHFgqvyiVhRiqj0ohRpIp0kpGeS6XfuPfV7nvecO7kzmUkmycxkMnOfX97Mvafdc97zf/7tbVZMoIoqpjns9G8VVUxrVIlQRRVElQhVVEFUiVBFFUSVCFVUQVSJUEUVRJUIVVRBVIlQRRVElQhVVEFUiVBFFUS1i8UI6A9CrPF8lBCjMwrRZNtotF3MzmXgWFZ61M4BL4ywquCh24/4XDFc3n9NxkJrzsWMvLvTPc94oEqECnT4Me7oCPD3Xg9LIwpNBqjJxlgfW3AiIBdk0eTlsHsW2KMuwkENMRbknfTsyYXl/QHu6Q3xTF+A5aUIQcybpgNgx4kTEFkR+FgkRIyX8Vle3exgPkk+XVElAuFHMX7ZAfy+SwIfckuEomvTFgAtZEB3oIpy4Ybcr91EySUx4hD7WL14ZWMGB83Io57n7EgUqfkfbC/g3q4Ij9t5FFxq+5gMpvDHqRdspW9bJIjSYlsen6WE42osvLW1Fnln+nnM054IvUGE/1wX4UnPpbYE8pFv/vpWhnQA2igoPXQnWFWUHgoNN4aUE5+GgFtQG/bzQ4TIzeIYWoiTqFlnuBNrJfr4DHesL+Gu9T4KvMcSCdCTyaKUCnSZBIbZhMggIggRd9l80mzsI08i7can+tCCDBqzk9PSjRemNRFKYYwvLC/gKUqDBMOiQGQij1aB6j5sMIJDZY8Oan4DalabB0qLxpImK+A5AQUpIDloNvjJoQvymvoM3jTDQZ2bSts4QZbspo4YN2zg/VCIJdC6n5Bs9SjHPoU8tFzer/boGRNCWJJ+QoTXJ4tWw7FCYz0yZPl8mr1PLMqiZhpZhmlNhO+tiHEXfemYGl1a3YoDOChS69OfDpvMMQ30obsoZDrGEMCIjjQpRYs1J+HReaHjcaeLOK4XS0DDgDc2+zi2hZZmHILRh3oifL/TBo0AyZsU4wbZHu9TZBAJEiIk4i4kfxMiiNQSAH7Sc9iJS1g+5sDaCB+aO31ihmlLhIf7InxrmY0iBV0CnqEcSJvGTtFozzqrDvvXAPO5v5+BczfdoxcYTD9DCZOmtWgdJHx1lH8JUslNhM9YE1kNEiGky7JXnY33zoqwIJcI2Paim9f86eoADxSyRmyd9O3p6gqAfSclAUsE3YuNHA/cM0+3h8/S7Fjw+Kzr+BCPF+j2cZ/IwM38EA6QPSB5z5oV4mUN08NFmpZE0CN/ejnQ3kehoKwYPchaiPhfkOnFO5syOLExN2xaUf74E4UQd3dHeKyPBAokgi4DU8to4JwUKyXLt5NzRTCaGRw/o4C3zKzZLuvwUI+H767PgrEw8vTERETj75cFX5aARNAT6XkOrLFxZL2LF9U5yKX3U4mQ9XD7egu/XqeYJzTX0LmyIiHVwoKMj4sXjo9Fm2yYlkR4uC/A1+gWSYDlT0vDe/SHi5kA/9YS4s01+eTALaDbD3H7Bg9/7AK6QPNB5Cn4Nqu0SCmVkOZ5ccUfUaOFuV4RH1mQw4zs1gmWYplfri7hzl76/nYttXVCXHn+5n9aAs/V5wA1VgmvqbNwfFMtmjNyi7aM+zs9fL/d57UTN0oWMWQ8kYuL+HCbhQMaRlcfOzOmJRG+u6KE++gaKYiMSYYSNXYfw4J9ch4ua83D2koNKCtx8waWDgf8aAS/ZAQTqKUPL5+8Fz6aZmYRdAAfXRhj7/rR/UZ7Mca3VlpYGSSaHgzGQ951yOsxJOFvJUSILB+vZXjyxuY8mrcha/W/q3pxd9EhwRhciwhUEJnYwyE0ae9f0JgeNXVhjOF0QimKcXcpZ3xpWB6F1KGf7RgN+K76zFaTQKhzbZw8y8XFu0Z4cUNo3CTPduBbDkr8G9AtcalU+3s9KJ79nxUWftNVNC7a5vBoT4BLl/tYSoH0Hbks6euiDxaRGCWvhF4+wy41Pv5rbhantdZtEwmEE2fkjC0wfhY/JdYG+AfdQLVPTHVMOyI8U4jRkz61K6kkInJicezjxdvZSjwz6+CsBS4+NcdHGzW0IDdGFif9JdgkYJHW4spSHpe0e/BIzOFw4zoPX1rnopPCLzdILduiqK5DfjF+yWJ2bR0+MbcWl8yuxaLtbBVWq/I+2bTlWSZNv2SyTxGW9JWSg6Ywph0Rnix6RqIyoQuHJbZD5N0YR9E12hZrMBz2p2X5wkIHh9WGtAaKP6TE6RYxCC1kA/5mETNKRfyjo4Svr7XQaxrsEiiAvWZ5gD+0R6jzA+R8F66fpYtlM0CmVUivt6jBxflzgENpacYqmH0ZFYFFEhge0N2SxYxsD8/29ycHTGFMOyKsKHm0BNKwtglmpfWisBf7JLHumEHu0ofm0kK0hahJzIFxbdQeYUc+ssUS2mrq8PeOIv5ztYV1PgNsWoev0W36Y8E12SzdmzEDKeSuyG9/U6OPCxbEmDVGKdky9q5hjMBgf6PHlgTNyzzFJ1Mb044IHX0xsqHedLmlNaCrEWARhWA8cGiTg0sWBpjtUPjzNn8byClZTxTo49t5F8tpES5ZGeK/VoR4vD9xSdQu0Z/1UMoUEWQ8FJSFYvnQXAtvmTU+PWDn1fD+5C6qeoIM4jAHDzkskW83xTHtiNBDVWty+4TkUd0q6hkfNI5j/6D5FHbl4xeWeuCSfK5Df97OJFkrWgjlgLp4T8vpiut+jG/OezNpXRLCdzzMy/g4f2EO+zeMX2uvXKyZGbpu5ptSUlm6arXYQDIEI8QyUwXTighFWoI+q5ZukbSpGp0iEzDvMg7adShqbQufXdyAVzXa6GMEHcV07uOkd6hDd0dFfZYSJEGrWoaLjou9ax2ct7CGrtD4a+ZZJJxMgk3XMTKp2qxpu+g1VnTqYloRoYdaV6lMZWGEcjeEZgrbRECNu+9uy+JdbTkSkD9OIqiNQRkhk65UgKq/3KcuHNr6yjobn5iVn7AOcIzBjaUcBN6L6m4qY1oRQVrNdKNw6IzQLfGtLIpWHTJ2Lj1iYnBci4V3tMoN4guIsiSmiJgE72osi/i/RVfkmFob5zZlkJ0Ai1VGzrR/0GLZAVWEEguyWBHrLj1gimJaEaHIl5l0Kkv+ykeXL541Pc4mDiUq/Xu70y8pTJ8hcxuyCkm7wWN9Idon2DfP22pVTj6re7arHrn8W0xua8piWhFhJHmfyDG7Cjr/dznwNEkZ0uVXnl7BsekKTkgITYqV8t/P4Pl/Vvnom0D/fKSqmGBdMeGYVkQYaZxMMEHdrfQz319WwoP9oPuR6P7YVj8hFu6MSBIRQNZBFkuf1/Vb+M7y/gnL2ozEuSoRphA2DinWW5XqTf3yiZExXNse4i4vixJ/Wp3zopgRASU+VGsu70c5IaV2RQARwWeAHMYZ/L3PxTfX+1vsmzQWUMv2cBjnwXY7HNOKCBnZfQqdiRMqXmwwAYHgPR0eftfjICYby+6HSOCpYx7LsTOyOH1uztyXUqemsS/pXgrLzeJWz8WvJiB1440QC1QtwhRCJiVAJQmE8c6RP9kb4Kr2pPOcNL4G1OivrIDaCV7enMW7WlwcVu/iX2ZnaagcuFGOxYGaz2r4lhroS12zqog/dYxvB7jeEXqaTmTmakdgWhGhiQrWKQ/Er8CGEbTgWGA9Vez/rHVQtNykvYBkkDumis/y+yHZEB9rodZPBe2EJgfHtIkkvFfu17EKJmz6UhZy+MZKjYwbv74/Hfot/pWyCG0N2XT5OWLd6UamLqaXRbAtzILGJCc+uBqwqHyxdpxqQQHuFSsslAKL2j0hgfld/p6E/EUZDx+bbZuZ5yrxryTDIS3qJr7RgqmlNxs7qI1rcCWvuX6cOsJ10UJFgW/GP2jUXsibtVhPjVM8SJhWRBBaB/VSoDRaAXrpj/eNw+CTn6618JTSQ9Tv+t9od0KEUCe8Dy10hx1LLOvw3tYY+9SnGSUWQ1reZw2tWjcJ8Y3VJfrzY3vPipPX9IeoT8c2aCyF+jvNJCNps8y2qYppR4TmrJ1o5UowOF1dSqV0jHBvd4Q/9KvTXJwMqCfhTDcKIse/Zy6w0LAxjbUJ1LZxxnwLbTXqdBch4HUCNzR/QzLpeS+Pn64ppkePDTb4IQqFfkQl2oHUGgVUHG2DlMfUxLQjQosiZsH05UkgTb1qpHTJNmBFKcIV6/k7/KeuCtLomgBMhBAZTp8TY6FU+xZQ61g4a7aLWjuZV2mgLxIRw8HtvRnc3jl2wfMGaoiZzS2Mo9L4hL9FjwwztnyrOz2mHRFm0iKYSNSAn+nHqxv0Ks9Lt20fNLjmm2t43ZKFPMmVCXh9+hweNbzPXzqhKcRBjaNXsXN5vx+mSi7HGBpQpNn2XP6Ouoj8b4eNZ9V3ZAywkteRhxiH6ax3dL3UI7ZNaa4pjmk3i8VzfQEuWOXCNWyQxlOnsgAvyfn4xHbM1qBq7KRw/mhViHt7MqilNZDgygpovqGIalbW4IAMA1DKbUQHvJ/7YwakEje5ITwalu0xqA+RpZmS1s86GW51sKxoo+A7JELSezbiMZrCRRP9Ku45vy3GPFo7d5iYY7T48doS7urJIfADOHbJuGGaDPm8GTb2r5/aU7pMOyJojqAznle6MiWCglD+zfm9uHKvmdyeHDccNNdoO4VkHX3ppPj87mOtH2GFpkKpaYJPp7qru4D6mnrTUmwG2mgaRreUaPQw7W2aumYiiMgoaHyE3B/dk4LUcqOaFbmwQ9u0PWQ1XID36GVLJnbwrby5bi4o0UqEmJFxMYdkm0uStOa0BgIwK+ugldu2RJLPrfCxtD+DLEUiA8Ufik+ALy6soUs5tf2jaTmv0blLYqwoexMKYimA6u5/2TwHs3PJC9e0L0uKEZbRZVpCYX+SAv6cn6EnRcFkjaVibGKAnJVBTZSM9w15LVVpHDvyuhL3wvKo+VNfPs5T028kQmzmmU+JoMJzlK1RkKqgXq3McofUTTajoribx4kIJu5A3nzPBL7pWt7jZk2PWnkzup5moNT95vl9V37ePRdgcd7BoryF+TnanJT56uv0vuUWQsp/ra4X9fN8D3kS9bI9ms0xUxnTkgg/WFXEbYW8ERj1t5cfrJTlsbkSmik1z/UGeNRqQoHscFGgmIZG8yLOmCCyXISktyg1NYVMXTVkXWJKs6YTloKXQJpGPDvJ8GjEl5mT1Igvqz4NgEUAwTHbExII2m7GKPC4WHMwyTroWF4vJPN8NYSQLBoHLdKEFgmo3ebs8vUFWRr+T8EWER3eeC137ZEtYpcaoKE2j5+uJzEY29TxZDco8F487F5n4UO7JBMiT2VMSyLcvKGEn3TK97aRpcZWYKiOb9LetYFnhLs7W2emTXFEEi0eEmf51zIZlXLHOEFkMtOfErb+UvAYclKj8/rpsaQEd6irtY7XQeZAVb4hjmA8NULjhsufBf2Ozw2KB0yHOFok3YPGCUi4ff6oOJMlSRRQb4KUCGV3y2ccISLmeNP6Hd27IR3JmuGVbI+k4lcn7OO3AMe1unjz7DpzjamMaUUECdI/CyFu6g7wkDwValCtB2CmdpGQU2Y0XYrcHY8Cpt6fsheCtK0ERxZEf5MxxdLG5l8CaVxKrplPVZqZ38uE0WezpoIhgK5D7cvfo4di+hMJRh5ZdI4GwhgRJnvkp/dLiPlX0Pm5iDaHB5TvSy5O8lvmrAFon7p6a7uEXsQVkuwTv/M5TZzEzzpWM/9pggHECkYiLNY8qi0O9q9lXW1HID7ZMeWJoKd7vBjibz0O7usGejUDHeMCBcsaF+yG9LElUGUtb/uGCBIYCUniylDIuEsujllIhJrSEMQMbqcYV9Sg3PlE8wMnt8RYnI1Qzwtrtpg8BanGsczfrcnuaNKBfhUGHYUwQoF/+/hD13fEWMkgXYR2JMUGwxCBPyUS6K/ZzwfW6LNKiFC6jvlrnjYljgqJoazzwbUxDquLsS99p4kczDQRmLJE6PRj3Lbewm29wDp6EeoqI5fCtmgKSAS9dAmyWcigAknLbWBcDqUtTeXwP732DP+2oh8LciHm0sVYy6j2oWLOHKdjRCT9hg4+qB74j3k6efywggS/9LmY1ocCbARzo3BTgeOIZgurvRjL6BOtJDPJ9cS+aR0EO5k1o3zPJjNl6kTxi45KrmViDl46kZKAtO9HIx/2kMYMjm3Jom0CZtaYCEw5Ijxb8PF7aX9NcMp3qZdshJOwqR5tFCmnesnaTyLEiRALcj08s3BIshzUTArYvhkHe9J/2aXGwtychfq085n6Jl2wrIB1cQ4Rg+hKIrRS5C7aTccasRtX3LjWw7XrtYZB+hAVOG2OhcObk3tQ6ndNKTKNZktKIZ7wQzzP6F6ZLZskkHXU34QECQwBSPK0tggdrCBdcUvWxCSHZn0cOdPBfjW8xk5sJaYEEfQI9/dGuGk9XzADW70o4z9zn5GPAXNPyBrw1cpHdvninZAhIo/RYVopsz8X44OtAfbNWmhTKmgEXNXejz9rAL7IRGEx7hU/KYlzVquHA5u0ffyhuOeypcDSYUbXK/tz8W42GkboOaohqstIjh+vifg3rR+DJGaQa6hYR6jMksmiqBFSRQpD7RmN9THeXJvHUXU1O6XbVPn0OyUe7g/xwXYLl6x38CiFMqJPryyQbRX5wor0i5M+PmZa9fRp5QLI7zX+r+OTJwoQWMgIdRadR02+ORI8W/RwY3eJv5VoUlenUlDUafOQumDCSCBI6P5tTmQ68qnLhYFuhs/dQyH9efvIek7dvxflbKxhRUQMIGQvB/o08XwlDhz42mriCxVZCQPujxVLpY2BHQULV631ccnzRdxX4L6dTL/utERY3R/ge0s9XL7cRmcX0EzXv5FxsEZy1QQZZMMaCnwNfeEcgz6th5Djy8tgD5ZTm7P40qIsDml2UKIr5Gt2N4s+s0lJAo/0JH+HgxqerljfB5/CozECauSCJqLgH02O9fbWia/SOXkHb5hRXq5KWSQGw1aBz17EXwq0kiwj4RnWYwddOTP9pMigcdQkwOJ8gMt3y+H9rTFemqc7aZfgu6onxReBWRFIRcpEiiWZXTyLZVEOX19t4/x1IZ4sjlyPkw07HRHk6163pg+XLQnwUL8Gq8So54uvpQJK+obxkRjwSVubFlx+b+H+t/JlfmlugAt3c3FCq4PZDHZfXsdogRrNZIlYjBakzPxDE5GOgDu6C1jiWcg4mkJdv8Xf1Uza5NnxtaXNdq0eTxzbmsECJ1kMUMJpMkSpdv9Be2TqbTjcu552g/vkAMlFNHEB6+Ll9Y6JcQ6n0vjYghp8a5GLf2/0sKfVazJnguq4XBRsJ/WepKPXdbr45vPAtctKKGqmgkmOnSpGUJbkpytKWOUpgansjvr7e+ZFZIJa/uV3vlEFvRLwPcmMExo0bSIFd5h0pRbp+OiSPjNmzVSDMiZx1qxD8LnFDuYM6SqtJaI+9XQHunL1xv0yWafQQS8V5bzmGF+db9FVSQ/eAXiKN3LZStuMLMtGRYqk2jO0ThzwlhaHZfDz6JHPfq4PHVYd8nwGNYB72T66lQV8aWELZo3gHj5T8HBzd4S7CqxoKgPFE3psESBDBopQCqT1VwSbycu8fT7fR/2OURKjweS9swpISH/TE+OiFTaWBjX07/VyFabRHeArCOTbMwaQgs7QvTk4V8TFbSEumefiMBJhpIagLLfvT7dCRNJCHia+4MvUzBL3DrM2xg2dJRKvDm5gMaRQAxxdEL5pdcw8iy7E9pCgxGtpGdvtwV71GRxcH/JZ5O+TpIyZlMWSoKr+uoZM1/Es3aI+uw6RTxeHBtHEAMhgsZsZkQTCHrVZfHBOHl9b4OCk+gh0QPl7irsSi5JYouR6as1eyd+/nO/u2jXBhM3PtLWY9BZBnd++2RHggT5qOb7HGg1i5zateV+i5tNaZRGJkImLeEUuwCkz8phfU26r3TLu7/bx1XYez2tLYFwWj9akge7Ot6nhyynBdaUQH1/tm05vNrWnYQChhqwj6kK8a/7WrTSyitd7oCfCEz0lrAx8tDsKsG3MLDFQZ9yyV2OMA+meSOi2Bp0U6nOWUzmQrA5frenRKsvgBjiJ9/m2OfXJgcS1qxT0WxRWKgJJbfKoeHezj9e2jb4Oe/hOftMZ4aYeuppKHpDQcllN6po/r3qNqXRkmRbTh/3wbHtCUstbg0lNBLWmfnVlCU9Q+CIKvHxyrS9sUfUUVbF6ebz73bMB3kELsHf91k/mK/forOcs9KXKWOItIhRyFr7SFmOPfPLCvreyiBv5uw0e4wjj89aaF1zPIPKiXXNoyCTE2BLWkwC/os/+p1LGaEsRTwKTMZpSgpS4dnLx1Pp9AF2/97TYWLwV5L6xI8TV7bpvC9QN/J9WwvGQYxB80eJ6tOYck3b97D8jrONhUigm0OZvKwl0+S4RZqXPvTVY54X45Xof9/Tx5vm+ZDFN5onXtKg4RLgiY6t5vPS5cyO0qLl6kmDy3MkQaKTX5STBsxK8KKA1SHL/asUtKb9NP4SyitNaYPz5bSGBIPfosBxDPEq1bzJIJbhOgDpq1lspUMKyQoR7ein63KbsUkivwaQqYwevpt89WhI81unhP5/z8FddKwzRQMtSw5Jn7Jn1NaKNn/mTIrumepGf/WTRxfmrI/xkQ28Sx4wCr262MSvj0TVR4yA3qNGQr1r19pv1SaD7RK+FdtZlwG1mrlXLZwmxOBtvEwmEtqyDM+fmce4cWjZeV3M2SfhN6prXj2P+BsmhLvAXr4mwQfU5STApiaAU5bfXhiRB8p3vk9pXQRl1mxQXy15UkF/YBTh+Fvel7su24uBGmvLI43XSbgfylCk8d3fKYgA/W88bYCCdlW0nTFdmErGZ8nXsKAf03tnu4VurLHRTMCScaozKRKQ1r1/24/UU+quOHTkSRS6Gnjtg/HI16nHJKJakFdQ+cEqbi147hKfr8j5NNomx1d10MZcUY9zTk/jv5atJJPX8B9fL79s+vIgu3RcWxngDWS7XzHRX0cMpdiD0mysjF5etZVykLrqTAJOSCL/tAP7JF6WeoUlajn5ynDEvSzNIH9sU44L5WkwvOX57sWejgzl8Yfq9bGBDq23q/RTtDH7cHuCpotoYJDUSetEkebEnzYyQp1uxJTxKv+uqDUlAb0ajUSAkmOr1qYY8M0rNkfuiHL0EMZmKXd3CZQ1rggAzO3z8s9PGr7oTK7UlHFRrY2EdradT4m3TxBioaczG1esYn/SF9Ns3jo5TqlkkPLRxbEQiR0Xxr3MyeH8br+fKMqjOVIeKIWT5IqwtAj9cWyXCsHihP8T1HcrIJPlo8/IoNAHfEsUTZzSX8J627RubOxSyKIc1Zxh7ZOCGWZMVkqbWhBd3d0kzy5cvT9LFFxoG1M8xDm3Z8j30BDG+vF5uSWIJBsFkV+TEJ12/k6Jt6u+ajJPQXxGihm5EAwPp69Y6WLKZBrIyFOR/qElZLR8FjZs2MUDyup+iRTDTnOm3DbTdwoEa0rmZbNG24OCmLC6a5aCBPy+LJLKpqC1CC5Hc3wc80JGa/h2ISUeEn7cX4auyUhIIAYVDwd572jwc0zxGZmAIDpnBAJJ/NcbAiRzGA/TjKSfGKlGAyi6M/spVO6WNccsoyPi7DQE8kkECva0QgaRRVTz+5jW0UqPBXnkHhzc4Zva6kSZ9kVBqbWVx8ujGsSVBGYt4H+fOzaHW+Gh6tz6fpd8UKYFfdEQmabEjMamI8EyhhCfo1Mr5MK4DP+nlB5S+E1siHN44xoshV0DzHe3XZN5TYg1YNP5AgiLEWtBD8UOUxW5uBkfVb1loCvSvbulONHv5OtsEElED+eVayDo+Ruf+2cLotOjJtHQBY5HN9wyNGdwCL27cMrG3FQtIhnNmRcjxXvRuTcxnrD7QTlf0VrrCOxKTigj30P813YEpOIk7pGJjUW2MUxrGfzqR40gEyauEVq6YOpSZscJ0WXyXlopvzQpzOLkxP6oA/dFeBoqqYuMCiWLbBtWFlELiKNE6WBn8rTC66y2gq3NEPjIj64aHrhzg6CZ/kzlYxxp7MGY5eaYa/DJwgkZkvcakjxLjwDu71Ai44zCpiPBYQYExXRF+Lr82+eXvrs9OSNfeg3Ix5mbSbIqEj0WpRZGhTIpZ3H9gy+iq7fFeHZd0Qdhe6H4Ecy2WB/szoxacdzQ6DE5HtiD5qIij68e/foVjWjMwxpQPlGQCtTXCUt6e4qkdhUlDhF5Wwhq6HXIBJHx68erevDfNwj5b0Zi0PZD7cHSTVrlnYMeaMS/JBLPyyfnS+MJOaPNHTcoNfLkm1uELT9ybRKCHK1uC/HjdjzoFqnRriOYosagmi5epZW0EvDwXYmY6jc14w7TbNChTVmLcx5Bdcz6xFLMRXihtf+p2WzGpiGCC1QqhkBy2aUKeCcShzS58EiEZr5tYAZPmJGa4Fg7RIgujhHpzlx+n8rm2Fkk7Shqop0XtG1uTgz9upmYrGh6vaJnYWex2oeVVb9/ASZUMi773aLaQHYRJQ4SK7J5Blu+mi0pvVS4RwolCMYpQdGJ4lDrTi3VAgCOU+KKKW/GukpaPjdC3chmKLVkI9RsSIbRP1kplazr5LU2mVRoWA5OdTRA08Xj5OZP6TVLl7g4Ux0lDBA0nLL9XVU5PQbM3AE/CMS3NE4U7ujQ1Y6WosopMQxpMf6Q/bxjZxRiKOloWM+KLGE64RwtZA1PS76ofDc4fTfpW0DSXN3SkX4bBn3to9Sawjp8zU+lonig1lCZxoQLmRrtKBDPNyQKNLZArwttqbqYgUSP3dPXj3p6J8R01hveOPsu0Iahvk3xxpUv1sqSx1L/ouh7b9LYcDWbmLfM8ScYoiXvKhEi2bCxbRPlEvjHJ/5zs6AX3j10+NozIGRudnoNHNKhiAqC6u6PXNY2Xdpij+6v6zSLHn1+Yn5g4ZThMGiIIB9Uoby+BsVHo5c0xbqi3XNxUcCekT8r9VPkdYdKHX0hSlqoivSCNeLPRR6H+04bRCc2B9cmFhsYH22odzHXoH2kc8UG14YAF3Rz6Sejf9TA4Tb8PB8fK4p6erevuva341ZqSWVpX3TvUpaTcd2xvhjBShjsKk4oIRzRS8/KV6aVJieb4qmtJihf6PHx9RbcZUTWeuFVBCatEQbJGeWlKdLVjmIFAUEDpmnEPf+kqoGcUPSf3of/SoIBbhOJzbCtEgIDslMDIwmi6x1eMchbGP3f4KCnyH+FVK1OmwU1/pSu6YQwXSxkOd3Z6uK1PU/L7CNxulLLdrGcfnu3jVfWjayAcL0wqIrTlMjiSmiHpY0Ox490pU6J88z39Fq5Yo67IybFjjbUUgsdNPwT+Nn8jyXGXp+TV1mQkm2xEH4X69xu2fCMaGff6Fse0CG8PRACRU0tGiRSH1VmYPQo3opeq94Yufih3FjRESoqQNF4m96YZuO/uHD8iPNjt4dsdWSqWJBWuaSgNsXlfC0nywxsnJkU+EiYVEYQ3tdaglVpXrZ0KNC2+fM3KMLu+AQ+jHt9bK9M69my4racfmvVBXSnUya2+aLHQKmkchObvSRkoMgR2FtcVHKwtbTndclyTg5lZtQhve1XLCvjplDRZy2Edjc6N+cOGCL0pCRSQyrUzYwMohCK7GisHUrM86jYGzSOtvL89uL+jH99eQ3cyTly0QNNkhvWmKE44rZXxwgQ0mG4Ok44IjRkH725zUCIZinm5JXpJ1MZFCgLLnX0ZfHF1jI4xHNQhYt3VS6GWP5aCsmtGj72m2UIYanY8kUFCkwiVQpbftm85VpBVuLA1QiNFQCRSlZvZL8ynBOYvt1kMyMtF3weKjqBAK4A/e2aQLH+1BcjNualbHQkl4oOF7ORm2yxiniCJhET29fz2kOphjKDkw9VrAlyxPrGKZq0IU4ciYNK14oRGxgf1uscdiy3X6A7AAU01eN1sBxtyyudTMNKRJXxXtBI2nqLP+/lVEf6+mfmHtgZP8uUX+9X3pdasQaAcfZAD8nYBb53lYld+Vl8djQ2Q2yaBbKBLe393Bkv6t+zbzs3ZOHuWY7S5mR6S1a6AXJbOvACRgEUr6QxbIq3L4ODfWiy8dJQ9RH+7PkBxiJbVt1Zagzc0uzioQRktKmXaiUjTV8S+sQa3FcZGJFbSzfzPFyz8uUtTvWTNtPV5Khw1C2n0nWa7OIDv99RZrIhJgElJBOFtTXm8KlM03Yc9+roy67H6s/N7THXcTW3ynTUWvv9COKrAdXN4sMc1sUdZU+lqRXg4co7m8wTeNStPE06BUYxAba1UqnqnipQ/6RgdGfett3Hp/Ai7WhrDSxdEAbiZOSMJpJUL0uwTw5Um7j1/dogjNS/KKLCy6OHOnoQESUyQCFuGBD6VvrjWdn5Vo5IBSewhf13PLtxX1JrT2y6csq5/aPdw4XLgaRrMJB5JXLH0Nsw73CMT4ENzNf1Ncp87GpOWCMpmnDezBsdRcxWoLYssCq7UwpqjIOV8Gv3Qwd+7HHzuGZv+cLBNfdr14u7gC+un0al0dDRw5aB0Hp496nI4oD6Dgq35lGoolhqHGzNWiMwglwd7R+rtPxjzaBk+t2sG/9qqxjAH/SyexvTaGriDTYos03EzqFl3I5EaRu8+XN3RZ7qISLg1blnCrm4Mi7nhUI0vJTSxcX1tQgYRX8fK7VOr79+3sd3m770FnL+iEz/t9VFiTOPI1VT3dZJfZNPzqLV+cU2Ec+bbZvncyYKdYoKv2zsi/EyjvFRvVigdmswrZEbRa9YJoDMPzMjEeHd9ZOYyGu0Itn/wpV20TiPTkpggUVsRX1aMi+dv1MAr+yN8crkmzlLMouyNNGnAvwHaePJ/LWwYdUuvIAI+2Rfhn739WFcK0BXQbaL7oBZ2xQD70G+W8G9tbv3hnl5c3l6C4zfSmmQMYfU8cuvOabOxf9PG7MwvugJc26E1HzQxgY5y0ec6OChTwsd3Gf0AqKf6Svh/HQU8rm5DtHRy9ZQITzJ+SZHrJzd3vyYLZ7fYxipNJuw0M90tKQT43roQy1mhmtNIvrqGVKo/u6CsijSPpg9podZ5dXMtjmjKIr8FQbpqdR9uKpIEAZkUU+PrcJZ3zwReN2QNvR+uJCl7KTDcb8t+kARmwQ2S4o0tOZw8c2IapUaCR0v5X8+vwhrN+hfXkghZ+LSsrDLskffw2QWD70/Tr5yz3GN9Zg0RFIdIGKQQvrRXtNm5hyQ2j/cG+HV7gCdKdCcp2JJtTbBmFAUJKJevPNW8JuR+4yzgpPqNc0VNJoz8pJMMi2tdfG5BBsfzjWXjIgVQq0h6dCtK/FsaCGQlpKv5WFd22/jQclqSdR7WFIc39QoOHyz4poHKtF2kKkFdKw7SSntD8ObWEDlaJM05JIugTItLMVIa8oaOGO0UrB2Jm9d3oT1IZuhONLFIGrNufJw2Y9NXrelX9kzjAy0IYkjAR9BTPFAYXljVReKGzgDnLQtw6fIYDxezdOMyVCCyBIqhtHxuEkcp9ZwPA+zt+Lh4AfB6WurJSALB+TyRfp70kLuzf10Ge/NtPV8ooY9S7/MleCwx/e1QhVrQombP8uVrVufnSj5u7/TxHF+eBKMpa9GFSYTiib4Yt1CrKfiw4iwFIWl02s/STG8b3aIyNGOFpjx5gI5untdPtJ+CZa2s76CHhHvFBE4JX4kNfM6rVhUYdyT1ocWuNMTVo5tzQp2PI1qGH+ba7/v4BwMFBe1KVZua4V+deygFV9AEwk92F3HD2j78sL2I+/s8dBVLfB8xshlpeCogR3VPBUELrMA/QyVTTxK8gVb1nQvyaJxkM9sNxU41CXAlfLoBt64v4tfdMTrM9O9JRUuvaYaEnKwGhVSLAoociNQfX+JRwt70gl5KC6P5ff7WJ2uRmHC1Hss1entziBNnDR+cKjf+KQrcesYM8q2VGxc0S4U+nz0vixc1jM8EA5vDD5/rwAN0Ufq0sr9RBKwJ3aDbi6/Pb0YdBXU4rCR5P/MCHT2lqCkJioGUw4pp5t4/y2IAHOGxntgE0XIBjQuqmqJmz2bytB4RCp5PR5ExAQkoaMaN4xgQnzjLRctOsrTUTkuEMjRD9XUbNMltknlRRikf9aFGK2fzJXmabY1mO2nMonDQtZEL5FJQXMYXmqVCrkFMn1bugUciXLxYPSHN5YfFE/39uHhtwZCr1tPEwTzfjLQK0MRg81IGmjUjCN544N7OEn62gkJKMposEJ/B9JZ1fZxOv/xozVK8GZy7xMeKgELMesiwSKebIarGSmycf0OqRjPimcZFKhiLFtLj/tCXa5rU8D41Ft4+I49dhswkPtmx0xOhDLWk/qnDw+09PnoHXl0KBdgW3ScKiD7rj1nkQ4VEMAGv6Qlp2ljx5jZgd2q0XSk/udTSDMWV7f24uddF3s+YmAKMVRQ3iHgn5Et417yNk+2OJzr9EOe9QOH39BwMmBWwqBGS7sxCu4DP71o3rF/e5wd4nu7UsyULd/RoYURaMZ5vGvr0gTWh+lCwLZdHUE1kYvV61Ygy1ZW2BVQ+Hl6Z9XHcjDrsUT9+M42MJ6YMEcooMUC7g2T4f6UMllHIZxQDM5eosQpGUybHyQqIEUp/KvujWa21zQmVPdLaxprm3cNit4Q98zYW5bKYSzM/J2eblKamajl/GdDO65nz+Ffjis216TCcPT/CS+o3pirHC1cs8/E3mQH9ton2I2j6liyF+PO7ulCiaL2fLCS4uhBieSlg3BRgTaBJedX3SPJPEWegWw6yk6dIGjFlEeQuptUFLdOuz5rMl8ofr63tx2uaXNNhcmfGlCNCGXqsh/pj3NUZ0se10MuXrhdLpW1etkihN2vmK5K5pyyYFmO1+hASEh1vejAbQUkGz0tjtlF4JGC91LpPpV2XlXoUGVQkXBpq+uUFDBjHsdHobx0hfriKwmwn3SUSHiaTiTXxHtqyMZb7rrnPSFvNMcnrVviQgB9YKQMk4F+zTUTg8XJ44tQ9Uo1ojlhNFKyx24c1bn07x2TFlCVCJbRg99/7AtzLwO/R3pzJ8xh54DvUIBczgFzCztedLCGVTLM4IBhGOCgGPD4gY9S1wrhYRngGJIqfk7ShLlyiIC7OhVicKaKWbleOLlOOLkstCVYWHg231LH6Vt6mlC6Vt4HPz5r1T/G4liPTeOp+avtebu+OMnik34IXJNZgEBEM0yn8PDaTcRDSSmpqBItPW+52LbIKchHLlswgtSpJnZSvCcxl8HBIvY2DG1zMnkTTuY8VpgURKqF+NDd1WPhVRyL6bpy0I/CTcQE8l4EgqaJJajUbtQGFRwIhn3mACDzKofWQZpUQmm4MhIggYYtiUozCpgE1ZvJfQyQeuDW1nR4rWSy7dKkcc2No2j6yJELZwhkRHrgPEVOf9MvpyfxkkUDaXGJgo7+yZBthTuDv6RzVSYRF+Qinz85h4QRN97KjMO2IINzRGeDbG9TpjS4MiaDepMogBZZjsi4SINPSyqrR0rTqU5RM9MWTU0ksu1FylbRPK0wqWDbjnNVxz/QypSg56ockQSQRWIYHt5vr6gc2hZR0ItQJIn4xlovXTSxQmahmt7mKeneKDIlTo30aakrwq55DU9aY8R7mfFEg6bqi+9AzySI6sYdd8zE+tXhiAv8diWlJhP9bW8Lv+zSZmGUa3iRksZXBe1qAmXRjlveFWNavKVAcdFH7S7MnGl+l7EsrBSu3ItknImi//qgPlLJPBnaJwpasO6x+OCbtyN9Vb1aLEmk0uSTXEEGimEpzCtFH103IkAitzhERjPbnNkMC7jLpTv6Vy2aIQItRvldjpXiuOpZK9jXT9255H3tnLeymKeQZ05y7tAQPWXMHWlBR3VXyjJ++uHfTpOklOl6YlkS4YLmPJfSDJCDSfL6TQScF4sq22Cw7W4ZqRtmWFZSuZ3qTuYFW0FL0SZi431gIQsKn9gcJnTJU0sSJsEpz05qovz9/xxIJGCe4dJtyPEFrnCsYN9fhzehvoMA3uSzFWlZJ7R60WLy2tLcRaHNtdfhLfluWxs47KDBwL0mzuxmT09f9CLNZdqVAL8g6mJu3sQuFfh6D/aGNvV98vhdPBFq63EVtoH5bdBN53qcX12J2zY5pMZ8oTDsiMIbEyY/1oKm+hiRIRp0VnSwKNTZ+OVtaW1K5eRSoLdd7Idb5LCX9VXoSWEV/oztiMG4EOyGCxyBY3XAkyKrqUsCYhAfUBw51rzI+3G6OFxFESp7H77qvMiWMneB3WSC5Qkaz8zzFHjpfW+baRSyuy6GV5zbRys2vzWNmxkYry2h7xV6zoh830lIqFkqI4JnA+4zZGRwwQheNqYJpR4TVpQAfWesyGA4ZFyRukTqM7dbk4rOt6UHbgZ+9EOHmPrkmibbvpy+u3gvS0PLDj6qJUS8Rp+WQdpenXxx4BYwzaEFcSn1Wks/j8q6at9ToFaBAa6S4RL061aW5RCKQT3hZrohz5+iqoxP4kXDvhgBXrlP7QjIxsFEUtovXNcR43byRp4ycCph2RHikP8anlxQxI58ZsAjSqYc3Z3C61Ol2wqMTfukSCysptEZrs5iGZwqWXKP96118Yjbdoq3wuW/p9PHjdmpn+f66KO9XBFMQP8MN8YV5OTSMQZeOJxkbfXktiUAXy437NcSepMzigFyE9y2e+P5TEwnV6rTC6r4Saus2mnkTuFKTLhijmsjSFfrgfDovmdBkoLRsbG2QtG4rHnm0P8I1oxzeKTxXCHDNGh2voDgpcp3kfmVoTz7W6o4JCQTNzKeReqoTE4DztxgyY6Vm+5vimHZE6KR/LytQLmW9PGsM37UC0vdqJX4Gug48alUfjpPEH1oj+gYS4a6uYZb2H4IOxiH/u7xoEpvlhj0FsnKNtP7YaS0Wdh/DIHYmY4li1zotkQwnmzG/I4u2irU0kXOj7ghMOyJ0BHJUhHJuJglWZ2n+ljHEYYw5Xl9H0llF+G4BpQwF2tYgHga8QQ1+tCaLZ+T0jwCNv/72Sg8bIjkoCQnUH8iMOOP3w2tDHNc8tn67iPrSxloEcQDfTxoBZdW0FENXudqmKKYdEdb7yq8rOOIbZtFAfOXbZ5gBy2OLU2a72CcvXz7J7wt2lKzOGcQOvrFCY6E3JYO07xXrPDzrqdEvyRLpVSldKg09O+fjtLbxaeRqtZI+RoLcMDllmrBmww5czWYiMO2IsC7MmtZfV5JJIngUyMbQ36qB96OFGqHeP7cBjW4tCZCnK5Z0hxD0a8XAxveWBsYFKkO5i6/1+rhXznoq/CqyYGoJdjMxzprrjGp9522BJu4IxQRaoHIeRd2pqkSYQtCQwx4Koxq8BP1RaS5L5zigwbXxmVkuGlPXRn2P1EVCfYU0xcnayMUVS0IzwEj4v24fN/dyP6XfBKwV1qQm9PDJmQHmZ8cmOB4ODYZgCsqT2jFc4MfuKhGmDpJ3mQic0vRl+a8fJ+1ahsYxfGwOXTFGoVouSSt0grFDYHvozwZ4mqT42goPf1jv45Z1Idr6kgyTWqXVHVzukWba08wa4z3GQSPrkhoS1JcpaQxUL9ipjGlFBPWzGQTjcihXnvwdT+xe5+DsNp+GoH8g/ZnMdpc0jj3BDdd2qDepbTr8aQYIM9cSCSFSHN8Y4/DW8W/ddXg/Riw0pNXkqxKlMcUNwnS0CAmMd5J+nwgiCAc2ZvBvMzPoL2mcQR2JqeGRyZhndadQn6JyoJolCWrpLtWwvCoX4c1zJqZBS8MiyvdQCU1aMJUxbYlQiYmckvzImTU4ZU6t6XaRBMHJS0gG+CRduZMxBWrviLBfPsJ7F0zMOtNCOj7I3NsAIVhvYflmpyimFRFG0mnjsSbA5nBqM3B4XVr5lnqRqvO1svYyDclSq5o2ZW5tgPcvzI56+sqxgOZT9kVIxiaSfd2jiUoU7E9hTCsi1FALmyGKyoiksqWvnnrATSCkaRvpDzn0wdWGodmxk8BdliCBBgT1008vcN9Eoi9MUrkiQeUvM8SZ0phWRKjj0/rqBmo0XhG2XaC2K1ALThwRlML9xlofN3fG0DTtGh2nuZiSQTTJeANBAfVyCuUXXujBC8M0uo0XNDuHiBrrfngr+iyvbBKs5TGumFZEUBeCGcYVSTqvyRlRdwXl8icCfQxSvrIixAM9rPjUGzN/0zaGpGjNBNe0Hagb9waq5q+tLOHJCVpit8dJ2lksBulKJiQxS0yLMLHu40RjWhFBWCgnWIIXZRkb5FG08lhtNxkhHU+sLoW4ZEWEp/ot06ot10NuWsmMK9AaCRozTRLEGWrjvNkvIijF2mPX4ZvtGfxydZg0cI0jOnhvOf5GnjegYacamBO4IeomRlfsMEw7IszS+EhBAsUiP1g5/dXjqHAf7C7hwhUeltMDUz8jFUFaXy6Q3I/ZWQtvbWPILI7yu16NrIXaPvp9rRkHXNPp4MurYKanGQ+oS8Xy3n7k+dt5ElCWIdZ0N7aHlioRphZm1VpGAPWS1edI+Xq1nD5XTAkyhlA8cA21+HdXuLBLWdR5CQnkcpRFWS9AHfMuWJDBiS02zl4Qws4wfuEBWmwvI0KQrorvJYt3kBHnL4+xdBzudw2tpeerU6AC+CRe0dT3DZaPmZN8NuvtxbQjwnyljlJI8ZYr4PHC2GrZF4oRPr3Cwu+1sqWlWfCSOZDK0G/r68uaLHx8PkmSJvAPqHVw0RwXszWWwRxPEtCK2RrPwJttzGWwikw+b7WD69ZHY5r6fYqWK8N7dekmWiHrSUTgnS4ie3f08q/jjWlHhD1qsrQAHiJKWZqgMX73w14GhbBCUrcRWhLq+nbg4mUMwvsTN8cM12TRZ5ORYZHGf9MMGx9uzVD4BgvZLvkMPr2gEbvSXbIcH7EK3ROHhMjy+jX0VrK0Lr9ut3H5sn6s0DR4Y4CHOzUvk40sb9CsZKqgnbZr38wU94uIaUeEetfBorxFwQpMrt6oZpYiy11d2xcoPN3n4YJlFq7qTFqxzXprqcJWYGwG3NuOWeP4nNkRTm2mvh1B087Iujh3QT2OrJE4FnmcOup5JFCyQo+shcj1CK//mVVF/GxdgP7tiB1W9Ad43nT9JqghpBI8MjcMIryotjpUc0rikDotshfRKtAXp4BZEjAE+F13iJ6BEWyjx6qihytX9uCLK0Ks8WJo1SlNn66hmnleTi6R5ivqcy1oVpTzF9l4ceOWe5FqZZ/T5zTj3S1ZBq8lQwR1v/DdEJryVDN2l3jdEsn0p+4IFzwf40Zao60NphUk/7bTQrG8lgT5oNkxNC5hJiVk1/zUJ8K0nOCrl+r6U0t99FGo1KorfaD0pT6/gpJ75tz8qLo1LOkv4ZbOHvytEKGoTnSWOtBp7qGkgUzXDRnumrmK6N68uh7411Z3m1aUXFIs4ftr+rCqVGNSqkq7yiKYaRv5W3m9xjhLy2YzuAXeyN86vDGkZUm1/GZwY0eE367nxUhaY2l4KQ3PDHndU1tLOGkCer3uaExLIgi/WMWXX1AwKM9I07pIgJPuz7vnY5wyx8EC+TAVUFVpfYEn+kPcU/Dpm2udNi2eJFdCa7BlKUuu8bY0ZaLI1U0/v8mN8ZEZAQPh7RtLoHHMv1nr4cZu20xWrEE7iJJeqY7Ty//5AHEeVuQaPz/LWGjfmiJeUpfFbgyyd8knC6iXsdoL8eceC39Zp6yUS+soV45Whtaml/fdbIX46nwLtVM8YyRMWyKoAe28JRZ69IVaVcGrmfhWitxochttVIRz8hogE2MthewFpReVVvQD4+4kq1ZK+EiiMMtgmA6WBtKQEsq2iGCvagjwztbcmA7+ebrXx/c3lLA0ysAKcrxTwk1dPAq0mfGCwW7Sgq6W4QwCxdMMMxblA95LgNUU8m4ek/FITj+mK7fRcmjejAJjlA/MDPEaLbQwDTBtiSA82OnjO+s0/1AylliCm4mLxr1x/UaT5VFArbXIfApOFPnI2zmzdIAm8dVKnkUKuCxBRiPcCWUd+xiIt5ApH22zsO92WoGRoPEB13fTQtCl0Vol2fQtah03Cb9txcbKiRiOSVdppyiueKUEP8fn4jWcwDLtKCKzwnJZNy1GuAeVwHm7aNWgChMyhTGtiSBct6aA3/aoiwPdGwqRgwK0iHnGazTkiByPFoFCwyIkC2vYyDFa1eiy3iyJoO8kgqxJYy7Ga9sCHN2UMa7GeKObVurGtT7u7s6hn7+neMSMZ+DNq+EuQ2bqvhz6/2YgkiG3Z1wrMUPb9JxhqFZtzXvqYi5J/xkG9A2ZsbNikx3TngjCH9b4+E1XBlpIXJkZjQ1w6eokgpNoWClVaUvpVM1NpFy+PvekCZXFFLTXtgIHtcQTOn6gDBHi5g4bt3bRv+fPq61C9yzBl81SI5lajHO8T3Wk06KD+mtAIifDRl3MZ8hx7uwITdOIBEKVCCme7I5w9Wobq+j3m9SqEaZEYxqhMh0cJFRp14yAZOCx+zcW8cpGF3s3yAJI8nYslDp9hC7TnWTDYx6dPePzkcLcrrgmp558hJ5R/ZxMjEPk+Pd4xgMnzqA13AFE3tGoEqEC8pkf64rx174QD6mjG+VBciTxj2IKCD/vxphhr7yF3WsdvKQ2ntSL6XXSSjxRjPF00cIzBRvraMXKXZREbo3P2JWxwEvrIryyYfxn85jMqBJhM1DjmtZcEyQk9VMgjWgWK+QzyX0bj0nNdlZUiVBFFcT0tYVVVFGBKhGqqIKoEqGKKogqEaqogqgSoYoqiCoRqqiCqBKhiiqIKhGqqIKoNqhVMSYoFAq47777kMvl8MpXvhK2Bg3tRBgzIrS3t2Pp0qXpt43IZrNobGzEggUL4IzResBTEY888gh8f/DkAfvttx/y+Xz6bVNUntPa2opFixaZzxONUqmEAw44AE8++aT5fsopp+Caa64xn3caiAhjge9+97si1IiFLzQ+4ogj4iuuuCL2PC89q4oy5s2bz3pSF7+N5cILP5vuHR7z5/McrTbL8u///u9xFEXpnonF448/bt5xudTV1aV7dh5MmP0qFou44447cOaZZ+Lggw/G2rVr0z07Py655BKc+ra34cwPfCDdMjb47//+bzz//PPptx2Dcz5+Dp/tVHz6vPPMmO3hIGvf0tKSfgMOPPDA9NNOhIQP248tWYSh5Q1veEN65s6NDRs2xPSLpVHi+fPmpVu3HsNZBJV/+Zd/SY/YFONtEZ5++unYtpLJ6l/x8pdv9vp0i+LLL7/cyIHqZGfDuFkEvhijQTo7O/HAAw/gve99b7onwXXXXYdly5al38YHfX194EtBR0dHumXs8fOf/9z4yBreQsndDuhsXWVw+eUvf4k//vGP/DwCdNoof1hWuVwfYbogyObwk5/8BFEc8S6iLf7EXnvthY997GPmvVdah50F4+4aNTU14WUvexl+8IMf4Jhjjkm3JhBBhsPKlSvxqU99Ci95yUtMoK1MhMzv2+h+/OlPf0qP2hQKHH/2s5/hLW95C+bOnYv6+nrMnDkTM2bMQHNzM2iFcPPNN6dHDw8R9wtf+AIOP/xwE4C6rmuupWeQW3fPPfekRwJ/+9vf8OUvfzn9BiNgusdy+cA2ukr77LNP+inBJz7xCQRmGoqth55XSmi33XZDbW3tQH2obhiz4Uc/+tGwLo/qmdo9/QY899xzOPXUUwee7bwhrtIrXvGKgfK6173ObBPZjj322IHthxxyiMkuDYdvfOMbg64hElZCyuZb3/oWjj76aPNelHhpa2sz1//Od75j9m8XZBbGAkNdI5nqoTjnnHMGHfPjH/843bMR119/fcyXNOi4oeWMM86IKRjpGRvx+c9/ftjjhxYKenrGYFDI41mzZg17TrkccMAB5tjPfOYzsW3LfRn+OJV5W+Eq6djyebq//fbbb9C1KCjpkRthXKN0/3CuEa3uoGuMVCjYg8593/veN+xxleXlQ1ylyn2Vzz30Wtdcc026ZzBe9KIXDRyjel26dGm6J47pOcRUioOuM7Tovei4bcWEEuGEE04YdMztt9+e7knw8MMPxzU1NYOO2X333eMjjzwybmhoGLT9ggsuSM/aiNWrV8fUegPH0BqZCtbfynOp5Y3/W4lnn302pkkfdNxwhRbAHC9BGG5/ZdlWIlx44YUxNXlsWWb6AFN0b2vXrk2PTrAlIkhZ7LvvvgPHqG5VH8OR/dprr03PGnwvI5XREuGuu+4atO+UU05J92zEY489NuiY448/Pt0Tx/39/UbIK/fTqsVHHXVUvMsuuwzarnsaTkGOBhNChOXLl8ef/exnB73YRYsWxTRn6REJXvOa1wy6xsUXX5zuieP29nbz8OV9eqlDBUOQoF566aUxTXm6JY5pjk1wXnntr3zlK+neBO94xzsG7afZjb/61a/Gd9xxR3zLLbeY+6fLEtNtM8crZXj//feb4yrP0bZyEbFHi0rhO/vss82217/+9QPbVD74wQ+a7WVsiQjCr3/96/jjH/94TDc03RKb4+jaDLr2O9/5zoHzdd+6/8r3JULdd999A8+m569E5bWGKoBKMkpR9fb2pnsSfO5znxt0/tVXX53uieOvf/3rg/bRFYq7u7vNPrpeRmlU7q88d2swbkSgb2+EfaiGV8lkMsZsV+KFF14YVPH0aTdh99133z3oOsO5ViPhpptuGnTuRz7ykXRPHDOojrNZM0XWQJFGHg0qBXioAGwNKq/zH//xH2abMjGV90W/OH7ooYfMPoFx08C+kYgwEqRYKuv7sMMO2+T8yv1DLcBQlI9TGVoPl1122aD9Q92jSrdI1luKq4yXvvSlg8595JFH0j0JGBfGc+bMGdgvN29bMG7BMllrWppp2tItCajF8Nvf/hbUdumWBBTyQcEXzTd+9atf4Re/+MVAeeqpp9K9CaiV0k+bQkHvgw8+iN/85jfmXLph6Z4EyqCUoaDd89Kp6og999wTr371q9NvE49yYKxMzFlnnWU+Cwo+aS3Sb9hsq/NQ6D384x//MNk61YfqpRKV9THWeM973mOSDmXo98vQPVW+R1omUHmaz7QcpvW8DPVS+Oc//zkgDyq0eIOyVJuTic0i4cP2Y6hFGK5Io0nLDQfloIc7Z3PlAx/4QHp2giVLlhj3oVJDjFQqXTeZ08p9W9PGMR4WofLe5AbMnTt3YJ9KWaNWBpDDWQQqA+PSkdiDzh+uDKfxx8oiCCeddNLA/kr3aKhbJPerDMVxlftGU+QubgvGzSKU+5vQF0+3JBpNuWb+brplI0ZKq20Oldf561//avq7KJXGoDndmkDpV6VhR8LQ31Z6cbKgoaEBjJXSbwnOOeccqI1E6dCRoDpQGlLnUqDSrQnUIU5p1ImEUrgklvms+r7++uvN50rr8OIXv9jccxnbKxNbg3EjAv0+QwYGaib/XIYq4Pvf/376bSOGCqpMpIi0uUItmB4N0OdHV1dX+g047rjjcNddd5ltMvtD89KVUE69EuvXr08/TQ6cccYZOOigg9JvAOMp0/1ic0RQt49nnnkm/ZZ0g1Djnwgi10udJMuCORFQG47y/2XIRZObU+nKDG10HSoTal8ZKgNDCz2T9OithMzCWGCoaySTV8aqVavi5ubmgX3qlMWXlO5NoPaDyvNPO+20dM+WoWC30ozr+tpWiR/96EeDrl/pfqj9oHLfrrvuajISo8F4u0ZlKHtV2W5RToVWnlPpulTuUxmanFCqeUuuz1i6RsJHP/rRgWP23ntvk7krf1cCRfdUCWUVK9PhJNKo38vWYtxblgX67Lj00kvTb0nXh9NPPx2s2HQLTEtupYaT9lIgNRzkYlW2SsuE8lnSb4n2G6otb7jhhvTTplAnsXKAJqijmwL6oVDr5dDW8MqAVZZEzzYeUP1UWlYFv5sLDIe6FQq8K3Httdemn0ZG5bOptb8cxG8rZNnKUOKjMoGh5IkSJJVQcHzUUUel35Ku/l/72tfSb5viscce2yZ3yiDhw/ZjcxZBEJMPPfTQQcfwodK9CZTvrtyvvLxaWZX6vPPOO02jj46RxpGGKkPXrrQ40pyMFUywddttt5lGnMrrqgzVujTLg/bLqnzyk5+Mf/rTnxpronSrgtah5w1t+zj44INNWwZdF2PVaP7TIzePLVkEQSlm3Vfl71WeU6mxjznmmEH73/Wud8WPPvpo/OCDD8YXXXTRJmnt4TQ+ffZBx9DdNHl9pUPf/va3x2vWrEmPHJ1FEPQ75ePUWbH8+Xe/+116xGD8+c9/HjhGRQkXpZclC/fee6/xJCQj5euuWLEiPXPrMGFEENRQIxNYPkZmrzKLRDbHDJYGXWekUkkE4cwzzxz2uHJRm0ZlNmmosKkCZXorzxmuDD1vS9kyNT6NBqMhgjBSN5KhRLjyyisHuTZDiwhVKejDEWFoRmdoUUNpGZXbN0cEdRWpPFZl9uzZmx2jcu65525yzkhlW4kwIa5RGfvvvz8+/OEPp98S860cs1wdQe7JLbfcYtymzY1mU066MrsgfPGLXzRDBIeDAve//OUv5rojgS8PtB4mc7E5VLpQgsz98ccfn34bf6gz4uLFi9NvI0OBJ61A+m0w5IIoWKWgp1uGBy3iJvW8vXjHO96xSfuHZIAKMv22KWiBoE556ji5OUi+NpdA2BzGbKimMgAaeFMGNYwpQ9HT04Orr746/ZbgpJNOMg1tlVBvR2WYaM4HulGrt6FSpG9605tALWK2VUKNYup9euuttxqS6YXLtz755JNN5VODDaTt9t13X9P7cigUt6jHpohD7WKuqXSjUqryV9/61rduQlIRWQ07Ok/3KrIoLjryyCNNw5zSt1uCslpl/3akeyuDVsY0FlZiuHP0avW8Enp1v1ZPYL0TZfOUPlXMc9VVV5ljldFRr92h0DGK1+TPq5GUlsS8K/UCVW/icl1873vfM38FCeNIJBQUf9GtSr8BJ554oonrtgT9/u9//3vT61fnq951P8omqceriLCtqA7er6IKYkJdoyqqmKyoEqGKKogqEaqogqgSoYoqiCoRqqiCqBKhiiqIKhGqqIKoEqGKKogqEaqogqgSoYoqiCoRqqiCqBKhiioA/H9wwk64c8U7VQAAAABJRU5ErkJggg==;" vertex="1" parent="1">
          <mxGeometry x="660" y="109.99999999999997" width="74" height="64.85" as="geometry" />
        </mxCell>
        <mxCell id="CZz01ztnTcE0DwjemcIG-13" value="" style="dashed=0;outlineConnect=0;html=1;align=center;labelPosition=center;verticalLabelPosition=bottom;verticalAlign=top;shape=mxgraph.weblogos.github" vertex="1" parent="1">
          <mxGeometry x="111.10000000000001" y="240" width="61.3" height="60" as="geometry" />
        </mxCell>
        <mxCell id="CZz01ztnTcE0DwjemcIG-14" value="" style="image;sketch=0;aspect=fixed;html=1;points=[];align=center;fontSize=12;image=img/lib/mscae/Azure_Pipelines.svg;" vertex="1" parent="1">
          <mxGeometry x="190" y="200" width="50" height="50" as="geometry" />
        </mxCell>
        <mxCell id="CZz01ztnTcE0DwjemcIG-15" value="" style="shape=image;html=1;verticalAlign=top;verticalLabelPosition=bottom;labelBackgroundColor=#ffffff;imageAspect=0;aspect=fixed;image=https://cdn1.iconfinder.com/data/icons/KDE_Crystal_Diamond_2.5_Classical_Mod/128x128/apps/debian.png" vertex="1" parent="1">
          <mxGeometry x="250" y="140" width="70" height="70" as="geometry" />
        </mxCell>
        <mxCell id="CZz01ztnTcE0DwjemcIG-16" value="DEVOPS" style="text;html=1;strokeColor=none;fillColor=none;align=center;verticalAlign=middle;whiteSpace=wrap;rounded=0;rotation=-35;fontStyle=1;fontSize=23;" vertex="1" parent="1">
          <mxGeometry x="160" y="160" width="60" height="30" as="geometry" />
        </mxCell>
        <mxCell id="CZz01ztnTcE0DwjemcIG-18" value="" style="shape=image;verticalLabelPosition=bottom;labelBackgroundColor=default;verticalAlign=top;aspect=fixed;imageAspect=0;image=data:image/png,iVBORw0KGgoAAAANSUhEUgAAAS8AAAFTCAYAAABoPopiAAAAAXNSR0IArs4c6QAAAARnQU1BAACxjwv8YQUAAAAJcEhZcwAADsMAAA7DAcdvqGQAALGcSURBVHhe7f1nkyRJdt6PPqlL65ajZ3Z2VsxqvVitAewCJEAQlPa3S16j0Sjf8APcr3D5gkZeM2oSNAIgARCEWACrZnZnZ7Uarad1V1WXTh2Rec/PI09VVHZWd1VPtaiqeKq9I9LD5XH3J87x8PDIdQ3KkCFDhgOGfO+YIUOGDAcKGXllyJDhQCIjrwwZMhxIZOSVIUOGA4mMvDJkyHAgkZFXhgwZDiQy8sqQIcOBREZeGTJkOJDIyCtDhgwHEhl5ZciQ4UAiI68MGTIcSGTklSFDhgOJI/tidrrauVyudzYYhE2HCb97545u8Eh8r51ahgwZ9gOHnryonlcxIaAtasHXrqqjePNat2O+xkR2FsLgnzP9NBCWBSFs3v5yXfPscJ3gHXVysf3sqKCSXS2GuBkyZLh5OPTk1ekYw/SwSV7wk7kOP/Ndo6Mo/HXsQg5iIkxAEjcQmf3DnyQK3aJFg7wstHlAf518jDQDceWNwjJkyHBzcTTJy4CCFRvZRLlIG511VZsbqrfrRmRGQg7TwJgUnJmcNkrir2CubK5kBFZQPjaXhEyStR9kkeSQIUOGm4kjYTY6IDJ+Mj8VF3Jai9d1pXFFi/V5LdcWtd5YV5wmu56bHJ3UxPCERoqjmh2b00TRzu1vWJUkPYtiClxCWrDZJqNlyJDhZuEIzXmZcderasc0rvPNeZ1fu6Bzq2e12Jo37WstzFmZKhbCgkBGHC38cGlYE5VJzQ0f08zorOYqszqZP6bhoVEVO6aBmQtWJtNdV5FXv4g95QSUL9EKM2TIsFscEfKCVcxENNKIzfRrmpr0w0tP6ZXFF3Ru+WXFw1V1hzph/ipv5NUvkG4+UilfDJpXOa5opDQWyOuRyTeZJjarycKEGZNli2vMZRzWNbIDCR2lU9ukw23HjLwyZNg7jsCcl1WPGuZiI62i5htdPX1pQU+ee1pR+YppSgtGOFeUCxPunaBl5fLbVafgF07CTzvkVOqUdbJ8j06MHtc9E3fr1PBJjZspGQjQwrhLJv9xyS9PJBH71u80MiLLkOH6OPTkxRwW5iJPFuv5gp4+X9XPzy3obNPMxNKSkddl5UqXlCtUjV9aRhwQGE8ctwB59aNgfyOFUQ11KpqtzOjkyEmdGD+pY8MzGjUSY1LfdDFLx1LiyWQgpK1U0+TlTeCklZFXhgzXx6EmL6oWdWPjjkIwGV9bjvST167ohYW6GuWiOsVV5QJ5XTC3ZAS2blpX0yjneuTF/JmZokYy5W5Rw90hTZbGw1zYveP36oQR2WhhLGhirPrKxZiiVxNYcr71OyOvDBl2j0NPXu1uZORVVL2b08/O1vST19d1rlqUKkV1CzVToZaUL5038po3t6B8YdlMPyMck4pTSEJeW2JiTgvy6uQ7KuYKqlj6ZdPESubGuzM6Xjmlk5MndNf4XRrLJU8lC92Spemmo4Pzrd8ZeWXIsHswmg4tIIGckRbTXmuNti6vVLXaKiguTxrxlIyEhoyS7LxzXMJ1x8IyikBVfgzn3W0OFApGVjlLw8zSVtQykmyrnWvrSmdRrzRe1rNLz+rp+af1+trrWo6We9S3W1LynDNkyLATDv+EfdRRVMjr6UttfevFBV2MRtQojRmxNewqrwWZQWnnuXwtaGD58qumfa0kfmqFebDEiEwRj53m8snv8CTTXMG0NbyKxYIJtaBix8zJ3KjGSxNhXdgHTr3HNLBh084q9jccFrmiiUGuRomBaEN6dghJc2IZZVpYhgyDcQTIS2rZ+H/i5Za+c3ZFK8URNU1rKhhpgYQiEISRRuGKCuXXzXw8q1xh1TzWTcVaDZPzaQRC4V9wxE7iJ4TWsUtd5fOsvjdnZmXJiOztY2/S3NAxzZibLM4ZfbE+rGgklk+RV5IWTywTZOSVIcNOONRmI4CZW6Yc1drt8OIPTxITTQpiKdpvc0qOwWyMTpg7qU48a+bmmFFRMTyp3DQZe9NWAzmFOa1uyVzFlLGCxY8Vd2pqdVf1ytLzemH+WT1z4RmdWzuv5XhddVmZSJcEgxbWW+wa5sYOfdNkyPCGcOhHSGxcULdjvdMOC+DRjpJVWz2ScKLg2Bkx0jpm5HVa3fZpqX1KiubsWinE6NeC+n8HJRa2dPSUWpKulZqa71zRmfo5PW9E9szCUzrbOqOV/KqqhbrqhaaZt7FMGVMnnzwQIL20y5AhwxYOvdlYs9rNN6VvPrugF5e7apUnxCwWJJPvLUYNJh8uqFSxERzLJsxsZAGrmZBFMyXzBTMhjazSJLZFXjwY6J2RRHDJYtUkgmVnvwudvJmQJQ13hsJxemhOp6fu1Vh5XBPlSY3nxlXRkP2VTAPbnhdIfEgrHDbR9zNDhiOBZPQeYsRGKm1zjSi2Qd8jrUADaF49F+a0eg6zr2PmYzxtGthxc6Z9dcZN8yknYUnD2CLhlB5jBeBhv3OR5dM2x5waWp6Zj0ZGUa6kViEXNKyN4qoaw6u6HJ3VT87/WM9deVZna6/rQnROi5o3Y7Jl8TtmrrJJD38JOAZn/22e91yGDEcNh17zWu90Nd/O6U9+cl4XGsNqF0bMN2+EAlkZUrVHV+Lpn3JN46iGHeumgTWUL7+iXOmcHRdNA6tZ9KqRV9tCG9HB/92icsxVqah8sWUcaC6kB3n5GWGTM2bdeKTI00bmuFjIOlEc0ezIpGbGp/SmwqMa02RYpe8b8WxbI+ZqnoH08O1d2cROzdpv6mbIcFDBiDjUQMviIWA3kFI+bF8Thjtj+6rx7Z4WzgiJiXd1RoMG1ulN4qszkfiThpmYm8st8skx8UuQ6Ew4Ztt670fia+ST0JppVvlInQJ7im3oYu2SXl56Rc+sPqVX6y9roXNZG911tbpNdbpocrwnEBnhGfVakgU2Q7RkknQzZDhaOPTkBZLBbZQFeZlGsrUUYTsC1RixJE//3ISsGHFNGYEdM+7gSaQRWDxh6bDA1SiIoJATxJU3jctMvWuBnMMjAytHzuLhiBMb+dXNXFyNqnp142W9vPGczjVe03zzklaiZTVUU2yaYJe1Zzw37bcdM2Q4YjgS5LUXJDoRYuGxH0seTMuKJtVtzSlunFCnedJ+Hzf+MEILGljZyKcQSCyoQSkmwURLHAtYk3P7L7iw/IJs8uyKH4UV+q1uS01za4UVXeqc1yvrLxqJvaDz7de1qMta66yonqupbWZtIEuIr5flIbf+M2S4CkeAvFJkwl8gEScWMypTLgHhITAjJCMwJuo7poF1OiOKowlzs2Y+mhkZz9i1EXPDFn7IzMaKcZhpapvpXAOm3bEcIjbiahe6ilgagdlpNFbsolXFasZ1rcbLOlN9Vc+vPqMX1p/Xudq8FqNVrXUbRmJxb/1ZuoZbYFrMHQgHC5shw2HBESCvLfSUnuQ8OWxHuJhcYbAnWhiulBBVZ8ZMyDlFrROKW6wFO2WBJiwKJiTaFyYgFMnC14I5Ztz4M4RrieOTH5h+mJs8UcQ504TfdiUyYqubsbiR39BCZ16v1V7Vi9UX9NL6S2ZOntNyd1nVfMMIsG3x0MJI09KxuJsuzWDmEt/k/8RlyHBwceifNlY7XS1EOf3Rjy5qPh5Xo1NUqVhSO+a1nKspLJFGv0g8nBmUhZopV+tmVS6pUJpXceSCipVl89uQCmtmBfLkEQ3MUjciwhEvF0zKJGVPPTE1jdzMI7jgR/jknsLv8PTTwNeKyrmyRjWumcKcTlZOaaZyTMeLM5rMj6qQ42lm733JEMP+DydQ5JZWGWb0Ql4h9eAbzNkMGQ4YjoDm1WOFQCS8c2inODQk80+7wbDhbppNsnbLtCVMSF4bak+r3ZxVu4EmNmvBJi2saWC9+a9AUDummYDLcFoI5nHSTcI183f9Le7E2ojWdbl1QS/UntHPqz/SM7Xn9Xq0oCuqqmnaF68b+VsDzN2hESY5hNwSfxPAIOLOkOEgITVSDifCEE1YIYDTxHTaLZJBHt5rdK2oYyTVmTQCO66oecII7IQdj6sb8yrRsBFOQoz8x8p6JzN3Ye0GLgRKIfUznPr1ELRnUhYi1fM1reSWdDE6pxc3ntPTK0/p1dbLWtC8NrSuppmTTSPcVjcWL0UlS11BT+vChd8ZMhxcHH7yggDCYN0iAgZyzxrbJVg20VvUSmwWpXZHzLEK3zSvxrFAYHHrmF0bTpghRTychzz9d+LpP3ZAjwDDmcU1FS2sus9DYLEiI7FWvqkVLep86yU9f+UXenntOV1ondGS+bFurNapqh5XLV/mxNrmWJqRzhVSC6XKkOHA4dCTF2AzwsBhm2uj9jhgw2O9nvmF9hU0MENYBzaubntGUX02uDgaDtPmIQTB+SNzV3kCdbi7PsJTUFrJXLcAgaE95VWMSyrFQyqWWorKC1qOz+rM2gt6cflZvbjyomq5NTXCAtd1ixxeTbccITCqb+mYY29/PrrrBOb+aZchw52KQz9h3zR3vtbRn/3isi5Eo2qwYXOhoA7bN+ySQGIUlwCIy8QV5pSIa+c5nvY1jWQayhVqKo+8qsrYeeVLS8oXGkY6OEoBnVmcQILORtBGkjgviQ+aOE80RvKxf4GB3TcJm2ymaBpVp6C8aYRscljsVHT/+Js1qjFzwzo1ekKT9sdvnoK2I8uT9CxPyJCdxzy9kD7Z9ZVlUNkyZLidYBQdajDkuqZ6bQ58OyZ8fSOONFxk/AY84SsbeZi5GE2rXT+mVnUuTOh3TSvLqfcqUcB2AvAUNkEZ+1yYL+NocYPr+fHh3MTlFJt2FplW1iq21Sg1VCtt6EL7jC6aCXm5dV4Xa2d1qX1Oy7rCcljlipYz3GlZ5jcn5Oy/cKQg/Mw0rwx3No4EefGZf8gLPYfRmRz3E+TCu5AFdeNxtRvTatanTGXjXciEwHhXsmvEl5BQjyPQ4vYbRkbsBbbamNeV+gVdaZ7XherLOl9/ydyrWowWwvuSEU9PmQOzMoXlGD0Sy0grw0HBoScvkOYITsNP+GY/EAY9E/qQFxrYpJHWCUX1E6qtTStqHQur8aURy7dszkjMxB6eXiYl2VeEdPNdxaZdNYt1rWhJl6KLOtt8Ta/UX9Bz1ad1tv26ljtX1M61rAQJlUPuaQf8mCHDnYgjoXk5Ngfmvg5K0sIGSwisi5YV9gObUbs1o0Z1SrEdeY0o2RYnmdsKRdjPYqQQ+NSKFBVyahuJVQtNLXVXdT6+oFfjF8Pyitc2XtZi67I2OusWtvcAYgdsFXP/yTZDhhvFkdC8tpAwxp65a1NLSrstBB9LNDEJi2aMVcxUnQyvErUac2pszBmB+RzYkIVm0t5ihSeXHHsuSckcZDLIpcO4A9v9EivQzMdAYF21C7GahchIrKql3Lwuxef1qpmRL9We1Tm9qqrW1cg11DJNjN0tmEsDSbGSc2Nf/uu5DBluPw7900ae5b222tZfvrCk8+1RNXiBOm8kE6Mt7Y7FBovIyKG3dVcY0iEpiJF9vSAaNrtJPqmWy6+qMnpZZXPFyhXxZW6+TBQ2NNwsQmAcO5pmFjSh/jwtbebV+pA3E9FfPXLwK+6QRkiVjSu2zo3UeLJZyBVUsCPnb8q9S3O5U5osT2o6P2MG7oiKsV1HffNlIdzmKGIoI247MhMzw63GkdK8GGCbW9PcFKD18AQQPYnJeSbpeam7olZzRK36iGIj0FzHXPhyEQSaTPRvLb8YRFx7A6mw+CFZAHF1XSHjjjFvFMdqtzs6V3tNr9df0JnqS7rcfMX0sAtqadmK0u4VBY2yoJgHEkery2S4g3Hoe2Jv7G3D1cN5v0BuTjzkgqbE3vcj6rKMgqeQ1Sl122xoOGnkMGLXCONrvwz7VDj4ObjwI+UMCXl1FMeR2pHRVLSgS60zOl9/Ra9tGInVX9aiLqme31DTNMdWvqXINLCwVjdJIkOG244jcRu9asClOWZf0TOxekwRtsYxrSvXNU2LZRPtk4pqJ9RYn1OneSIhsPBhDybye8yyTwVLHgr0uc08HJYXc1ylpmqFNV3pzutc66yeW39Rv1h5Vs83XtW5+LIWO0tmALOLK4tbvY7XBgR5uCckMtxuZDbAvgINCtgAd4LsLaHgi0RiC+n2abWrp9RcP65Oa9oCWBMEs5G4kIwdNiPffDAzl2dmnvclS7HWSpEuqqqX4gX9uPaMnqm9oIvRBa11FhVrw2Jsvm6wDQlZbTmfT9z8nSHDPuNQTdgPqkrb2OD19Uh/9Ty7MIyqlWPXU/PnUVw/dpLEQP+cmV2pCz2lhoWfoRiBjBIky1LRe9qWd8MIiq8Srak8elFDk3wXctk4rGqO14x43SitwW0hT8H7EEL0ng7uiN7lbamZXyhXL27yf97KznIPNlI0Fxc01h3WdGFCJ4bmNFuZ0rHCaU1oWuWOydHqmLNqspE1Wlkyy8ZXvyFszi15+y9Z07YFtMAMGd4ojgZ5bUT6SyOvy+0xtXjaaH4tNIP+MUT0QeIIk+lXg3mjfnQ6Rgk7SBQth6//8D5kOC9dVnn8jIYm2NBwTfl8zYrA00lLd9uAT86hlFuBbngEavWwuhQ7BVU6JY3mhjVeGtWJ8l06VbrHSOyEymHtmoU3sk3eHeAtyaIpcSXjX+RrhI1imZFXhpuAwaMyw00BQ5j1V9AQT+3YF5/XiOrVccXtybDJYTfPKnzMSJomUEPP7W6u6UYQ5sOMsDZd8KWEsV1kg8M4fBhktbmu19Zf0zNrT+n56jO6HF3URrdmoSDsUePbEeUiIy6iGYPnup3wVJObyiG6R2a4Q3DoycuHvuN6FtbNhdECyw1YPsGrQt3xsJC1WT+m2vqM4layoSGklnz0g+bB9dfiZqP3BqYJK9lDzMgr1wp7ta5pXRdbF/TcxrN6ufFieAF8Xaum4bLTrMUpmjldTD4u4l/8zpDhZuBIaF79w+f2ERiUgOvNLXWHrHAT4VuQzfqMEdiEouasmWuQVzL3FMKjCt3CQofsgtQgn96n2UydaocNENtqFhpaKS3r1eZLemH9OT175SldrPG+5ELYyZUw7SIbJloa+aSLpU1FCM3/ktZxlyHD7nEkyOvW4nqDEDLaTmDdzlTQwBpGYPUNO9/8qC0aGrNJt2toW65oT0acaF8RX/e232xgWC/UtFpY0sXueb3efEUvrz2tl1ef0bnWa1oxTaxlpBehaEJe5iBg0glu84+HGzyZxWXklWFvOPQT9i0jitc2In2tN2HfziUT9u1cMqB2Az6laCNtV2B30qsHIk8me6eb6GXeu310c3x9aEW5whUNjS9qeGxJhcqijfuq+W1YmVvJ6zrbHh54Bd5YEwat6CpZGLlAKgFGton6F/b/4g8SQhnkN08Xh6MhlYoVjVTGNVM5pdPl+3VSPJkcC1U0KjOXbMNTNFLO80dayIqtbilAkQW7GTLsDumRkOGmYRC5mB+jv4ewoWHMWrAZNTemgwYWNactGF/mHrEQLGZN1oJtOTAo7X1Aj6yCo6jhLCkzf54t57FpZI1iXevdNS01l3SlsaDz66/pbONlXe6cl/maJla10JE/qjDiMvLjaW3ccwOe3GbIcC0cDfKykcfg20RvTN5eMPpxqGQ9tSwsZp0MH/VoVqfVMBLrRsfsshFYeJUo+TZj0mxUoMcgNwsQWI/ENkXWn2UIYnqVERg7UrQ7LS1Vl3R27TW9aGbkS9WndS56SRtatlo2LHhkEYyocJsJ3uR6ZDiUOPTk5cMimDgcmW9iwCXetxFOB+Zs8FOuvGlXOfYCa08rbhxTY31W1WU7bx43AkML671KtE0D6wMVtfRuFcK8FcspCsl8GHNj7UJTa5VVXdBZvVg1Att4Ti/XntP51uta7V5RNaqrZZoWfztVI0OG6+FImY2+gsmPtx2BRa0JIKMUm+Ygse6oaV0zRmATqq9PqtOasjCsXHfNqw+BtEjkVtMyDxRyRlotq0pCYBBZq1RTcwgSa+hc87JeWHtZz228oOcaL5gRyQ5ibfuffca6alu1Yqq1R2Trx442Dj15bdGV/aHdmAsT1Dbk3Cra5sKV7S4kgqTSLoQnje2uF6MP5GvRzJF14hjyIZlNWArhf0gqbJsTmwnZnlFrbVb1FTY0PKFueBLJGjEKwWrQ2PLl9ZxkTZWXYFApdkIIT7Zpl1zaBL+DswJv1pe/cMSTByDJU8k43/u6eAGNrB3mw5Zzyzobndfz9Rd1vvOqLnXOajE3r/VcVQ0jvbaRGEsy+J/p/SS3LfRy2/zLkOFIPG18vRbrW88sad4GfrNQsQHGJ9EYAmnqAOY3II3wkYreeRoxE819SD5m0fuxA8gjnQ8fzNiKZIWDvMLPpvLhfceWcoVlDU2e0+jEgvLlK8YVK3ZtzYJjtiVLLxJWNVhcjNAkjdsME0dys0jA+5kz0ZSm8jOaKExrrnJaU6U5jWtCwyrxclFwYeNFZBmiJtTsoOXy2566biGdV4bDjcE94JAiaDy9450HCgVxcYR9jFpzPJvrbWjYGVFjY0bV9SlFLRayThnpDZvjy0S9J5F3Aln1I1UmyDTX6WojXtVC44LOrb2qMxsv6bXq8zrXelU1+2ub9tVmNox45uB1lp+k/wCE338TyHC0cGTIK6EGTMbejzsRfeMwaFMQl5FTpzOmuH1MNSOw8CpR00zIzjEbxRMWhhekWb9mGhu1vMPYOSGZpHqdbqyWaZPV/LpWcks63zqn15qvmntFr9Re1rnO+bDIldeRWqZVQmZRJ7L6J2SVpGJNmGlYRx6H3mxsWic/Y2bjY88sa9EGeqNQVmwWSSPmHt4/AAbfyW+N2QiIS07JPSXJ08IRPswDRWZRXlahvKThsXUNmQlZKi8rX6haYLbSMfOSo2IjNmb57iBYO8A3oR5GYNQf05AnrF3TGstRRRPRpOaG53Rs6KTmysc1mZ82U7KiYpTfnKtk62yOmdmY4dBrXglFJBP1dyqYB0ocg5MSJ6VOzpjP8pe5K+YxZRrYrGrVKdPCptWJxowwWT7BPFlhk2jvxNp6zfjCd7uQV92KXSt3VBuKtTZc13zlkl6LXtWL1Rf00vpLOts6q3qnbnUK0bfQ/zvDkcSh17zqRghnq7G+89yK5uPxTc2rZUEHVbwTJlv6sIMWE14F6gOalw+2gWml4OXdKrcRVTj1oyPJHf0rhGVDw+Kq8qWLGh1d1MTkmnLlRQvGa0TJpobJBH6v1EGbu80IxJzUIcxhhSIlmlQ4M498bEU3Ai4aGZdMIyvlSrp76F6dKp/SRHEqTOqPaFSlTiVM7ScRkwPpkj5mc4ajgSOieTHg6dloMVug36ddgn7frSv92H3IHcBo20SSQjCNwu90STk3l2MZgWlWzHEZEbOtNCvxN1bHFbcmTKUZM3JjAt+aNThLKbBEOp/bC2rHH+81FsyCLBiR4XhdiDp2eQG82FSjuK6N4rIuRmf1WuNVnW2e0Xw0H7bkaRh5R2FZRbI8xNO9I0g6wy3DkbhNhbktJ647sH8nczmJ20KPsDZhIz0XJbusGsK7kNGEOmZC1s2ErK7ZeTSnLq8XsSMFpmTQTq6xGv82ITx1TFdtJ1iYtca6Lq5f1oX1izpfu6D5zrxW7K+Rr4uvGrFRIq8nAQgMzXSQBp7h8OHQm401I4Sz1Y6eeHE17CrRKJTUsfGM2dgPvAa+Hwxv9E7TGCg6u/vv2mwM/3mYhGBCmvYvmcRPkw7ruQib3G/CbgxGZuKF5/yycqV5jY7XNDyxokJl3hRNTEius5CVI3Fx/SC9QZXeZwRy7p0PQpBbEiDRPpObDR8HzkVFFeOypirTKhlpl6Oy3jbzZjMlJzSaG9OQ/bE6LM/6sDDnl/w5tt8UMhwWHAnNC/jQHTR873ww+FjHxcLNpMmSle15IzszEzvsyMoasHFzE4r4KpH5b71KRPxBtfdBfecN7qR+Rr2mabZKbTUqTS12rpjmtaDL3Ut6tfqyuZf0epNvTM6bMbkmMzY3q7nTPZlU038ZDi6OCHnZXdzuvkFzSY9TztNuv7CZJvklLgzGPpeMtDR6v8M1MCgMSBeaBazDNsqnzIScU21txtzx8F5kshOFT2yjPuLQxDgOSvcmw6szyIFelUw6vd9om2wnHalTbCsum5k41FR7pKnXq6/odT6SWzNXf1kLuqgNrSriA7m8Y5nvhvcsuxY3WWZCqklm6b+tzDMcNBwJs/GMWVbffmlVl9pDahfLoVNHvadcIO7ZijypSpsbjm1v7wxAGATXEaPnkUYwkwZ8gm1QPZi368Retu3XMbBywTxknVdkbkPDU69oZOqcipWLprSt2bWmOdaCUVbLM6zKh9hIk/SuXf7bhf5SJRJgwr+ggtn/xU5Ro4VRjVZGdVf5Lt1XuE9D+VmVzZQsmylZ4BUrOw+vGw1AeDrcS/VGkJmktw9HRPOyQWB97M4dorvFzjVIfFkPhquoUZ1QbX1SkWljnXhavEqUvEbEmjAm82n6O3/gUcK0S/7HhE62NYxNq6pG67pSu6TXVl/UM6tP6UzjJS13F8yIrNpVqIldW/OB7NIub+6NEFeG24ujQ164Q9pPk4Ws5sKAZjHrkGIjrfrGrDZWpxU1j6kbY0aOBxMzWU7hWtfBE0picSfl7uQ7iouRadRNrWhZ56KzerX2gs7UXtR8zC6u66Z7NRXz0ILeTlxWnOCuo1FnuLNxZMjLsTXPcdh6LftqoXXxInclaFtR64RpX8yDHVPUOGF+RmDdEXN8taj3MveB1DzYvDEKa8K6hY6iQqx2qatmJdJ6aV0L3XN6deM5Pbf0lJ5ffV4L0eUwod9QPVlaQRL2X5j1MhP9+jMnh62vHA4cevIKugW1zKOdHGa4FgWBlYKZ2OlMGGEZeVWnVWVP/Jb97kBaPfOReaDw9PIgEZipS2hRuZa1p2lUaqvd6ajVzqkZ5dToRKppQ2v5RV3qntVLZkK+uPa8Xl19SedrZ7XWXVFUahnhGfmhwu1Q9a3nGahn7jISu5NwJF4POlOXHntlXReaZeu0DFqfsE96bqKNceIE0JcWk7rXkBJBt760MxgDxQxx8Fn8PiSvHfWFtzIMTCLk3fsR4HUiStuIu6p8YU350qIqIwsaHr+iUnk9vMydyzUsuAknXYQDYVsns13hMYWVl3ktzik569+4FlbwmwmdV0UV00JHNamp3KhODc3p1Nhxjdv5mCYsTjJ3FjRXa49kAp8sTILhqWxCWoRL7vXb5ZNN2N8+0BqHGqFDX6d/0V1Dlw3hendZHrPbERe8Q0LXcNdBWHh5letd7EOSZN+feYbdV/vc1Qi0Fc54YTvXGTc3JbWPqV07pub6rGlgY8ncFwM3ZUb1oh0A9Ob4kKFp1HlzBevJicPPTOdCwW5UHbWLDa0aWS8UFnWuc05n2q/q9dZLdkN7SVfMnKyFDalbRne0dUJTtHhCWeYTPHfZyBluKQ49eYFk4B+lzpfMCQVnwzLXMfMwHle3PatWjQ/bToaFrGFLafmSCdxg7eJOBMSL5hpe6DaCwfVzeZjTMpOyGJv2GS8r6ixrvnFBr2y8qqfWXtQz1Zf1SvOcFrurRmDQFh9l683lB82cvdQS2fh3KzPcOTj05BW6XKpTb95IDzWsWUMlk4onE/kj6kRGWs05NarHVDMNrN06rk58zAZ477Nqm08gDwdC29P4Zj53863wRLJRrmtBy7qcv6IznTO9l75f04X261rLLauer6lpYcNe/PYXCLBnl3McaP5nuC04EprXdhx65jJYHXmSGJZO9H4HAhsKk/hx27Sv3iR+qzlr4XwlfurpYxj0PZd49NzBQii99fIO4ih21Sp21CzGapbbWu5e0cXWWb2+/oKZkc/r1fpTWozOqWoaWl1riuz/rulkOTZPNA2un7gOnjQOF44MeYWhxxxJz+0F3H2vjetdvxGQZtrthB2uhWi95u0REBpYBwIzczFqT4fdKFgL1sWkDO9CGoF5nJAA80D2Z+IKc0w9d6Bgxe1Ye8d5XF6xnSc1i9XI1VXLrRmJXdaF1iumhT2jheiM1uJ5c0uK8kZe7J3mbyYEBMHaT/+d4XbhUD1tHISmuXMN6ZuvbJh5UA6vBzGrwVOq0LN3hcHhOh1mR/rA6z4D7NLBTyN3SndAWNIc8GQyQeK/zayx8P7AgaGamJLJk7VcrqmcDcycDd5crqaRqVc1MrEQtpfOmdmkPNtKt0gkhA/zS734YQ4tpHewkBCw1cLJOXgwy4Uf82ZJu010hjRbPqaZsfs0l5/VrIY1nRu2UNMWlvr7dD4yN7nk0FjtsMcbYoY3jl5LHl6ELpXcLJMOhsee+1kvgT43yHfrDr0b9Mfecv1/if9OSMUN+XNkgHEOaOak4uF/07ByHdO0OiPh25ANMx95lShuzZgWNhn80cKST6qlheXpHUwkEki0pkBCJivWeoVV+sxxFWJVjdDnG5d1duE5ra49r1btBXWaL1qcc0bsi+bWLREj9l7creX6B1s2BxGHnrz6ETrwUbxLomkEKmKQ2XmYE+NpWiVsp1PfmDYCYyEr70LyWbVRuzZgHuyADlKKHopP+Td/uFZqLuxSGxuR8dXvqrrRBVUXfqKVc9/W8rnHFNWeUr7zukli3vrPhh3NnFSyUJZFs93eR0Uy3DocerORb+mcrUvfMLPxXLtiZmPJat1RFCy+N0Zie9sp4uqwOyF85qt37tgp3TSC2UjMXuTN3+HHlvYFEp2Ka5YX+94XlqXiokZG2dBwWYWheeWL8+F6MtCTsCGFXpIHEUntgdcp8fM6VeJY4+2GZhvrOlZd11S9oWHrRCOzD6o8fFrDY/eYeX238kPHTGZjRnSmwYqFz8lbCyxmzUzIW4NDr3ltddEjCBtEDKTgrmppqItV5Yn21e2MmcmYfJUoeZVo0gY0mlcyie+m1uGQpvcKHHWyO1nY5yzWcGdDU+1FzbQvazKa13h3SSNakVZeVGfpGUVLT6u18pQic53meUuBucHkc3MmRDtmxHWrcCQm7M/2JuzPt3qal3XYQRP2QRB7EMfW9xZTMO0oaEl9GPSloV6G4TSNnb5K5JpXWrtKw5ty5+tGWNvKlpx3w+BlHsdcYV358qKGRm3wTlxUvsQ20zUjQF4lQpoG1ywG1PNgoCcnU7eg5IK1YyXuaDhu61hjUcebVzTV2tBEo25aV6wSvJQrBS2rY9pWoXJCpfKc8hMPqTz3dhWKcyajaUtx1GSDJmbhe20RtLAgJ3d9OKgivANwJMjrTI+8LkJevNtoZiMrqPsrjiS619l3/rqgow5IYtCDyYRkdpufpdvbjJAY1ysnzbrZtJvLH3r+lla44gPHScgOucKGEdiKmYyLGhtaMhNyUcXKkl1YswG6bs5iBvKyYyrdgwaWTyQur6Eo1mSroeP1DZ1sXDKta0mVyMis3VYxbqnYhdwtbB5z3urMrhzxpDrl0yrOPmKm5MMqjTwgDZ0wRdWumenYCeHy9n/vSa0dw1ed+hBE6e2QYU84uL1vl2CQHlgF4Q1iy2RM3BZ6pBYAGTE4YVc+1FEwbjcNIppWozFqZuSQ2rwLyWaGgfAZlJiSPigPpnCRAC/nF+yuMhLXNNleNjNxQRPRukaNtMqdttU3Nk0rp6jIGrFwq+kBmTVNZPOKln+m2uVvqzb/TXWXvyPVf2rXl82hyXKTLJheWzJ36IfaLceh17xM6dIZU7++9XKieYVdJaxT8dXm/oojicOkeW0hGTjESTQv/sxvk3d6c1kml+Rlb9PNWAOWv2Im5EUNjayadrFh5tJl82soH4gOwiNeL+6BAxLoGFG1NNNcN1NxSXNmLk63ahqJIHGrmVXNH2oQNpkOSMibrxSFq3Zz6ObGpNKcCsMnNDR2QoXJd5r1eFr5yrTJfNRijlgqZRWsz/UjaF4H9AZwu3E0ycu6E6ut+yt+ZMmLMkNE4WVuPDBx2DOrambkggqlZQ2PbqhiJmSptKRC3kzLoK31JqpNngk8wc2Ee8fbg5A7RbETL5Gj1Ik00TaNq9XSbHNNx4y4ZlpXNBQ3zUxM5NMJc4wWMxC6kxdLTDAH23aGvLqmXRWtP40rLkzZpWkzHx9SefQeVUZOhaMK0xZmzIjfNNo+JF8Mv5rUMlwfmdQyJKO8p0n0fti/opHdmJHunKLWSdU2joddWTuRaRlhACeDOIDB7S6kkXa3FttytRNKNKgYZSOvY40VzdVXNVvb0HStofEm81ttdfK8DmTk1O2oaIRfNG7mq95mfPcSNA/TQHnAgWaWz5sJyXKT7prJa0Pd2vNqL/9ItcUfqrnylNmn55TvmimZltOmvFLgJzedPSyrOco4sppXp7CT5tX7kQL34asC74gBI8Ww0ys//mQyJD+gKbaah3C9tFPhwpPJq+JZuJDd9rKEoNsqYkMveEJCXMFcIqL9Dn5GUDxhzNfNVEQL29Dw+DmNTc6HV4l4Csk18SQypEs8nwtL0kw0s1uDwAd2dOWXt6lw+Q7rr7jYNpOwqXEzFacb6zpVv2Tn7bCuazSqq9StWdxkEj8E3yR0+z94JQkne7yx3ZD52wW0VeLEuYKFG7KrJXPslzauYum4RkZOqjz1JnVG32Zm+JzF4gZQtrySlJBVkhOZcAbsmGSdYQe4pDI4Qo/sc3sCw+ZqN+gvXNuWRzrTbRcMhIdYzKXv3ObCI/+UC/6DYMltTz157pjzOawAz9OOJBM2NByybG3AtWfVrM6qus7++OwHNmlk39vUcDPebcSORUi6ecm0qtG4qpnmqo43lsxUXNVUkwn6usoxK+TZt4sHFix38aERhBDOEllR04Tgvd7Ju5/2v5naeSVEX8itqphbNJm9osbaT7V24VvamH/cNLKf2h31jAVft5jsIhYWqoQUA7zt7gBx3unIyCtDHyCtXrfwgeSvEpm2wJ5g9Y1kISsmZbdjBNYdTq5buC0S2xr0twohx9Sgp/gFc7xMXuy0NWwkNdFa11Rr2UhrxczEDY20Giq3Tf+Ji6YdD1kd0Mz3ji3OQZtmxsyILAeRrZjvJZPby4qXn9Ta5ce1sfQjdVtnzd+02d5NA/LaJLFQh1sru4OIzGxMIVhQA6SRmFa9HzeInV4lSvY16OU7MO+r46WB2djfhGFuJkzup0ayIYTqC+txOfKX/KBM6fg9bSNM6rNolVeJFjQ6Xjczci15Clm4YtcwpTCEKDNpbc/rZsPNRbC5s6rVqxKjcdU00V7T8ZppXI01TbeqGmnXVIpM00LjUlHNQtHq0TbC4UHEdqSXmvAeYwKTdM87LEblaKIL2pj9xivxpiD0t7JauRl1y/cpP/qwiiMPaGjiXuXK7FjBbifDFjN53Sj5SC6RexlkuApHSPMKPTk59dtkhi0w0Pxvc8C5nBLTiI/WYiZufpWotxtF1Jq1aww6Bqh3qXT8m4/0PJdrX5QEEptor2uusaJjNTvWqppqNDXUjsxoM/3IwoZdy1gmYrpPQrxvDEgrb6SZuGS7ncTkrJs5uSBFLyne+JGaV55Qc/m7iqs/MfPyBQt3ycKtmvM5xF5FMgzE0SGv5DaccrcWdMN+l/x3ZyAhLXd4DJZT+Kgt336MZxS3Z43AzIw0AuO9SD5qm3xWDa3BEOp3a+QdcrGCB/I087VgpME81mjU1GxrVcfqCXlNN5saDa/8QFMFU1CTBaidnBFX0Lh2Q16bLdg7+vkWKEmCpDzJgwx+NVTsXlExOqOh+CXVF7+n5fOPqb78QzMTXrRwly3UujnemfQHKGncGnkeBBwds/GVNV1sYjba4GLlNF+YSYJcF4MeFIKbtSYs3SJbVuPV5iFIvPr9LV3WKA1Me1AaPZOx71LyLiSeDE47GqEl2+QkyBfqZmathLVgw2PLGhm/okL5ivK8RlRg36u0+UVdrx7kN4peiTYRNC4mzruloOmMthsab62HlfN31S5qplHVaJPV9JERm5l91gfingbupeLZn6lG5nGNctqlfH7QPZ+0kJFpcNiOjlxCWiC86QDBIlfysHQ6mrSmGlNczKs4fL9Ko29Rafit9vukyXfMwg+Z2EfMlLV0QrEou5UzmPa0saU5qDhHAEej2qHRtzpXcp4hDRsCYWC5S9CTGYM6DHQGZttCYl6ZGYQ5ZGak4mk1ayOqV4cUR2Pq8LGP8CSOwdV7lWhzHu2Ng1QwB8O8lp0zvYdjrqlgRR2OjLgaq5quXdGMubFGQ0OtSMUOH5rtqM0n0Szy1vxc4valdNRzG0kjtx781C4TArOy0GmoEK+YJnZFUfVFbSx+VysXv6po5dsqtp5WUeeNT3ndqGklbBlJo5GRUC8fTlNZHCUcDfIKsBYOxJVh90BmPbc5QnpyDMsrjMJ4QhdPqNOeVqM6odr6ePjAR7czYRpG8hQyMSNvXleDCHBFU1NH4pYmm+umaS1rtr4UFqGOmqlYjiKVOpBuHAiMl6zT82NvHF6KtBsAFyNAlEZGedWMyNaViy4p13pZnfpP1Vr9njYWnlB75cfqml9OF43EeHJZN8cmiGyAaEmk0ztiOELkBXHR0rgdOlaG68DkFrQo5OcbJrISn8+qzShqHldtY04b4bNqJ8I6sEBevT3B9kvu5IumlZiKaDCWgzXvcNTWZGtDc81lI61lHWtAYg2NdNoqm6mIucgShmSBKZswhuT2EddPMJjh5ih38qCAz7I1LWpbRTPDy2aGV3KX1G2+oOb6z7S28KQR2Y+k6k+l6DWLs2axNszVzEFihn2vx8HAoScv2jWZXmAlNCZRcsxwgwjk1TMFEw/7y5upOKq4w9e4T6i+cVzV9WOK2lN2nfCE7XW1oLXhwrDDw9zeiA3SalgRWpYs5xBXxRTBsXZTU+0VTTSumPa1qnH7PRRhEBMuMRGT130w13gS6De024OOySCyqkfWNyPej1Q5OHaigNTUXQ2vFjVXf6L64mOqLv9I6/UzanYW7fq6kR5vBDQCCXpN3B0FHPoJe7un6Yz1g8deWdGFZllRgf2WuHMzaRpOt7DDrXgnCXV2mrDftUQtvwFhk1d+ej82TzDReqdp9O7iVyGE3V6fpKmT0NvqNKjedn1Q1+h2WDJhJzbwcpAQfkGrMs+woWFDfJkoX1zX8NhFjU6dVaG0Zn41u2YmD+8EWlhmnAJpBWLjHB8SvjrPflDcdp71WbmwieCIaVy83jOLxlW9rIl6VRNNXvlhct7a2kxEypqHtMjS4oc3EUK9cVvohgn73o80Uje8bXOCPRLeuopcttLwyXvy25pYp+/hiB9+htpvRjL4fGGONV8567OmwUblU4pGH1Jl5Lgqw/eqWLpLuYJpuEr2EPM1gxw3S9XXtofpxn00yMvG1GOvOnnxGatub3+m/qqjJey+cQe9rxh2Kn2DEh24hz0dMd7s/ZsIdRhEMoP8cO5vRw+RMwLxdyzTGJRGx1SdAd4ByQQ4Oy0wqW9kUbqgoanXNDKxZGRmBFZYtwFsZk+OeSfSh7h65GVpJkPO3c5goMe5UiCm4agVdj1F44K45mrzGm3ZcI5My/I6hvm5BIWBTwq3sMmlfdi+H5qD1JO0BxEW2CQLIyo+etsP2nU7nxDGw9EfccwZFkxDM+22PGM8NhmeTBaHHlKx8qAKQ7PKsy2PEV0w4zluVsRdgsNEXtduyUMC+hKN5i5/iBrwzgP6U/KksdMZSV4lWpsI70KyuDV8rYgBto0lbLD2NJjdAOJDcy502xqOTctqL2u8saQxMxUxHUthI0Gj0ZzdrExrCUsoDjjotwXVVYgvKt96Vd3qU4rXf6jW2ncU27nE60ZL5kzz5e4StGHc4e3rR4K8GBvBjgoDBJeR180BxGVdykwcVuPzZe64dULV9TltrM4papxSHB+3pjAtwRezBo0vRWJJY10TLDEYixqabq1pzkhrrnpFU+vLZi6yJMJKgDmf/BuoUR5U8KQ0360Zaa8oF51Vp/G0OrUfqbH6PdWvfE/d1rMm23MWcsHIbsPaYLssN7v/IcHRIK9NHKKWuwORzNskrwjxriBLJcI3INvH1azNqrY2rXbjWHg6Ga4HjYgu6KMKlyKzHUYb+2yFp4oN9uJa1kx1WdONhpmLHRU2d4SgFHHQwiC7g4xktxCOyW+WV+RkJnhnXmq9rrj+nBrrv9Dqwo/UrD5nIYzAcldciikMludBxREjrwxvHNfu/BBY4iAwNDAz2zrT4VWienVKtQ07j8eDf1hCEYYYMXz+kN+JY7OYMKndQzBIjbiG4rbmzEScM+Kara5oslEzczF55SeZ60neJcSsrHSa9uvquck7FYnsEikHR/358AcuZzLlK0YM2/D0FBLbMBsaEjujuPaSNlZ+bjeKZyzmRSO5ZEExM3/hxsLcX0qeBx1HYsL+LE8bX13WhVZZUX7EmjFnx6snxcFgcdiA2K2ULNygoJ14twnsBOvUW/POmwjFvWbS3dSDhf7J4QTdMOivvjBIFolXv78NkVTZQlLp9BhoBTYz5FWiRQ2NXdbwxJKKFbSDDeXyVQvEXljsrAChkYMNOnYo5a9TMO2pGPabH2/Xgrl4z7ql0aiqbH6ViHkuG9JWOOaGWICa7Ltl496KGrSWkOqdPWHP1RDCo4QTnKWXZx4RDczqGbz5BeyH3QjCPGKurFJx2tysCsNvlqY/oVzxlF2bsHBDJgvIiwriDj4yzWsbvPsMchkSDJLFAD/u8CylCE/67NzIh49RKJ5RqzZjZs6k4uaU/baB1eH9PZ54YvIRmRelzRnzMDEPSnFLo80NTdRN06ova6ReVaXVVDE20guMSl5JfuGpZ69IvpD1wCCp7hb4bXJgqUdY7mEVC0HCzcEDsz9Gw9y63YgW1K6f0/ry82ZCPm/XroRrhAnyOVjSuCaOGHn194wMNw9OKNzt2R3BZM+2OfGUuu05tapGYGtGXtFx82Ml/nBCYCFuQkQMU7aUKZtWNdLa0JgR10RtRWO1dZWidvhsGdpEYnImccLx+uroAYLVI/AUBMbp1X0Y0xATMc/7j92q4u6a4mhezY0X7UbxmoVYtWu8E4l8Dg+OBnmF9raqbt6tDs/d584FcqZ7peTNU8h41MhrWnHjmA2u46qvzKjTPG7+U6ZlFcJKeAiP1e9Mvo/wQdhmTbNGWnNVFqGua6paN1OxFb4AxAdh2U6ZOIlZZfngDhHYkDJxA/ptb0kET1XRygp5k0mhrXKpqsbGL9SovmA3iEsWhgmUnhZ8SHAkyIs2Z+4hccl5hlsABlYnvWDSTu2QbGo4prg9qXp1IqwFa0dTahTyYbcH/njlZ6id10SjqZmNZc2am6vXNdVoa8yUiFJsYSC4QF7oaD2t6xANzusDmVqfDgTGvCwr8ovmxQOLpsr5BTXNhKxtGHl1GyaZTPM6UNjqyklDO8Iv+y/t8B30tyfsELw/r5Afbi/wONsczIy2knbUOjWINzPt/e4H/sxs97uQdr/rhd/mTEp2LZ1Nz7t3znouBlcyyFgiwSst7H/PC92N2oyaa9Mq1edMKxtTNyqqaOQ02qoZcS1qbm1es/W18J1Fvv5T6bQDcTHXlRQVzYNJfY5bLtnF1MpmYW4a0pXerPnW2ZbP7uBi3gZ+bzr7zxxphvoHTxB8etfYP98000LDFK4F1dfPKG4u2qXk4cJhwaEiL9Tqq1y4YE0b7kap6lqHu+ov9DT7r9+FBPoJYidn/wY5y/oqZ/67h3VKG6n9znqwccJ2x6N1ypEAc8IGsrmdNM5B6eLC4/k+R7k9vS1neeBvcXCFfC44noqZtzlIhK9MJ4tSeeQv9mrvTqjTZRnFCUVrp1RcOKVy46TK8aTGjOAmbMBNr57XSRahtqqqxDWjQSameQppGhfNAknxNLJj6ZuWl5ybHwRm57iUMPYdm+3Ln5248wvb/K4DQmyGsrpZC4Q+HPw4msMfx7mJ2py19abGyXUjqC4mYtOu5TTUrdrPi6qZBtYN/oQ7HKAXHWqEJrX/rPuEDsSA2kU/yrBfMFn3hlUYhLyPWDCiyXeMvPhsGrtRdMdUNy1stXVSndq4puMxTdVamqwvaRxNK7I4UTJYmROL89EhGoL7AG6ag0xmbhIsN8mvK1fgO5vJpoaHBYeevAIYNYGxMta6VUBjYCyFQ+o8GWbMUJnBE7SjihHZsJmCEypVxzV0MaeZix3Nnqnr5HJbx9oFDRt5lS0imlbYRuZwLFPaNwQNtCfg0MPDxCLy5RdPGevmX7cQ7P9FCxwOHA3yAqEhe+TVO2S4iWAs+Z8Nqh5/JeRjKhT7WLEGC22qFBU10izpeL2smQuRrvz5zzT2zIoeWBvTxJo0ZORVYsVFiM92OL3mzLCFIGAkDEw4JqAg+7BMpW0Ex9NKdp04PMx/dMgrwy0H/LJppqMeBPrqqlGOVC811S3EZkLyuk9Xk41Y05cW1PnBc6r89KLqj72i6g+WNLpWTMirp3mxKxAvBGTYQlC0goOukDDzinbCPCXLI9DIeBGeDwSHtxgOBzLySoF5sTD53O/y+YFuL0hP3LrLM6k9wIVRv0tQPl55SbukfKRl17e5q8uwZ7dD4bbLxn7bDd6/lmP/Nh1rkUbMFBxqS8VcW0PdNY0uX9SD60sqPvZNI65f6NRKXcPLkc7/7LKuvBwpX5uRomHTGfIq21gcsbisAWNSPnmiyHwYhuidbBJZ5cMT1z63h8aGkNA83UHiYVPN3rXE8Zt3IK1fmKIVR0OKonHrF0Zc+ZZJyIR3SGDd7Ihg886/d1ifuMrtG25K4r1EBqbb77mT28l3dwiSRhNA7hYxedewo5xpWrmoq/G8mYqNmu7u1HVf/Yqq3/2GZi6f0d3tpubaXY2ZGVmujuriM+uaf76uQm1MxfawinFRfJMxfG08OJIPuobnegejX5rudodQQwsenJ9b/OSYyDqRQnL3iLqxkdyo3URmVaocszbgZfjDM+SPDnn1mjXDLUJvkIUeFnpZGFJBeyoWCio26jrdbOj0/AXlf/KEKi//TJX1y5o2U9KGm8qRmYvNccULJS08V9Xay21V6pMqRMln1fYy6A870qRmqq05NoLMK44Lpm2Z1mXEpcIxsx4nLFBmNmY4qgiqDhNQ13F50wKsd2HeMKAwH3lzsWQjbCKq6dj6FZ24cEad7z6msRd+pvtay5ruNDXE/ltoZ6ZhFdtDGo4nFRmBXf7Zui7/fEOF1XGNdGasGFnX7UdC52ZG5woq5IbVNs11ozaqybm3mBY2qU67bFch/sOBI9QDGHSZ5rUfMCoKf9eCawNhfsbOA4eZJ+u8pmqrOrW+qOZPvi+98IyOt6sqVVdUjo3wjLjiru8mQfdk8emQGvM5XX56VasvNlVYG7GmPDyDcDfYNI/D5PtWPw7aVg9B5l2Tn8kwiuxWER/T5PQjypWPq5M3fdbCJub14cDRIi+GUbqx7bzfvXHsU+egLP1u17hGGcIoGOD2gp3KQzI950EgI5ZKQDWVuK2JVk131xfV+PHjKp95XqfV0mi7LnakYsKdoiTzOLheXCOqYrui5sWuFp+qauPFjpmUEypGFSNEM43MRAoMibujkRJQyvX7BAyQb2gqZMQTxLDVEBU2czzPpo9FMxULareLarRKqjXHFBce1vTcOy3UpHL5igpF1n7d8ULaNQ7VZoSDqlKzQXCuKX337KoumRkSFSrBv2n9vT906Bw7fc5sAMInyvphXgy+XWMAYw76KhHd9o32O4ZJd1D9GPy7ZO70Z9nSnJcMrAS0QxKMPxtqubxGm/Wwz/yJtQXlv/cHmrz0qibWqpppNTVipFa0OlNtM3qSNHCQlyWaTEQnGXCMCk3d/elJDT/Ylmaa1sbs627nedM6ComJivMSdfJbO7L6ZoQh/V77EZantgBr1MOmsdNmhDnLEwRNtJdGkncCTzesbwtrrgyp/ELYreADsZke5bK6KNe0cqJD8SK2aaGdMUWm4jajSO0IDWtW5YlHNXX/b1iUYWuzIYs3ajeQkSSZ6+R3UJC05FFA6JC36q4ThsYu3K3H4FIk/+8GwWC03o9zvsMcZJPQgomXc6QcmbxbRg65Ql5DNtgmW1d0T2Ne+R9/24jrvCbX1jXa4DP8lohpDTHfJ+QF7tAlQy69c9Arnx3C1i8W/rUfX9Dqy3UzN0c1appFsVS2Quz8/uZBB4874lxR7VzZnOmp3YqRViW8xN6MOmrGZa3VR7XROKnhifdr9oHPmZzYNdi0U4vDshJa5jCJ5+iQV+j5vdMMN45+GfK758fASLSZwDIaMuIqN2qa2FjUiZULisxUHHnhZ5peXtV4raWJOKeyDSom3xmc4ZWhzQSTRMNZaLqtP1687q4WtPjcuq48u6786rCGumMq2iD1eHcybqSEYe7QtK3YXBsRmxmYC1uaj6pu2tayEVeu8mbdZaQ1dfwjdvc4Zs3A0ggLFzQ0Xo/vtc0hwREirwz7Azo/upW5wCpmyJm6xeYNbNuM6sX8VslOR9otnY4bOnn5rPSj72jshZ/r7vUrmqg3NRYZsdkozMeWTpgXw0QkbVwKZMGfaVzu0LxG8hNqL+Z06RfLWn6ups5yUaU4mRK443FD/GryMf004puUxYK6hRHVWxWtrBSMuKY0NP1enbr/8xqd+7Dx1cMW/piF5wPLyASt1lplgHgPMo4IedFivQF3mFrvNiFIE03AHK/rtE0baJprFXLBj40EeZmaz5HNzp/X8C9+otGnn9aJ1dWwFCKXKwQTiCeKfIo/Zk4qzwc4Ihtk3k7ptuob7SFfiK+k5nysxWdWtfJCVfFqX7iDjM1umuhLoBvxcs+ICt1pLa8Ma7V6Ut3h9+ie+39Vp+/6jIbGHrWbwKy1QSXMM5oqZrJG6+J2cohk08MRmbDv6rvnlpIJe1O1acgWN6L+9rTxktvDV37CJHI/QqJXd5TOwNl2C3dVIahH76QPg/wTK213ZQ6hBoVlwn4A+otMSZExOgDFdgLD1Mu32bbZtC3TCkrNqibXV3TqyiXTuJ5Q/vVndGxjSVPVDY2bqZjPlxVZ4h0jLPYN48kZLw6Hj+uk1m/5xHnw7p0Dvg4UlYwEOy1T2pqmiXSUm440/paK5t43rmikqm6JSfqEEDs2kDFLwe2dsO+FtfJ4kK2wlmfIlt/MJ9oxyMbkHbyGzVwsab2eVyuaMhneranpt2r2xNvs0j0WYFwx3whgEarFJd3EXEyD9KyCm3kebBxZ8mon++JtB33L7m5vDIM7BmtvroaFHUBeO2FQS0Ewb7gJw+i4Gh2exqdAKPK6irzMFU1uw7xst7asE+WW7jLiip94XEPP/Fwj0aom2nWNtSIzF1mqmle70FXLSAdOCPvVW7oJZ5hHCqSd1C6RH8QCEbCnl+lvFpenbx27GZmbbmj63cM69uiQuhMt86vaOK1ZpIqlgfZxO8nLulavJv7OZzjfDGr0Gn5AbEUzC4tqx63QHTu5kjY28qpGw8oPn9T01Dt0bO7dKgzfa4Kfsqjj1g9KQVakE7KxtPI9wk7Qq9MhIq907TJkuCbo/mmuDUPNPBnr9ULLOGRNJ1TX1MUzavzgSXWef1ZTzZoqjZaZeBBOTlXTiOrlyG4eyQcziF80zS/50vVuBpUNfGOYYlxRqT2icsrlVspa/MW6Vp810lqqqBzZjSpoXXcyEGBCwDnTWlUySrZDM45NUxsx4prT+sachXpQEzMf0b1v+U2duP8LKoy+3YR/j7rxbCAuQDuEecEgo17am+7wISOvDDsDM6ff2UBw0mJui322hqKOptoN3d1c10Mb8yr+6HHVn/i6TtaWwqLUiU5XQzao0LnYSpp5LojLl1cwtkh1IHfZtTAoe3/JThKWUjAvcb4/fkGFaEidhaIWfr6h1WcaKi6OmZk6Z1pdMrhvNazYQeMK2mnidTVC/Yxgu0VFRuAtY64Gr0aNnNJlI+CXXiuoOPRu3fPgr+iehz6n8vCbjdTmTIsbYamq6aOtzXY5ajhS5IWqHuapdnODP1LYRcdnAKbkBnlBPOyzNWy2zelGpNmLF7Tx+NeU+/n39LZKVyfzLQ116kZcHSM5Iy8LG75qbQ4zEfIjnTDpn1h1V4Esg0OjCAVISA4XzEecJcKTTuixFI8oms9r6dma1p83je/KkArxrSYv5Ek/6x17zsudRvIU0Ew+ldVs51Vr5bXWyOvVsw0jqkf0lke/onse+LyKk++0Ot5rpHVMnc60kZ1plZC45ZGsuiePo4UjR160cV//2QbvYGl3zQiHATvUD3kFmUH6Pce5jRyLklPZTLIKGwm22rp7eU0r3/ymck//XA92mqqsLUi1ZfEVG5/TKpoKUjQtrGQO4oLMkC+7qobdUS3P67tkzivZy76jqGDmVT7uaXPoYSWVW6aVXMpp2czH9RcilZrD4sMccAlh+H//BjvCw6VhaV9FXOG22XOWu1W8Y/JA4+oyJ9cdUtPM3I3GkFarI3rTW39Z9z74WU2d+ojdHd5swjpp8Y6Z+T1tdRkO2mTB4obFpyQ6CF60tDtEOPQT9nUbbOdMs2bC/nI0rKZ1lHzB1PNC0pm2wTrUQGnYAA198Q1g4KtEhmSf8V1ih7CDku7s4anpTr26k3qViDOyL8d2l7e0m8WiplqRplZX9WBjQ1f+7L9p6spZjS0vaKbR1HDbBhZP+grsoc4CSfIIqZjrgQTtn6eNWbkbBDFsC2ptiebV4YlnpJwRWpxvmzbXUrvY1L1fuEvlB9rS9Ir9bhuhWo6WSCeYnlY66yM+gR64YEBjb5+w37rei5YczXElPEHtIWj7Pf9kwp4MjLAgUyPa2M7b1ierbeub8axmTrxZcyffpuL4+yzsaAgbTGMLnVAufRRp0icTH1l/DpnvCr2CHgIkrXdEEDpSaHAHnSnlbkub9pVhR3ct7CXs7hBS6vVzDlh1aEoxWlS5YOZgU+PrCzq9Pq+lb/2Zxs+f0eiVJY3UWyqHV/jQNoiZdDFuFUnpegMQZ5e9tIFP7Lgbx38M360/I8cOz9bsnKdpxkB8Zo1J/Up7TK8+eSmYkaW10WRiP07I4MaxWRID6aTSCqfUecsl5i6LNYz4LVqxUFahMKooqmi5NqH1zv0annm/Tj30Gc2c/iUjrkctPKbhqMVKnpQmSz2oq/0f5h8tIarqrHkEgUSODAJ52V9o7wzXh8kJUdFJMPMqNggrBRtIjXXNNdd0YvmC1p/4SxVf+JnmqjXNGWlNGmmwZ5dyrK/qvYh8E8DYTTvvyB1rXBzzQfmOmVZGYNG8mZDPbGj1ubqKKzyZHDUC22GS7Y3CypKobwXTXJNNAYN5GEM85FlWq13WRrWk5TUzccffrrl7P6MT939a06c+qOLoA2rzMV4eQuyAhLBpGeTM8WjiSJFXhp0QRtymC2aTuaBtmWO6u2xeQ0ZgE3Fb93RbOn7xFeV+8C2NPPtj3buxpOlGTaPNKKysLxp55fJ2wg4ItxCUPnm6x4BOyAvta6I7q9y8aTm/qGv92bbKy2May8+GOPsH8mQ44bhJ2jFnGl7OpJcbMpkOK4qHtVEf1uLKkKrxac3e/XGdfOCzGpv7gPKVNynWcdPNpo2Pxiw82tbRJabd4MiRVzArMlyFYMKFgb/lggJl11iHmSyL6GpqbU0z515X9P0nwmaCd7XNfIyMqIKmFdsAZDKduBaht7D0ViDQbq/MydIJllCUzJwsWpsXjUcral3uaOHnq1p5riEtXt0PiLoneH4OChFSSWg/5GvkVTAzMZcfU609q7XmnCrT79H9b/s1zTz4RZUnHlaxOGlxk73Jkg+K8PTQ3BFdArFbHKkJ+/l4RI0O8w15NZmw7++t5jFQGkGBuPpC6Fu7RDLj04cd8ku8+i/0j5QtXJWEeSST7VdVcEDgBCTNJSctfhUiVsB32TFKw/WWxuqxTlx8Sa0ffEPd53+iu5pVjbfbyrfjEK5khBE+jmFxO4WG/W+6w0DzZ3A9fNJ8N/CV647wNM8aBMe6qeRz/2EWTK2CNWC+YWdVNcyNnCxp5JGyJn5pRJ1SzZg5eU2p0GWiH7MzSZNlCIlUvGxbeeKbL9hvCxNHsQr5kpUJU5ELyetIkdW9hdnaGbJ0ZxQN3avT97xDQyP3WZeaM+tyUrnCsOXde40Hc9Pz6L0JkPzeyncQEhNyt7h+egcFR4q8eD2obeo7HbFt2vzVhLIDmeDX5x+a/6a9SjQgQ8LuQF6DsFM9+jcjJMWQG8nb0ca7eMuH9VgVIuTbqphJeLIVa/zcovTYn2v2tac0U19Wxciry4C3gVrhncXwLh1HSwuzMWRoP/qwF5LaKWw/eUEiRpk9EVkZAgPlAxGxtIInn/mwoLOpqNjUxlhdM58+pdmH7dp408i2qVKubk2as5AQbsduclb4nvaTlIOamTNSCiTJU0UIE5maiZo3A7tUqIQdNtabba3UeJ/xlMYm36qRmbdr4r73W8nsVtAdszRGLbxv4UMeaFsJyAuxJVaC++4XSG+/07w9QDpHCnsZOEcB/dyCshHGpP118gWNmVZ1wkzFk+dfV+GnT6h89hUNV+sqN7oqt4y0zA1FFjokxH9oQBwggFvYvUKmyZO9rcWsRgpmzhZkxNRthz3yy1FJ5faYyrUJXfz+vKovtK0+k+GpZPqpXuIgKn67M79e2qwby8eYo+VgkubCKzpFxVbvK60pLXfuV1R+l04/+GXd9dCvau70R5WLpywceizmJGWDTPmOIuSF5JLkgyhD/hmuBVrkUGOzQ/S5owmTBixzlUsOkFZYNW9W1rAdR1oNndyo6t6lZbWf+LbiHz6hqdUrGmk2VLQxV+A1lg4uefVnu1j5dWsFHYiLv20NzLQ3pqSZwOaf7xjRxMMqGVmVFod08QeLWnnayHhtUsPdGavHkEVhWBj5OnFxDA5CTvz9cQYmn8z0U3nCTNJxzW8YeTVPaGiW9xB/XVMnfskE+qCZjjMWb8zKwsYAEJ0hJX93oeQcw002/MqwA2idIwPrJpvu8CNd256zsYBxlZjLiWOhI+YdwwTyYmK+bG641dJdcVOnVpa18s1vST/7me5urGsmqqvC58kCQWAmmhZhgznMLpHk7cZVdyZMMLQwTMiCuaJRmZl4RmIjzRG1z3V08cdXtPJ8U7n1CRVjyGWLoJykEtcjsd5vtCzeRaxGFWFRL6DBzbxXj7zrr+v0A59ReexRNePjFmVK+cKoioUh5dkB1WRGfKd8eAqyCoS1aRn01yNDP44UeR1lMKaDY6V4b7U4ZBVMRAYM5+bHNE/RNK/Rdlsj51/R4mPfVO7FF3Ws0dBw1FTRyCvfjcIMTWREEPUe6cNbV/HGbUfQucLGh1GupLaVtWV1b5t62VbEkndNFWbVuiid/fGCFp5eU1xFClTEjr05p+QtCGS0dcS8jDWs9YZpW6umUY28S8fv+3XNPfDbGhp91EjqtIl5TuXSmIolI3dTVXM9EzEhrd7eW+GpaDYMbwSHfsI+7OdlfYYJ+4ub+3lJLLJONJA06JxXYycRDf4Sj7ldi7TfxEkw+FUiBlHvdDfoS5efFI0V8mhIkFQBc88uMEHPp+GLxmQjzZqmqnU93K7ryh/+R+UvzmtibV2zpolVmhBX3JMS2gd6A4ORifJkTRdF9JwhxW1v1VwHm0rHLnDVhP0AJCKwEhHWKp1ohlZa+8mbkF3TIAtmwbXVVFywTjLc0r2fnNXUu4fVLK+pVayZvFoWjmTMnCyYzlQ20mHdlkY1XyurVj6u48cf0ezsW42kTitnZKi8JZo3YuIISCCUBZJycuxHKFwKN4vQBuV9MJGR1y6wI3kN8E86enJ+PWxNLm8H6Q5KYvctZWn2p2s/KZp/uoyniZh+cA50VGKr8+a67m5XNXPhkmqmcU0/90MVag2NmBY2ZWFH4o7FT9ZyXYVAXtv9MSXzu11XB7nsYVwlc0K7w1YRvHwm38Bk5npPE/1a4/iS5t4/olPvPqZacUlRqRmmujrWb/LlYZk4wur4QvGEhubeoqHT79DM1F0Wk7Vao3a0/sUyh1750s2QrLDfLW4WeR0eZBI6KrCxGSbkcT2vsKVM0UgDj2ZDU52mRi6fU+uHT6rw7DMaqzY12e5owsZ3OY6Uj8302T2D3lHA0INHElM5WdNVMJ2LY7IAt6hSVFG8lNelX6zo4o+XVarNmHE3pyge0mrU0bmllubXR1Uaf7fuf+QrOv3QrxpxfcgE+qBlMGfOyCtvwhxAXJQgw/4i07x2gZ1ENMj/jtG8rgfysPTyZtdNRC1NVFc1vnBB+v4Tan/3Sd1Tr5u2FaloJSkYabFbAyZjJ1800htwz7uTNS8L66GTI28EWHl7pi6LWsNiWnONSlWL3QWVjg3p1Ifv0fBDI1qp1LRo7Tp97M06ffo9mjj2bos0ZZ1oXGGhKVocrGg6aaLJOVWmy2hl2EsFM73iusjIaxfYSUSD/O8M8tpCsI4MyWJNS8McfiyJKHTMdLTjsbULOrYwr9YPfqT8j3+i0626xhtV07aaNuQ6lq8NdgamOV532dLdUriDyevqBa0+R8exV2bagmBDyZbWV6K6FidaOv7hB3TyAw9p5sG3a3LuYZWG7lKrMaRcsWLET1+ycwzyPMZ3QlyBeMIk/PZ8M/LaXxwhCfU6jnfWQw5qSVV9CAWONC2LCXvmrAp2HI7amjaiur+5rsaTj6vxxJN2HmnSXDHm4xZMxhuRWlw2DIwsPgQ4GFwY5G4fBpYGAjHTjs9FxmE5BBvVFKxueTUKOdXsvGnm32K1oNcXeKHobt39yBc1d/cnlS+9Sa32tFQ0VxgOT267ubZpo+zU1QnUhTsaPez242hoXrwedH7FNK+SogJfEbZBbB31jVZ8oOgY6btNmHCJ5bJLhOG3DUzA95eDX4REu4K8GFAtNE0jo5KFjXOsnG9oan1ZJ9YWdfkP/6dmL1zSzFJNc422SsZ6fDYsqGWc2x9P50ipaAM+WeN1fSTG09UVzIf39vrSCDeV7fUAibKy2/z4byssZyTrGwkiplCbkL39iCPFLfYnG1HTCG29mNNCs67c7JROvuvtevRXP6Phh+83e3FSnbCCHo0zpBr+TzRZEjMf8g11SJ7mJiFwjr1plknLZbgWjih5Wb8tcNd9Y7gTySuEsJ9h/VbwSbQmvlPZ6bQ1ahdG27HmVlZ0fHFRK09+R7mnfqS5tXVN1CONswOrheHbiMmmd0k9+QMM3zC9swvcCeQVjubHOZ89w5RtNjGH8bD/h4a11ImsbzS1MVLRnJHWOz7zKZ1673uk8eEwvdC2vlJgYSuxA/M5rA+Funje4dQOXpeeR0BGXvuNI0Reqz3y4mVYyIvFlW8MA0V3u8nLTgkFweCLdsAHLjiWTJsabm7o+NqaTl2aV/WJJxQ986xm1hc12WppxALyYXjGJ3vCJ7sqAKcu0sXQ8l/Xxr6QF+F2NerJyzAgLPnlzLWtjqQ3PDysmp2vxW2tGhsvlfKaeORNetsnP6Z7PvR+07ymFb7dXSwoVzLS4pNkQQklbXfA6uFzeua1mfPmSRqQ1+7klqCXboYdcXTI69yaLkZOXh0jL56jvTHcyeQFIKxg2tg5ywFGo6aOtdY0+9rLqn3z6xp64QVNrq5potPSkKVRgLVyJpdevETFcpcA4rJO0/t1beyJvHZA4KJdkBcmMTyS6FjbwcxdwUiobWaiSqZK2Y3r/OqK5k0oQ/fdo/s//H697VOf0NA990gjQ9ZHjLRMCGEdHFUlf3NbTet5kGGPZAiSnA1GSAIDfrfopZthR2Tk9QZwp5CXFSQMsnTWTK7zWTDMJF60Hml3NVeravryWUVPflPt7z+uu5tVjRihVbrJJjAsFciH11Z65GLa1+Zizh7uFPJiDo50/C0HHkMwtRVStmPwRSCWT71lelS5rJGZKV2qruvyxpp0Ylazn/qAHvzA+3XPo2+XpmcSFdWA1gVvM+WHbENivTnSkOQmLHxGXrcNh4q8BqFq7mwTs9E6bVQ28ipZrflc1hsnr0EI0hyY8ADPYNP1zneFq4dH0LzsjyubOYTRa2aPDeySDbq8kdQxI65Tly4q+vZj6rz4rKZWFjTdrqnEKzJWBkguoTq0jt7AKSappkseCMm0nH4wpd+PJMWr673jkoGed3Lo/c8hFZ7UQpc1r3zeTP9e/SNeFsfPzvkkGwHYZ6xTLCo/MqYrraZeX1vW+khJd73z7Xrvr3xBc+9/pwpj41K5YnK0dCOrBXEtoaB1WSqbyywC4Sb5b0OqbFtnOyDcCHaL66Z25HFkyOuJc+uajyuKizw1itWm44cQ+4uQ5gCRDhSzkVeOFwtvBBaNFNFAOOI8pU6nE7aqGWG81esa7Wzo1NJFtb/2V5r6+VMqr5vG1WyEby6z8DTsOrpdpQiJ5WzgX4VAXAPIK6wF215Hhn/vQd+usDknZISQUEc47f23lTr1Y3FtnnlLkysE3o5aKpUKKlqdu6ZpsfVgZG3dNDPxleUV1YYrmnr4QX3wN76smbe+ScXjcypM8UqP0Z0lnJAg5TVZpAjJsbc1WhluBTLy2meENAeIdL/JC65JFDe0hSRfTB238mIbhNM2iOfqaxpZeF3NH3xH+R/8QG9a2dBwWyqZlgG3EZddIpIFlimY/51GXg7IC5RKpeTcZNuOIiMu0xtNCKzZWrPzdSM3jvGpOT34wQ/oHZ/4mIr33ysND4UniMXei9OBuHouTO5n5HUgcOjJa8PcGea8zm5ovtObjM3ZnZmJ6STIviKkOUCkA8W8D+QVnP0mFdZ1FS2b8HVq06hOrq9q4uyr2vjxt1X/8Y91T62p041YFcxEc+gaTPOw8XGSSgqW4K0nr63Afp72c+VwmyztesHaNI6tQjwdrFS0EDf1Wn1DjfFRfeRLX9Dbv/wFCS1reETdUtluYNb2dvMKZJ8qM+mS3yCiGuSX4fbiCJFX1cirYqYEU9Nt00xKfUNtfxDSHCDS/SYvwH7zTiO8cF2yH0zOl20gTzRXdOLiOa1+62vKv/ysZjYaGq02NWYcM8SHNSAh03SY1A+vy/RLw4p1q8kLIkoOHClA+OfelqtRDX497Yj1Wi00rnI5mJAtc+eq61oeLunBj31I7/vS5zR2/33S3ESY+wobC9LuzGtZ/CQfUt2OjLwOBjLy2meENPdAXsH1Ifikgqeno8LqhR4Srcmux6ycz2nEXKUVa6zd0vHF17T69b9Q8dmndaxe1WjbNBTjl64RVyW2Ad9tW1wzOnMYnmEaPknUYT/3Tl7bQYqD993aLovNXz2mg/QgF5500lr4EsY/KEvukG3bZIrBWxga0mq1pnmrd+XBe/Wh3/iK7vrAu6VZ07bMtOyOlC1eXuw7nwtPFJN8Opt29nZk5HUwcKjIa1BVqtbpzvJi9lnr3E5eubai7s0xG3fCYDHzqL93mkbME73euQF+cwLDNOSUy6ya5x3FnGlamEFznbZGluZ1f6uul//r72h6cVHjKyuaadQ03OmowDbIfA7MylIIw97UNKMC4qYJMsAyIFw/UFp6Y/+6INgAbjBPCDOl61lAziG64GfHhCv4nJr9tLI3I4tTKCpvZl/dNC7WahWmxjUfNfXK2rIm77lHb/+Vz+qtZiKWxiakCpsBkogVOBwtbatkIEZLM8kn/L8NGUkdHGTkdYvwRsnLXfgaV+9ahOYQtzVcsnSitu5p1DV59ozq3/mOcj/+uSY2TOPCjz2rjDDCwA3T9GbO9fSX4Gxw95LcBHnkBuwUG8gLtwuENHrn29Ajr34E4ggRtsiry3chKa+RVpdlLnZcbzVVHynp9eqqaqNDevsXP623f+yjmnzoAfOvqFSsqIjWGAoL0pplukQ7lCHDgcDRIa9zRl58AHSTvHjaeOs66mAxJ9rAVTDTLg2CMDUWW13gK3egkIuUb1WNoCI9uLysxT/9qnI//JlO1muaaEfBRGQtF+8qUl2IgBMnQA7JGO959LAv5MV/fUngl3xNG+n35dlHHOG6+RG6baexEVfbtK/FZl1PN5b0kV/7ZX3sr/+a9PAD0pBpWkZuHbaLQMPqERdpdkO629PeCRl5HRwcevJihT3k9cS55Gkjj8iVjxR30LxuXUfdmbx6p2n0yMt5jSCc+5LPMDnPwzULNmFcPFpfVffVZ9V94gmNPP28TiyuaqLbVsXIpxiWFXTCRycYxOhcIdlUvjeLvPpBvqSbrNoP0+/B35EmDpdL19qrUyppOW5q2S63hioaufu03vmbX9SJtz2i3NRkWMPVHR5RWUUNJ4IiprkkvYy8DieOFHktGHk1WXGej40f7jzy2jxNk0YvQCCTrg1kIw7mvYYiXvmRppstTS8v6Mo3/kTdH31X95uJiKnYjRrhI6sQHJTFzhIJefFHuiHZgFtGXmhE9pc8JOiRl2XkJiTaEmWkyqHadp4fHtJSu6VLbF9z1zE9+oVP6dHPf1KaZV6rEszIltnTDdMyeblppDJkSW4vd0ZehxOHnrz43H9CXlUtaFgNGyx5G/1tvsnuqs0twEAhm2d/kSkSr/WAUDoLAJGgL/EaD88Ih61Ow7WG5pqRphYuae2Jx9T8wZO6t7EW9qEvYCZaPEgOR0o8pQspJv+2FSh8tr4P5HlV4QxMqg8a3+mQLtarg5kPAYPZiCZotNU750KezfTNMTvX7HZkFKwLjaaimWkjrE/pHV/6jAp3H7cbkNXNSC1nJmQuxOGIhMgxFNxcGonGuhtk5HVwcKjIaxDq5tgGGvK6nBsOA6JQYkV2UEWSQLcN2zUvQJGi3gpy4CXMmRZVsYvsHzVkpHW8WdfE+bNa/cb/1QjvKi6ta6bZVCWsuTfCswG96/olTJWcpzBoIGOy9nMdP3mY4Odb5IWRmgA/jwaV8Mc8HFoYs1rsCmGpq1wa1rLVYyFqqjpW0fEPfkRv/9KXdPzRB1SYnlDHNGfKZVSeJJYG+Q4kn3AhOc1waHCkyGs+N6IqT97KpsHcoeQFwk4RBooXXry2YzeQV0FDNthnquu6b3VZV/70q2r/5Ls6WVvXZKOjEV75scEbG7vkIaTdtuweyGsniYUkDCGlXqBB5MUx+eyaG+0QWEdRMadqsaBVMw/XKkWNPfKgHvjIB/WWj39CuRMnjNBjtYzgChaGdMvl5NWebSDBjLyODA49eTXMQV7fYc4rP6r1TqRSJad2+84gr0GgSWgUrmJCciya3xgr5800nLhwTo3Hv63ukz/RsdqaZuKWhmM+Is8sUkJevpRzV9gDeQ0CoXYiL08i7R8ZCUFqBfvrlvLhhrJqBvFSKafR++7SW9gU8IPv1cgD98lYSt1iaXNJiZeJml6FUJBeJtsQLiSnGQ4Njg55nV/XQs7IqxupaOQVscLzdpPXgOxpDNNFAhlgnhVM42KVw3DU0nRjVbOLl3T5L/5CpZ8+pdNrkaZMUxm2GHlMTUsvmUcKRlmS4G6wB/LCx4lqEEJKvWhEh8AAfq5r1QsdlrKFLWhWjbiu2O+14aJ+6Te+rEc+9hENP3ifuiPDoe14lads5FWIOuoYecfWXTGMhyumefWXg+Qz8joyyMjrNmJ79k46UjNv5pZxz1Anp6FmR5VImmrVNL3wvGrffEwd1nEt1TSVH1Yp5qmdDecwd8Q2x71V84PmhHbCHshr0JwX8Fc0Q0q980BenJuHkxeG5MZITjXTgDfqbdUnJ3XqY+/VXR9+t970/ndLExOq8cZArmCaZFHlPC/SW2QeYlBOkw2Lc9FEryoyeWXkdWRwZMkrbg+e0L7p4ghZJnnwvxchGdz2R/58esy0jfBB2FZDE0uLekvU1tnf/z1Fr7yu8cVVzdUiTYYnbTaYTXth1bpyySs/1qh27rNNu8AO5DUQlh9FTpMYX97uFDsqGtGUimXV6k21Wi2NmvbEM8DICLZhrlMoqlAZ0c8XLqk7O6273/2oPvIbv6yxRx+RzGTUxGhIH6OSxbsFXusJRbP/grN/lml408Cv9YPCXQU8B17IcIBxtMmrv0OHMXKTxRGyTEy6hLB6Y9CLYvl36g2NDFXUbdT1pkJOlRee0/o3v6XCD3+h4Vak0VasGYtcabctLk/tLHJvyUEy62Wur2rXxB7Ii0/GAd/Bgl/sTFEaL2ptZTWYgqOjkyqUimpb+WIz99rFvBrlkpbs9+WNqioPPah3f+lzetsnf0m5Y2PqlovKmcvzPqJP8W8Wp3fCgUqRYSjCHszirUgZDhGOJnmVjbyiW0BeO44XzDrLy67j+AHh+BO48nBBLdO2jrUj3TO/rKWvfUNtMxWPXVnVcLGgisVn25tSF7IyR/wUW4W09qRN7T5sZORFmdkTDPJC+8Lcredaqpi22Kq3TGMsJ0saSiXTtCq60Krq5fqahu+/R2/+8If0/l//sjQ3rfZQSZ0yu5+ytxZbVpcS0t2pKGlGDmS9WxAvFTfDocARIq81LeRHtN4x88YGTMxSif4OzUDcV/LaSouzrdySuS3MH4gAAih2WA0PgUljpUgjK0ZeC1dU/dpjqn73JzpdN23LTC+mq80Qs7HbtrFs4S2dxJDrTY1b/JtJXomWlxAXq/eDH15DRrjNliKWa5QrYbfSK3FDr1eXFU2O6k0f/6ge/dyndOLtZiKOTmD39d4zzatjGpnZlmZyGnnx+tZOyMgrQwpHiLxWe+u8uiqU80ZeTGj3dWiTxP6TV5Kea1gOfier3pP5o6BJhdd5cppcmdfx5QWtfedx1b71hB7olDXZsnJHVpEwIc/eWZxjHjLYe0TcS/9mkhcaHqVOiIuV+1Yayx5abVkdhiYmVDUSvlRd1eqElftdj+jDn/+sTr/rndLsjMUxM5fK8ymyUGQrq4XnTYDwVaFe+tuIypGRV4YUjh552e9C0cgrtSndJkwSNySOHcfFFikwXtMp++s6aFrsajoUtzXSjjXa7uqR1St67Y//UCvf+64ebMY6kasoV+NJopOSEZiZv5hrCXlxZXshknC7xK6IIEmPCXhyLBhrscFf2zSxsGTO/Fom11oxpxeNeKcevFuf/n/9bR3/4LsUWbjC0LCKo+MWsWBFN6ozooqM8pqmdQ0ZkZUKZsYbiSH/UJPrkVfIcZd1DDLKcNhwpMjrEu828ujdlK5OvPulBEFC1xJTGFPXJgAnr0TjsrDdQtjZdMgGcZxnEr6hybVVTc9fUeNPf1/dZ57R0FpTx7rlML/Eeq/wJbJtIEVLa5dEFbSmQaRAOrtIg3Kz4h8CK0ZGWkZCUbGouFJRrdnUpU5dnbtm9OAXPqp3fOFTmnjogbDIlLr2hGRIiMS7XVIezu04sGz7gJuUbIbbi6NFXt0hNVmtbQO1y4vZu8QbJa8Q08KEZHphww4LzHPZ76JaOlWva+7Cgpa++k3pR9/RlBHZuBHsiA18ojChzSOGqwF5XZs4Hdckr6SUW+iVNw3Kno87ajVMCzQ5Ds3OaclM2RcX59WYHtG7PvMxvfdzn9TIW4y0JketYkZUpmmZmmWxPd9raEEZeWXYA44UeV3sVsy0Kd9S8gpR7brH5qVkvu5jglfFTK5uo6rxVl2nF1c0/8df1djTL2t86ZIm2i2NqqCiRWaWizLfKvJKCNZS9qOZtVS/wIcv7GKhMqTlONJZK3s0Pqqx+81E/Id/R2OnT6gyOy2NVgJHhX3jwwQ8AvB8B+XfQ0ZeGfaAo0FeLSOvC8s98hpKyISNsXaJIKFriSkMjkEEYiQJUdoZc1zMTDHRXcYMNEIY7rQ1HTU1cuGi1r/+uLrf/6nuW6uqYv4ldkGFlywy03MsBOVB39XYL/LqHe0yqSEjyCvIirpbvKJpUU0LMG8m7rxx/8jD9+k9n/+03vqRD6t715ziUu9bmBaez5Eln/VP5Ew9rouMvDLsARl57QJ7Ia+Qth3xQruCvCAupqHDWiYzFXndh0WeM40Nzc5f0OrXv63ad57Ufa1IE0ZmbUWB5IYiIww7JiRiqQ4ssgV4w+S15QfVsssDeSKiUHXO7YRvI14sdtW6+5ge/MRH9ZG/wXqtGdUbTdOwKsqbKcmuD2xvQ1h2uCgyEb9bZOSVYQ/IyOsNoMuIBmFwmGnFILczjngV7DomYmAAMwE7ponkzdziU/vHW03NLcxr5RvfVPSTZzQ5v6Dj3dji8Fk2i2dMVbQy8o4j2Im8Es1u7024+WVoKyw7V2BEs3i+HbfCrhS8gNAuFlUolbVUr2rRTMSJu07p/s99VPd+7P2ae/AB5SbHwt7yuULJTNqS4t4+ZLzWFL5kbemjge2OPHYV6MZwE5POcPuQkdcusJNC0GFrhN410682zazkN9pVQl4sK+A1mfJoWdF6TQ+ZeTX12ita/KuvKf7pU5pkI8F2SyPsgGpsxTwXWz4z0b2VtaU4oMjpPK8HDNdcz/ZMmh0fVrjbMTJ1MGorV8qpadpVtZjTipHSGTNpm8NlPfrZj+n9X/6CZt/9sKLxIdOqMAshJmiPslKQVFdieQJZIbybpVHtFrc5+ww3Bxl57QLXIq9NsjJTKwiStPnNaU8r4pz3jkv1pk7HHZ28uKCVrz+m9e99X3MbptGYuThk5mLJ0ojMThziA7GhkKkyWlqDyrEX8kqDZseFZQ/2G1ewPCIr6GqXZQ+xzuRHdM9bH9Y7P/1RPfKJD6k7N67ckIUM7zemnYFuFAQAzC8jrww3GUeDvNrSt428LncS8goDfp81L/sVxu4mmfEfpp6dMdd1zLStkYVFnVxcUfXrj2v1Oz/QPUYdlVpNRdO6Cl3TfPgwhRFYCXPRoubTrLQP5EVTB3PO4GYjpm8jbqpYKas0VNHF2pqWC12tjw7pA3/jt/TeT35cxbuPS5Vc+MgtJiGaWlLxXsahmkldN/19YWj42Qt3u3Cbs89wc3BkyOtxIy8+Oruf5MXWzOFIemG2KwHB4a2C+UFCZdO2JpeXdGp1RSvf+JbiJ3+oqaWaZoy8ikZayechcMmuEGhD+AXuc+yVvEJcLthJuE58Mw9Tq80xGkF3dkznrHyL1aqKp+b0ri98Rvd/8L2afNP90ux02IYmMlItWFzK52ltW7nu838B5h+u937uJMBbhducfYabg4y8doFBYw9i8Qn7sJ+VORvSgXTyRmrMBFWiWEOxNN6K9cDKki5//S9V/d6TOn1lVZNtI664p20x2C0uaYbnkiE/Jry3mgavQeXYibxQsPKBXEiDhM3DDtBjuI4W1rv6dHNVxZPH9ZYPflBv+/QnNPWOR6QJ5NQx+UXhZelKoWhETHq9cqF9hfR7mWfkleEW41CR16CqtGzgnDOOeOziihbjISOvimkRdoFRPwCD0uhfXsCvwCsWlgNJJc4IqB2FheWR2ppqxpqrt3VPtaHF3/sPWv3FLzS83tDxdk5jUSGs9coXSaG/LAPKYI6lB/3oD5n8zgfywkQcHR1W3KrbhY42Gk3F+YLGxya10Ym00mlrIW5o9uPv1ds//XE9/L73mqY1qc5QKawtCy9f2xGZdC2t5LNnEFPIxHB1ea7CLoJkyHAjOBLkdd40r29dMvKKjLxKTl5c7R9ZTGL3TlPYNXlxMW6rbGpXN6rrvlZHc6bxLfzZ15T74dc0zOS8ihppdsOkfB6bkpn8XWIQeV0N091MFUueBObUaNZVLrPSvaC2EU9hbEznl9BCmzr2jjfrkU9+RA99/IMqnzwmjYyEisUWDyIO3+kJlU1kG8zOJJPdYU+BM2TYG46M5vUt07yu7CN5Ac+P/8M6LIPxhBrLi5orSm9arWrh/35drW//QDNrlzSZN/PLzMhyq2smo5GBhe2Udz/Cd0NeSTEgMDuwrqxS0nqzqpZ5dIaH9eLlixq++7Qe+fRH9N6vfF7Db3lQUbuVbBxoLqmdxbe8uiyhSGW5aYXuFruvWoYMe8aRIa9vmua13ObFbCMvBuEbIC+ipYNBGMkuqF2V6zVNNaoaW5hX9PiTan3n+7p3va4hM91KRIo6Zo51jYisEKYcddjMa5cwval3lkKiAibnBpQ55p9QvNgzaz1qqzM2ovmNDS2YmXjiPW/XOz7/CT1sGpdmxlQ1s7WUK1raRlRobOZIMnwiHwKj6pySOKd+shvsJWyGDHvEkSMv5rzYf2ov5JXWeBjMRA2DuofwWX2LB4EdX1vX6cUlLX7tm1r+2l/pgW6kOVbON6OwvzvJM29UIE2Ypqex7QaQVzrfELWPvCBQK7CqpkRVLf1aqaBX11Z036Nv0+d++7c0+TBPECcUlYuqm4k7XBkKGldCvY4kExa0Jnm4jx1T+V8XewmbIcMekZHXNlj8AdJAKwmwA5/4gkDIKry6Y+cldhA102vC8rmbV37+8q/COq4TKytGXG1VzLHxadhxnvVVBTPnQlRLhKeAfRg0s4QfzzJbnUiFotmkpl3l2hbXEir2viLdbEdim7J2uaDFchzmtfInZvWeL31OH/zcZ6XJcWl81ApcsOidMA+mFlsCWn5WLqoe6pZkGTROSuIOZOSV4U5BRl7XQBi08EvyMwxsyIvJeTin1DDiKEuVZkOn4paGXjuv5mNfU+3739Xoal0n4qJGzUzMmelGyaJiXh0eRRrCkzzz5XuL/UAz8zx7pVDXCJKXnXPlkoqmKdVrjbBlTnloWOu1qjpGZJ2hshqVoua7DXVPT+nBj3/AzMMPa+otD6k0bsRFIVx1s8OmtIKfOftH3dJSDPVPLiW//WQ32EvYDBn2iIy8rgGuBrPJYR6bmhdKj6XLvlunG00du7ygs1/9ulo//67GrrAfV1ETuYqKcJMFLpJQ+PJOkmCYmzKa6OySvIrmxzxZvd1UrdFQxcy9oULJNCjT5ozQWqZNvdZYVXNqWCP3n9YX/85vafatD5umNWL1NQI1bS3PWq3APknqzmPhNz842K++Kof/wpFTP9kN9hI2Q4Y94kiSFxP2kM+Nji5isUaraERyfGVDdy+uaekvvqEr3/uejrc3NNasaaTDRoKlYF5CWJCXr6R3AmAGzMksDa5vlYwzc5YQL3cPj42qgXlogTA/+ZTbuY1VLRdiHXv3W/XBL39Bb/7w+5SfmTKGtHhmDnIM5mpI2OL1styJvK5Ccik59ZPdYC9hM2TYIw49eTVttEFerPNy8gqb+12HvLhCaoxpTxU/dongiVw5MjNxdVEPLtW1+Cd/pe6Pf6bJjXVNGpnwMVg+DUYMSIYtZvggBp+oD08l8SPdkH0oyGZJyAuC8N/JGRpbTnkzF69cWVZxeFi54SHVTGv7+cJ55e6a1Zf+n9/We77yJWlmUisrVzQ2NWVlNaIK719ahUvJC9Xd2LSwXoWS/IGd8INDz2cbkkvJqZ/sBnsJmyHDHpGR1w7wK8wBuWFn0VS0iJDCZKuluYtntfbVx1X/zvd01/qGZs18K5gJGXZB5cmisURkxBUzs2/ajz+VBJiuXA+T9gYnlKAZ2bWtknGWCx975cs8cTMK5LVQ21BnekwPfOljuvfTH9bcIw8oPzqiupmUIxUjNystrykFUkIDY1kGR/NKTNbkUgL8zSWXr0ZyKTn1k91gL2EzZNgjjgR5nTX2gbxWWkNqF3pmo4UdVHHGW3B2MXwkg0Ft8XmKF+XaGo1bOtaKde96VRd+93+o+dyLGppf0jFjxLKRZNjDC2dmJcQUvrgDSRlxJB/dCNn0NC9KAIEl+YVf9qNh5ujE+IQqpYpW19bM9DWtzYipav4XaqvqHJ/Uw5/6iN79xc9oinmt4bK67BXPE0NLZHNpBwluMoj9wH9P7PMGcQuzynD0cOjJq9Ejr8d65BX1yIsNbNKhA1lx7J0DyKZrqleXrzlXCoqa67rHYk1dWNDF//tnGv7RD1XeWNNQo6WJ3JBpNMkHMyAuWCpJJ9HAkmUHpJdklHAYAXqZGSCuoHmxV3yrbYSXD5PxjVJOi82qqor0js/8kh782Ac0985HVDw5Z2zJV6YLoaxBZbsediKvHbyvwlZxr4/dppkhww0gI68eMKUgm7RJxSl6EXPenfVVnTTt6cT8FV38s69p7bHv6qFqXSOdlipmSrJGPbb/ixY+IS83NhP4Kn3KmBSzl5FlSlnY5YF5rbAMo5tXcWhI8VBJr20sq1Yx/9kxfeH/+W099M63KH+c9xCHTXvDDi2Ep4gJUZLHdRgjI68MhwRHgrzOQV4XkzkvzMYw52WjMB3aSQsS8DFnwgljfRQzbqOqmSvLWv/6t7X4+Hd1qt7STJstb9phHgzEOfYjhe4wGQeTF6kHbrMzNgSkHK04MkI1/6IRoBVgeHRMl2premHlskYfvlfv/ezH9bFf/2Xl7z9lBbewEF2e/eWNtEK6mKQc0Lx6+ezUrBl5ZTgkOBJzXgl5LYcXszfJqy8o5MU8FFoZC0j5PBnzV5wfX1vRsaVlXfr6t9R48vuaWF7XJNcs/FBsJqWd8wQyzvHpL5gJ8oKWtrD1itEWeQHCxAWLWyqoZZ68sjNvJmJ9oqL7PvpefeQ3f0XH3vImK0xekWVYNDNSRlxk0zbSgwDDRy4CMvLKcHRwJMjrfCQ9buS1ELMZoZGXDSob+xaBWSiEkIwziIutjiGjkVZXY+2uRlvSuxoNPff7v6fz3/ymTteqOlkoW8C2OuWCkVzyOTM+ssFHVsPoDrPykJcRVW8AhzysLMm8V0KWUScOeWq4pLoR2HKroeVGTSc/+A6958uf0wOf/Zg0VlLN/EvlsvGXkZbVcXMrZ14Tgow2CYnEesjIK8Mhx6EnLxapsp/Xt428LnUqapYqYV6JJaMAEsFBLh0jEwY367JGGi0dr8eaWqhq9Q/+r/T8MypcuaBjrOOyYJBV8oYieUJTITU7S34HAmPnUS5AGKYhRSwubUUaLVeMr4ZV67a1Vox1sbaq2nBRxx55UO/4+Ef0yN/8FbWNtIJJaPF8v/nwRSFyMPJCwwsr8dOmIuFvFLuNSvV2izdQnAwZrocjQV4X0bwuLOlCt5wir+QJXZq8omDP5TQatXRXraVji8t69U++qvaPfqqptVWNNhtmLuZV7jItb5oWEZOP8Ye8ktHKxDvnaEe85hMys5/Qmmldds7GzyNj47rQWtNLjSs69vD9eu8XP613fOqXpNMnpHHTDt0SNLjGFsgLgqKc5kg2I68MRxVHgrwWbKw/dn5ZZzpFNU3rCeRlBMQ8lZNXIDDjgai2rpMbDd2zuKqFv/q6Vr73PU1trGvGyGe41dFQXDJKSramCeTVMxE3YfklpeB/Ri+kIxXN5OP17I24HZY+rLebio+N6f5Pvl/v/uRHNfXoW4y0hoLWl/OJeIuXaHIhle3klVxMfjtLhPMbxG6jJsXZHd5AcTJkuB4O/5yXscyKjflvX1rXi0373SMvDSCvUlTXZLumE2cXtf6Xj6v+5A80aybdcLuhoTaf6WffeYufZ3LeIpCOHQNd8TuAea7tozaEMNOvXpLOVld1pRDrLR9+n973q5/Rqfe8VYW56fDqDqvu46KVyVg0lKlv9A/cjDCNjLwyHCEcfvIyJWXNiOHxSxt6odlVo1wOn/JSp3wVec20VjW7cEYrX31S69/4vpmObU0XOio1amEzwWIHjYuPU8RBSwsLQy1e0JJ2JC+ILqfVck7PL11U5f6T+uL/++/pkc8xGV+x6GZ2svqe+TLSsnPIkTRCuilk5JUhwxYOPXlFNqDX7PiDC1U9t9HSWskIqFI2DYoJ8UJYSzoUtTUVtzQ3f8GI68915Ts/0exKQ8c7eZXMP2cubPcXJswhluRFa8UsLs2pXCqHvbaYxA9mHssejIAaxojL9Q2tWSa5t9+rt/7SB/XeT3xUo/ffI1WMiCqlMKfPqnuSg8LCgO+RVz/C9WvhjZBXhgwHDIeevNB6Nuz4ylJHP7qwoOVyKezp3olyajVjTRTLmm02NXbpnKInv6fVP/+6htfqmjZiGjVX7MZmZjIJb8RgRAU9QFGs2yoVCqY35cOasajZ0lhpWOXRYa13WjqzuqQz9WWdeORB3f/Bd+nNv/0lnXjgXhWGhlkjEVbGk1i3eLU21a9xZciQ4WocavLid8uIpmF606ppWE++sqDFfEHVoSE1TfMZiaRjjVhjr13Qha99Qxvf+5GOL69r2thovNNROYqMX4yeLNlAW5iJpGsHozR1CmbqFYuKolgjIyOKG22tdBpaKcRqjVZ074fepbd+4sO65wPvCvvGk0TH0uZ1npAO/5mW1o+MvDJkuD4OPXk1ux21TTvC/fTsks62Yi3aeVzK6f5CSUMvndHSX35bV374M00sreu0imZGRqp0jLjithEVuhWCSpMX6+dNgcLkYzeHUjHks1qr6nyuoQc++l59+Iuf1WlIa2YszG35wtJAg0yYUVRIykzEfmTklSHD9XEkNC/eBYR4LtZz+sX8is7Umjo9OaHCiy9q6Wvf0to3v6exWkf3VsZVXK2qYkSEQciEWOxftLb4W3NOZjhi9lWMtDqxrjSrWlak0btP6NFf/pQe/Mh7NcVXesw8bec6anQjlY0CC/lAg4G8nKAG0VRGXhkyXB+HnrzamHd2no87ikpl/eDsml5aWNOpRlMXv/oXWv/2d3VscU2juWEzFYsaa1nYrhGXxYzyZv4ZeUFlTjNJDmZMmsbVMdPw3NK8maEFPfrFT+rDv/krGrnnRNC0+FBG28gqZvLdwrMJ4Sb19ciL3xl5ZchwYzj0E/Zh1bz550xD6uRLqjbbOvf6ef3f/+//T/kXz+vkeqxTbSMiM+sKUaxh07C6ZjLG5roWNxBNoWiaVtHILK+WKU+sfq/nO3ppdV4Pf+ID+szf/U3NvusRdcsWtlKBfZInhjxF5Byio2z85g+zEQT2yogqQ4YbwaEnL75PiL9VNDwVBFGtob/49/9Dr37tSXVfndc9GtbUxJg6jYa69abyBdOUzCxMeIVtapIV8cutprqmbQ3NTmro1Ize+2uf17G3PKCxh+6VRsyEjKLwMVlW019NSpZ5KJ/5b5IX5xl5ZchwIzj05IWfT5b7ddZs5Zer+sWfP6Yf/MGf69z3fq4J05imh8x0rAypVCya5tWLY2FfuXRexalxDR+b0X3vfKve/qH36a53PKLoxIRKx2YtlGl1po0Rh11XyzxN7CclsiZ/vP1aIK8ekWXIkGFPOFLk5Qh00YyUb3QUnb2sZx7/np7/6S90+dUzZg82jFMw7QLLBH459raHdfzh+/XQo28Na7WKc1PSUMlMSbtOlgRlMj7Esbz8CeKAJ4nbkJFXhgw3jCNJXpuU0o7VbZmpx1etG22tXlpUt2Zmo5FKIV/Y3Ipm6L7j6gwVlS+XAyGxnwM7Q7ByotQJs1iBEdlUMPCRJR1ILSOvDBluGo4EefX78zuKY+ULeXNGUtCPmXtqG4nBSOngdt4udTY/08/vNCXxwQ2usPaLiXz4KFnUCtIhByCQ13XCZMiQYSAOFXntBftR7WxJQ4YMtw+ZzZIhQ4YDiYy8MmTIcCCRkVeGDBkOJDLyypAhw4HEkZ2wz5Ahw8FGpnllyJDhQCIjrwwZMhxIZOSVIUOGA4mMvDJkyHAgkZFXhgwZDiQy8sqQIcOBREZeGTJkOJDIyCtDhgwHEhl5ZciQ4UAiI68MGTIcSGTklSFDhgOJjLwyZMhwIJGRV4YMGQ4kMvLKkCHDgURGXhkyZDiQyMgrQ4YMBxIZeWXIkOFAIiOvDBkyHEhk5JUhQ4YDiYy8MmTIcCCRkVeGDBkOJDLyypAhw4FERl4ZMmQ4kMjIK0OGDAcSGXllyJDhQCIjrwwZMhxI7Mvn/q+VRC6X653dHJD3zc4jw/6gv58c9nbz+u5HPdOyy/p7gjdMXh69Pxl+4/L5fHCg3W6H80KhEH53Op3QEN4Y/CYOvwnHeRRF4TwdDnDOdU/D88hw60E7ONJtRNsA2iaO46vaEPT/vh2g/Lj96kOe3m7r2j8OgMt00DWwU1pHCftOXn504UI++PEb0qITQ2L4r6ysaG1tTevr65sdnXBjY2MqlUoaHh7W9PR0+O0DwMOkCQ1/0qtUKuF6hluPWq2mcrkc2tFJwNvd+wT+/QTB9dsN+g59iLJ5PwRe7t3Cw9N3vY+mMaiuTuqUAXgY0mCc+G/SSscflNZRw76QVzqJ9LnfNRB8tVrVpUuX9Prrr4fj4uKirly5EsKkHSgWi6HxGAzHjx/XQw89pHvuuSecj4+PhzQ9X+KQPsSYNejtBQPwwoULoe0A7cPgHB0dDe02aADe7jbz/ko5uInST90y2Auos8fjpttft53qiszo78vLy6rX65th6Ndcm5mZCemliXCntI4a9m3Oqz8Z/91sNnXx4kX9/Oc/1/PPPx+Ii0YZGRkJ5EQ4OjjO4Q3l/jQU4e+//349+uijevOb36yJiYnQ6K1WK4TnPMPtQ6PRCMT1v/7X/woE4G1D273pTW/Sr/zKr2hqauqqgXe7BmG6v3JOWb/61a/qiSee6PleH9RxaGgonEMw9Gfwrne9S7Ozs+GGSz/1fuwaGfAj/p73z372s+CP/EiXND//+c/rne98Z/BPk78fjzIK/x9D7/wNAWG6QCEnSOvs2bP6/ve/r69//et67rnnwp2NBqTRCUOjAfxoRIenQ2NxN+M6YSHBZ555JtylUKnpLHQOwhM/fXfKcGuB7JeWlvSTn/xEq6urob3oA2gT3Hje/va3h2P/oOv/fSvhBEbZOX/22Wd15syZzd/XKxvaEfXEYTbTvzc2NgIJkQ79lP4LCfXX3c/Ji75L3lgl+Hu6nL/jHe/Q3NxcOHcH/HiUsW+jHYG7cCEWOvD//t//W9/61rcC6UBA3E0gLhzE43ct7jTE7wd+pMUAoDNhfjD/9fjjj+trX/ta0OSYNyNP74gZbg+8jVybBrQLbcjvO9ms9xspROLERbk53wkeBgf54EiH/nrvvfeGuVz66L//9/9e3/zmN8MUiYO47hzEhfjQYEkTWbkZm2Ew9kRe6QZLNxyCRvicI/Af/OAH+tf/+l+HBqMDMJHuDesNRlg6DOCuBDFxhND6GxbiA8QnDvMAkNaf/dmfBYJ84YUXAiFmuH2g/WgzNxmB36hw9JX+dr2doM+6g1jpo5SNfsmR8jqR0efwTzuup0FY0uEIcZEu/ZR0MUX/+3//70Gzog+jkfr4YVwgH+LS9+nr5Ek63AjQ2jx90sywhT2Tlzce5w7vsGhb3/jGN/Tnf/7nm41LuLTQ6Qj4MYH7nve8R5/4xCf0pS99KcyJ/PIv/3I4fu5zn9OHP/zhMFdCOL+bp8mPNMn3xRdf1Llz58KdP8Ptx2EYYF4HjvR1J7Z+R19GUyIM4Ij5iB/wmzPEwxTKX/7lX+q1114LBAVp4bjWT0z9MsyIazD2NGHvdwrgAuVIo0EeqMnf+c53ApHRgDS6dwDi8vuBBx4IE+9MZp46dSrcWVyzckBSODoCk8DMl2EiMqcCkaGhoeFx/ta3vjUQ4H333deLneF2gXb6nd/5nc0bCX2DAfzwww/rb/7Nvxk0EXCtgXorke769NH/83/+z2b/dY0IPPLII5qcnAznabgpTFzCYw3wQOry5cuhX3Oda+TDOWPiAx/4QLhJkx5jwjWtP/iDP9B3v/vdMEac1MDf/tt/Ozyk8t+O2ym3OwV7Ii+C0hh+jkBxqMHMbTExjz+CpQFoCK4Bljm8//3vDxOQTLK7NuXhgTcQfn4kHYjq/Pnzeuqpp8JkKGUgPml95jOf0cmTJ8MgwS/D7UM/eTFgaf87lbzSSJMX5YZY6H/cKL/85S/rve99by9kAu+jgHPCQ07MWzFtwoMlpk0gQNKmbxMOUsO6+OAHPxjiuD/k9eSTT4Yxw40bf2Tzt/7W39p82pjGnSK324k9mY1pIDyED2l873vfC3cNiAYCocNyR6ET0Ag8aeJu80u/9EvhETJ+xCM8aeBAukMA/MmHhao8fuax8Sc/+cmQLg366U9/WidOnAj59cfdDYhzI/EOO1wuNyIbH1R+9DTeyGC70bLcCMiHsuI8T/qblyHtvO9yTniIiRvpF7/4RX3qU58KfRN4WqTD+kaWDS0sLGz6p9Py9NyPI+FuJyjDnYg9k5cL0o+YdZiL3HXw467B3YZzyOlDH/pQaEy0JO8EEByTk9xlOIfo/E6TBuFxNCJ3r2PHjgVNi7s4RzoH+QHS2i28czj8t/ulf7vfUUF/fW+k/v1xaNf+tt0t0mlx7u5mwtP3Pkzfo0+nHf2WPufO+zFxOOdmy3QGmhvxPS3mcJn/Yu4L0L/p+97XB/3eCWl59BPfTm636I/T//tOwJ7IK11wGgPt6ac//Wmw9REyREIDIkSuMb/10Y9+VHfddVeI4w0/CKQ3yNGQxOEIIL33ve99wQzlOvnRWfZDqHQy6uAd9lY2lBN0ugPeTHgeni91pu6efxp7LUs6POe0E0i3q7s7EZTZHfAlPdeC18f7K6SFxcEY4LffXOmrmNVoYP0y6JdbugyD4PE9X1w6vcOOPWteCNMFxgQ6E+lOSi5oBgAT8mhHrKq+U9HfOXbqBIShTjcT5Ol3XZfvzYLXB8LyepGf3+VdLmnZ7BVefk/jjdTnjZZlL9iPvDw+y0fe9ra3Bbm69oXjHPLym4U74qXPr1cWD+83n3R77oRrpbcTrleO24U9kReCRzgcmWdinotG4M7EbxaQIkB+ozLzVJE7zl4r7o28V7dfoLM5kVB27xT73YCk5+lypDMjx7TffucJSBPnMuPcSZt64+9h+t1usNtwO4F6+2B0xwD1MqTbo9/dKgzKz+WZbjfma9G2KD/ypX250bP6nnp43/W4ewFx0u3GMS0X0u8vI/DradePdHlutHw7YVD+7vaCG9K8AKvmebrkv9OVe8tb3rL5eBf/vRbqdsHLSgdw4MfvdIfcL5C2y4ijmxeeH/5epv1Gut3Il/wYWMxdcn474fLAMSgpH+fptuHc3X7D5e7Yax7eZjjK7nXA39uVI9c597o60nlfC8T3dCBHHHE9TZ9L9rD97nrYbTluFLstx07YM3kBKgV5oXWRud9VECTu3e9+9w0V6o1W5lrwdCnfTmDwzs/Ph0Wvr7zyil5++eVwRCPaa7l2Gx7Z8Xidp08sB/E8KQN+/urUjchlUF1Jhzz9sT7LUJ5++unwbh35MhXANR8INwvXqo+XD8cDoZdeeimUjRXqlJd69ZfNf5PujciqH7tN43r5QSAQl5PXfiCdH2niGH+QJMszkNePf/xj/fCHPwxLNpAbmh7z0Nfq/7cD/fK7liz7sad1XlQeATHh+Hu/93thdXtaGJxDXH/9r//1UAif6Ew32qAG3EuB9wrSxlE2OhJERB0AfgwUFhXS0NSHwevvmFFW4vD4m/kL1vqgVfLUE3ANkD5hr1UPrrv5Q0cmLAOTV5sgD17kpWyAMJgaaGE87GBLICZ/77777lB22oHrwPPuB3XjGp2a66TJOXEhxV/84hdBc4YsCes3H/Jk1w7WZvGEmLpCGMiGJ2WQKelB9Dw0efDBBzfjk97/+B//I4RHNoRjoTHzPjwhxoRKw+VFXEC/YpEnREpaPJEjH9IhDGkiD94dZKmMT0uky49s+zFIPv1APqzzeuyxxzbNPPovZfwbf+NvhH69W1AO72ff/va3w/pHyuDthgzpR3/n7/ydzTHCOi/WmFEf+onLzxepAn6TdrqeLjPmniEq+hR9lzDUgXSQDbLn4QFt4W+uUEbKQzlJm3bjARxxKCt9niPloU+wsJawXB8EZEV46kDapMmTVW7KLCPhOvE50i9Y98lvnIM46eO1sCfy8gFA5//d3/3d0Ln6OwtruT772c+GCgwqyKBCeRH8uJuC7wakR5k5IvB0VWlgBEtjQSC8j8Z1Gh1hcqQc/fWjsekAEBmDyBuDcOly4+e/OacxKQP5orWy+wIdjnwpI2E9PHk76AzE98lf8oVYaAfy5tgP4hOH696JOJIv9WWhL0+IfeB4/oT3sPhRP1+b9z//5/8Md3WvB+F4kszaO2SCn5MX5O9hGKiU+7d/+7c3H96kZQOQCX3qRz/6UUiD18wA4bxs5MFvBhIOUuWmwtwqb2ogf8Kk4Xmk89oJ5OPkhVyop5PXb/7mb4ZX2frBtTQ8H+rM00YG6O///u8HmTN4KTflJG3k+uu//ushDu0FefEOpA98r0uavLxf0E70C4iKfkQ8ys/1dD/kSBnx5zrn9CPagdfvWChLHb2/0G5/9Ed/FLQ2QD7EI02e8H/lK18J9RrU54ifdsShXf/bf/tvgVS975Mm1yFvFuuy3In00mlSbq/DtbAns5EMSJRGoYEQIBVPZ+QdyQuzm0LcLJA3wqIsdAi/i3POwlreNeNuR6O5wLkjIWji8ZsjdeQOR31JAy2NRmGweUfzzuEuDfIkDETFAsU/+ZM/Caup0fhIE5AnHZdO7oRFx6I8HKkD+ZEvnZV8Sdc7XjpPbyfSIV2OdKA//MM/DDscUBfSJS/v9IShTakf8YkHkXhZSY+O6zvbIhvS4Ui5ieOOsO7SfulrXl7ky80DcqQt/CmcDxrKQVjKRn6kQdkZuGiskAMmJf6QA3B5eB7p892AsJTxRuFy5SbhN3hkTPnwpy+gRZMHfuTH9Z2cgzr64H/11Vf1V3/1V5tvBEBK5ONpkY/nRz7ev/BDxpDUX/zFX4QbkssGuXKjIS3ehuBI3wPc+PwhQ7pMDvLA38cL8E1HyRd/5IKjH6E5Q1ye941gz/t5kRnzMbyqwzmOgtHp6dgwNHdqR38nGNQp3I/BzJwTgxxCQbB0Wn7vxXHnpqPTYJQNeAOSJmo8T0ppDOCdi4amPt7owIVLxyE+/h6eAcR19lviGn6E88bjnOvEoR7kyUvrvs8THYOjlxEC4cZAePy8Q3CkTPghF2SEP9oHHWMQuE6ZaBdIj4XE1J3wpAdBkKbLCD8cZeYaZcFMoE0wpSmXx6F83EWpN4sxPR7p0y+I62kSHvMS7YGO66B8XGO/NwiVOqXL4vUmXfLza5xTJ+qB/NAgmdPhN2ZkWv4O0kkfB4F2QhMmLfJxP+JgPlOHfnAdB9Jp09YQK/0M2VE26oqjfJhtmEwMYuLjR96MK+rp+XrevlIfUDfIns0LMf0pK3IgbUDfJD3ien7kA/hNeMiTfJgboz9h+uPvYbFIKAvAn3YnHGSGNk4e6fr2w+OwSQP14jftBug3aH68gcBNkLqSnsPTvVb6jj2RFwkiPCrGXZkC8RtBUFgq/vGPf3yzkw4qwE6FgnDQKLiboAqjoaC+ckTtvp4jHA6tiDseJMbdAwE5aADy4N0zCAShUWbXIBAywmXw0dDUj3pxxHGd8nNOh6Rj0tDEPX36dKi3d2jC0RlIh4HP3AcDlQHOHY44pEM4wpAnssQfeXKNcnm+dDiO1Ieyky9loGNzDaRlS5qkR31xkBC/SY/0yYcwyAkywN8HEtf8OuDcOxl5cM416swdlDg47rIMKNfeCEu9IFnIy+/inhbtxLZGmIzIjvK53Dwv0iK8lx3HNQYSfYYj15ErYfxG4rLgmD7fCaTh5EX+wOXKfA8mahpeP44eHtJCQ6EfcqOifzixEJby0X4f+chHAoF5PQHjyfsSZfE00+RFGoSBFJiDRGY+1lw+HL1MOGSBH3E5J23v79TPlQPmVQlDn+I35eE36TMGOKctCUf/5TcgPT/3fAA3FW7UjDnKQdkA+VJ/6uVhOabP08dr4YZ2UmVyGfan4BQYoVAxGBXNCwHslPlO/sSnM9OBqCCVpeMOchAMAuWceE44xIEoXGDMDaE9eDkhLcxFBEsZ8SMdrjMI0BgZZF/4wheCPc68ALY5DUi5SZuykTYDlY5JR2AQEYa7EiA9QDjSR16YRZTPtwWmzHRqysFdnd0xmEMiX16p4m6IJku+5EF4QBwfEEyE+twPICx1ciDLP/7jPw5aDfWjnYjrcqS9IJ+/9tf+mj72sY8Fh/YCqCfh6dx0cn5TF79GHZgioBNST5dJv+ZFnH7yoowMQrRBboQMaOpIeOKSFjceysY8C465LdqCmw1hIAbOkTV5QOik4ZPR+JOeH4EfB4FwyMt3UgWUEznRh9CyMdVwmKk4NBceeEAkjAc0XLRItC76BG3tfQCZkR59hPYlTdJ2QuEhhZMXsvUyOHlRdtqccNwEkQFp0CcBaSAz5kTZuQLNhn7sE+2UgQl5ZEQ70D78Jk2In/4G8eNPGfDzeVHGE7KmvDwwod3JD1Anyobzc47IgE1DvY3oQxzpc7wuyJHfhPe6cu5In++EPZMXiTJonLxwNACDi0rxRIPO42H7sVOhEAx3LAYaFUWoLox+4E+ehGHwexnwRxDEIQ2e0PkTLtL1gUxYHA1FHAY2GiOOhqce1IHOBzHQASAYCAo7no5Ao3IkH45+98Lfy0wnpOGZa6KT4e91Im/KThl5E4HJU7b1YSBTHjos1/CjfgwG6ks8ZE356cDkSxg6Cel6m5Avk88MLtIkX48LIGY6OHdBNCg6OPXlzQhIn7qgRVA3nNeJtEknTV4AuTt50Zb8xhHXyYv6AtJiHo2bFWG8zICBwwBkTzdkQlxk7CTP4KeMDCzaApAe1xlwyCH9BJR0uc75tUA4yIs5KsJSDo/n/R1ZuoO8nMzQ1nBokNSdtLw/0maAI2Vn4DLfBZAjIDyaDsTpsvXyIjfXvPCjX9InaVPIh5sLhASxs/kBxIh86PfIDZJAHrQn7Yvc3OoA3ifot9y4KLe3NUTp5QEejhstYaifg7JRd/KkPJA42j7hqTv+lJe4tCv5EwdHWv1uN7h2i+4ACuSNC3xAIsgbhTc2A3IvIDyOQeIDwI+AdBEQd0nu1q5F0SjEoS48HWW3Cp9E7QeNR+PzZI3BTvp0ItLlnCOdl4HrBEM65M1EOYTpIDydgMGGpkWHg/BpXIeXgXS50zGQ0cgoO3Wl45IHA5XBRscHlJO4OAa232AA7UVcjhAOaUKOlNHjkR9tQLoMEOrLoCAOYSij1xnneV0Lfj0djnZAW/FB4aBOyJf2QCb8pjw48iM8dYdcaS/kASgTbUn90KwhFPcjHue7BXmBdN3Il/ai/mlHurQ3+XgZieNjw/0Jyw0GmSNXrt8ISJ/6M1/2G7/xG/qt3/qtsLMKk+zIgzzoW16HdPnQyrgxc9Oizb2fco0jhMwNEtD+EC1lRabU3cND2pASaZMXfoBwLmduehA+Y8v7DdzAb/oe6e0H9kReCA+gGVAghOQCorEoIOzrFdoLSBuhkg7pIlQEQnoc045rsDtHyuH5efkAaeEA2gkDGe0HAbrgSYuBwN2NsB6fY/ocYROHuHQAGgAVn7x9AFJOVGXyIg5lIj/uXnQK71D4kxaDkzuQm4Z+3eGEgT9aEeY4ZIOs8fNrgLlB8iAdQPrMPVEW14IJS1w6OqREmqRBWJzDf1NOOjAEi4blck/D89sJXPcw6bDIJG2eAa4z+NC6GGjkRRu5fAlL+SEmzCbmOYnDQHN5oFkQBzLHz9twL6BNyYv2pI95+5Nev+Oa15Gy+Tign3CdOiBHzN9f/dVfDRo8ZbyRcgHiUU/agv5BH6ItWYfmN16/OdMf0LAICygH45b+i5y9LSknaaE1oq173ZhCYWyQH/UiPunSp9IP6zw8cDlxY0LD8z7sR0x6tEDaaD+wJ/ICFMLnTyg8DY0gqBiDFYFRAX7vBRAf6jFPryATHCQxyHkYOgUNQYNRBs+XciEwHOBOwJyFMz4NARiUrN9hsNBAaZBGGt5QPq9A45IX9cefvDCbcPwG3H3QgFxW5Ms14lIHTCL8kamD9AiHv5eB65xDdphODCyXO4ONjsfcEWWgHphP3EkJ4yAsd20GEPUGXk7Pq98RhzahE1Mm8t1Lu7p8SMtBmtxIyNvbgeucs2OpP9Ujnt+ACAsh/emf/mlYGsECaciL/kZ6hIEwKB9aAbJgIO61DwLSozzIkjIhT/LhSDnc0SZcR6aMB46Ug4HpY4A+yuJctGtMMr/hp+WxV1Au7+PIiD6NzBg/yITlP//pP/0n/ef//J/D9x1YP8Z0CWYc1gdxKIuPDeqAH/WBrAFpUyduXtz8fGyQL/LhxsiY4hr1AaQBkL9r1YQnH9LjZslCX242N9Iug7An8koLLN3xcDQcnYeBs9dODhjITMoyecyiQBbn/b2/9/f09//+3w/HnRyTkphW3qg4yuNAuAiUDoj9z9HLzN0KswhBUy8c9fJ0HP4bRwMTDy2IuxqyIC06pndcGpg0MenIj4FFujjCEJ+7JvEon6dN/vgR1/P161yjkzKfwXXqS6cifwYqA5aw/IaoITTaxAcjQMbc+Yjv6QLPPw3Pk3phMkPaLpu9gPDk73Wj/pgelNPriT/1YVDRufHHj77EQ5bf/d3fDQ88MAkxwSk76VE/jtSRfNBimVNi7hKZ47fX8pIe8DJRTtJioFK2tOMa6bucuClxc8DEp9+yCJUbLGFpK9IEHsfzuhGQBuMMbf/f/Jt/I75SBFmxhIKbA7JDw8XxIIEnf3xTE1m6JeB1cxnRnykj5cKP9qDPuJy5Rh+gf9GGPs49Pu3GDdsfPLjWx5jhhulzZW+k3mnsORUqgKYDYdBpaBQKRKUoMKzrhd4tSNPTRVgccTS6n6cdAneHwGgoykCDUA4A0yMwrqMNkb4L2xuBgUyZvSN5I3BMuzSIx12JTunpAA9LWSgHjkZjsNL4hPXOgbbInTrd+N6gXPc88aN8DvJC9SY9QP1Jk/JAmsQFdC7SIJwPdM/X75ak5XmnXRpeJtoaeQLPYzfwsORH2qRHOZnzol5OvoSjXOQDCMMCyv/wH/5DGJAsnUGzIA3C0y+IQ3xuDgwytBsIg1fTMI3Tg3Iv8DpTZvLgN2T0T//pP9U/+2f/bJv75//8n+tf/st/qX/xL/5F+P2P//E/1j/8h/8wmHJoGdxsXM6UG3D+RpynQRujgfJVIgiKyXBAfjjk4uRKPXwcMAeL8/IgQ/qph+Po/YWbPZYO58D7Eg7NnricexzaCOL0m4mnhwmJhePtht9+YE/kRaZUgI6HSgmReOEB5wiVuwHh9grSIQ2HCy0N9+OIQ8NA+HRW4uLHXdA1BX679kEDkgfnHCEQ4OW/FgiDI22OzF0gB08bP9L3jsA55MQx3cjEx/lvPwJPx13aD1AfZE58ly/pcw6JcSQvzolD3DSBEZc0PM90PoNAfOBl9jR3Cw/L0R1lI3/K6fl7ODo+AxKThyelDDbCOagHMkXTpC6Y78z3oOEwEU2f9AELyAe3V1AeLxuAuNGq+h19zB1aH32CctEvPD7Oy+DppbFbP+BywmRDw2JNI+1P30c2fh3iQs7cOP2cNJENYZAf/ZZrxPf+6I4+QniOaJLc9Ejf+xJxmLNE2yccjnT5jbXBb8JxBEw78ETb4eV8o9h7yxqoIKYEWhIVoTA4Cuu2NxN7aXiBPex+gcfbNIILns5NY9KZKBsOQbow3dEwu707exiOpEdc0iM/jt7YgI4CGHR0HvwpEx2aTkJYl5Ujfb4TCEMadCCOXjdAGciPI53SCRXn18jX46fLcK28/Trx/OawV3hbe3lxpMmR9LyclJl3C1lCAWlRzjQREQb5MZCYXvi7f/fvbi4NwAynjJ6Xw8vvedwJ8DK52wtoN7RS1k+hjfKb9oUwvf2RKXLD6mCKAdm46Ud/RO7Iyh1lIC7yIT4uLS+0R+bu+O0kSfqUg3Hu1gPX0cbwpwxeN66jhbKGbL+xp95IgbwDc+eBlQEV8k7JXQr2ZX7CheCC6D93eEU5+vlOSIdB/fWJaTQeGpOGoAywvYcd5MjfG6q/wdIgrB89HnA54Ee+OM7TGop3EAdxKB8D1eMNyvNa8I7hZXY/LwOgoxIGuJ/n7f7EdbcT0mG9ffeCQekjDwYb/pTNBwPt56YOjrLih6wwX5ib5IkdywPQtDD50XQAZQMum7QD6fODDGTFkz7WQ2Jm+0JPbxuWNvA0EdOZeWO+PMTcMQ65IT+ICPmm5ZHuSyAtL8iHBynIGsUE0L+Iw/IgHkgRFmUFzYujKwWEoa2ZH/ZxkU77jWLPt1LPnMpSKJgd8Bt/OhznvA6D+Ujno1NREUdaUDcK5pYgSO4mCMbvHuSFikrjDrrLOIiHyekd30Ea1yof6dCgNJTnRxqcMxhdQ6FMlMEHK3JABmhmDFLOCXe9/NKgjswfuBngjjyYTyB/8uXc08bPy0zH4oh/WhbXAmGZ4E0v99gLiJ8uC/Kh8zvwx5E2zkmLc26QrGnio8Q8yEHL4g7usqReONJN14f0/Ojnu4WH3618biVoP54YckROtAnyRNuBYHh4BUHxVBrLCHKD0Hg4xNwVpjXzd8wJ0me933o/cpcGsiUd0vexTB8iX+YusXxIh0l6iIz5Vwdt40/VibdTHjeKGyIvQOeBJBCSd04AO1NoVH9eTKVSdMb9Bg8GfNKQsiBABjWDF5WZ+Sz8fEDjAL8pKw0BARL/evAGJh/ikw/1cn+Ofs3JiwEKaXGdO52XkXwhTn6nG5FzzwN4mn4OiEvH5ejhuUZ+5MtvziGvNCiLkxd5Ewfn8T39fpA/jkFCXI+zF6Tz4eh3fcoJkD+/kQ2O37Qdbx38k3/yT4LWAIExgOhHhKE+OOTdXx6vy051uh48Humm0/bf/fndStAO3DQdyIq+iKUBIUEwkAdthpyQNaDt8aM/+lwwfYi6XktOxPEbRFpjIz3S4MgYZByhhdFHyN/TpY0gTu+b+y3DPZMXIHM6HwJiXyKeElFRBIJ6SaWYc2JSj/fXOHK9v9BeSRe2O377NXeAzkvapMl6Fn6j3SBIBEz+ECp3GfJCeKSFyeHpUG78IDPuYq72+rVBZSS8Nzbl4zExT3jIk2ueJvnx5MsHJg2HPOh0njbaBItKfS0M8XB+TjgnZODlxo88eeG3H1z3SVXS4ckOnYg41JMOznotOhjaMP6UhSNxPQ0/B5xTZ9JkGoCOSRzSHySna8HDkiaaEzc8/Nx89OsQFCvH/9W/+ldhPouBxnXPk/DUh/BeVurmE88+SLnmDqTPd4P+eP1xyd/drQT9nXbwmyI3KerNzZqn38gB0G70RcrN2MBxTnsz2c+DEb+h+/X+OhHefyN7nnJDkKQBiZEv8f0BHVvzMB5oA64RH62P8QD22md2gxsiL0BhKCyDhFcTIA0XHpXj0S0VgCAgGsxIn8wDXEvDhXitSkICaHPsMUX6NB6dF4ECOj/v6/lcCGkhSCcRgOZBuWlc1qQgdNYOkXc/vIyeDuXCbOMpD41GHMLgaDQGm5vRAMLgCZiHIQ3SogP6x0vS1xh45OGkwjlHB53ETU6u4UiLmwf5ONlQNzoacdGESY/0OWeBIfkC/DyffuDHHZMV7UwQkybhkd1u4en2p4/5h+woL32FMpA+jjYkX+SJQ179/YIj9aQ+EDrLKvwpF2m5A+nzvaC/zHcqKCdkBpBbGtSb6+7oO7xPSvvzm7bEDer7aRDW+xRaHqRF2rQBhMpaPMYh4Le3F0oDSkwaXpb9wA2TF6CAVAS7FjsbAoMc6JSo/nRMKsjqaEiCTgbrU0HCpDuYD7D+jkY4BiiDjoV2kKDfsWkM0iIPGo5XWRAYwA9HOITJY3WQHhBcozHRhJj/6i+Tg3RoPMpB/mheNAp1JR0cJE7eyMMbB3LFj/yIDyA/iJRBx1Y1TvLEoyNRBr+zck7alI2FhpAXefpA9nqj0qPRkQ7+XOdOSZn4TXrEQ8aQEXVA4yQ/wjr5O0iHtFncS7tRZi8/4dOy6Uf/Nf/N0R03E8gW8nFCpJyUiVd/0EoJR91pL+TgfcMdZYawqAuOVeS+YwjhSY9we4XHIf6dBmSPo22AHyEjTDfaiPJ72TkSBjkyTrjp8pTS64gfpMPxeiAOD8HQ8lhqQTm876MEeBvSj2kz5rkwY73f3Azc0GaEaeG4YzAzkOjwaa2ISlIBOiraijvCUHHSo2Om2RxSohOiETHIv/WtbwVNhXiE9fyJQydmkDIYmLD0+R7SwgHyx99XBftg8MHhE/eEcbs+DcJg+vKKBU96+E2aXhbKi3pM/sT3elF3yuiTmaRP/YjHkTrS6ZAbBOMdwmVKGswpUHeWEHi+3oH5DUmhbSID/D0uNw/qRXsAbwfyprN7x+VO6mRJflynbYjLWiImZKkDcHkDjnRkiBOQPummd5UgTfKgI3PXds0AGZEP8zeQajpdzBonS/qU583gAKRHHAYipOUvYdO/aCN/bYW45A+8LNcCdaeumNaEpx0A8agjJtDNAnlzg/eV6bQtZQBMgaDBuywpI3VFPsQDTJwjJ26KtDtl9zojV8YN8oLcuQG7/LlGWPLjSD1pU0Bcl5kfyRPZcxP1vgRcXjjSppw89fStsz1+GoP89oob2s8LpDPnHOExn0HhGZAICX8qRkWpGL99QMHWmJR0OBqNQUoDQlYQBHcIHH4IH0GTDoLGufAQlO/OgNnGNeCNh6ORvWHJizuHNyDl8gamXD45jYmLny/7oPHpOBAfdSUfP1JvCAQCpVykR/4MYvKEWKgT+ZEvHQA/OiEDmHwhagY/ZWMAMijRChmgyIg0vbNSJ8qBtoXJjnZHXi5jQP7kQTqQqw9+Lxf5Qaj+0IJz2oTBy/odNCDaBPl6ncif+rrM0LR3Ii/C4Ec5IS/C+Y0FfwiG8MiaPEiPfCg//k74pIWcIDQ0MvoMfYIbGnKiXpAi5aLNkB/rmyAbyuD5uVx2AnW708mL/kYbIRe/jj+yo970I2TFdeRFWPodC34ZV96W5IfzPuH9mNUDTl4gLTP6rsuatMiPNNKy9bLTztzI6Z8gnY5jkN9esacPcIBrBecandEFxjnwCnpcfnuHxd+JKB0OIeD4TUfy65zj750dhmcAQyD4Aw9DXOJxRLCco01gCpE/YUiDdCEU/CAXBj3+5IEjHoPQ86d8nHMNrYX8eXDhdfHrxCFfjpAQc0doNYTxeuLIl/B0IjoH19CMXD5c8/CkRXkY/Dz6Jl/miUiDshEO8Ju8yZO24O5MOuSNo+6k53UgrMuNMuKQA7+9zi5D4iMvZM9aIkC+kMvv/M7vhLjUhTh0cgaFfz0IP5cdNwemAiA8ykA+pM81QD60h8uAuJCZExpaI/JCVhA0g4YpDLaJ8QEPXH5pkJaDa+TrH+CgHOTtdWaNFOneDJAHMuYFatoKOfDby8vTVibj+Y1jfondZ107pXzUj/pzHXnhh6MdvJ2pEw7ZcSMnPP444hGOj6SwoNT7h8scIB/i0//In/6MH/kQhrA42gKNizcfaA+vRz928t8L9jznRab9zsE5gmFQ/YN/8A+CjYwg6Gg4KocAqCydm8FBBQmD8/QIh1Dcv59Q0I5c62D3T84ZrA6ECrxhOCJ04rJfFI/hSZ8y+HUGAXlQPhqAPBh4NLZfx3Gd9OkYaFW8BMyjfC8/YQnDufuRDySDoy7EJ12OdBKvJ2HxhxgAZQSEo35cA5AA2iZ5M4BJg7DEd3jdaAvkBMGRDuWj7KSFnKkT/uTJzYZrpMXNgOuk7WnxOw1+uyMcYXDImt9OQuSJA1znGr+5y7PHFYOT8hCeweukRDqUh77DEYccSIMHI8gMzZG4aN2QJHuBoRF6G+B2gpcLR5lwwM8pDy7dt24GPH/k6P1+J7AwnH7EzYv+iYxoO68nbUV7IivSTfdrwqEFM8XhdSQ84bwdCeflAZz7dUDZIHLajnOukTdH8qVv8uTbSRh4O6TdfuCGzcZ+eCVwVIIOSCV4Ekbj0wkQNtc8DH4cd6ok/t6BOEewNASqNJ2USXjIkms+wPqdg3MaAKFSJtIib0wNyg444tINiaORKAN3KzoLeTFYIEFIxBuRsMRL5ws8TfKlcZEDaQEPm5YHzsuCA15+0oCwISU6MHXvzw8QD7kTBy2EfJ0ICI8jLo6w5AkIDzw+JMFNCDlB6l4OykpZ3GwkPGF4sMI1SBo/iIUBQ5she5AuMzceiJK8MBcZYE7SgLw8T28PBjjldW0DsuKBEY5B1S8TztO/B4F25Y0NTHTyIA3aFXczzUZkRF6YjczJumy9HdJmI3VGhsiTeNxg/UYHCENaxOdIPTgnDL+Jx80CmZMf6ZGP9zd2faBN0/Lyc/9NOMY2ZaW9+O2gDXnzgZslN3bAda/LfmNfyIuKISSvIIXFQTQIjKdLND4dwc0hB5VzgePoRH4dfwTLQKCDc4dm0OJoUO9k5Ms5SAsa+LmHoVwcIVbKBhExWBgI3shOtoDf+ONHWblroWlBWnTqdF7eSOkGdZAe9WCgUXbuiJAJ2g5peLnceTmoP2WkM7AhIXdd5riQLddAugxpUA4c8cmTOTnypQ08bfJx5+Hdn0l2tDvqzFQAcbyshEnPedFuDCbmyZAX6RAWR96UmTrg7/DrDAb6CEfkRHuQF0cPT3nI0/NHdqRLGSFz35fN6+Bpg/S5g9+eNkfyYv6ROVlvC/whC97vo3w3A9SLujKX53nj6CvcnFgTx9jx8nL09kSbxg8SIR2AjFyGOM4Jj1bKzRbNDZPTJ90BcUmLm5TnNch5WG4e9Ae0XvKjDK4xMjYhwTQ8rh/3C3ue8xoEKoRD6P0F5DfXaCA6OHc2Gok5GCYoGUh0dirv8DseA42OwyDBQWCujlJs8vO7sAsQcD6oWl42rhGHDsqRSW0cZWNQUE4c4b0s5E2HoRNzd8fcTedLmRzEc+e/ue6ESGciHyZUfQKWCXTkQBhk5fWnM+HIG8JlgJMeeQPPIw3y8vp5HSkn5+TBXBMkw5EO6PMfAA0NEqC+/voXZfy3//bfBpl4fUknPeeFPxolk7kuC9qH+qAd81Q03Xaen4N6kD5y4a4OkVA+fntYwnh70A4MbGQCKbqMPW9+u2zS52l4WEAeTNaTp4Pye17I42aBvFlC5HPEwNuM+qW1yXSdkBdtgxZFOzKmaANkTnz6ivcfbkCMIfoeNxlkTHsQFgfRoTXR/qTtfTotN34TlnHLdxlc86IcyImy/tqv/VooL/7Iz5Eu+37hDZMX0RGUkwhIFxqkC00YHAOUAeC/veEIy6D1TsodCMc518gPIXrHIy/8/ejwaqWr59fxQ+AMZuJ5o9DwlIlrOMJ7OSArtB0a30Ec0uAIPH2O7oDLiN+cEwfQYYDnR96QOWHpWNQbWZAnZUjXpb++/SAsLt0BOXo85A8xYEamy+/5uqNd6ejsrcV1ykx5nLyY5AVOuH4dpMvrZQBetjS8PUmD8rh2SJsgG0BZSBv50RbIhnQ97f783D99nobnyRG5EN/bCXCkPuSLLG4GqCvpp+WWBmXwclFGB7+RC/Ki/MjK+xFpcp1r3mdJh3wIh9wIhz9xPR5tTx7EJSxH76uUgbCkzXpNlu9wTho+n41mx2aQ1AV5pctL/i7X/cK+aF474SYmPRB7Ec5OZRuUxl7qsVMZ9kMWe60f4elwOB8gHNP+dDA6qJeP3/jzmyMDgLmg//pf/2vokHRUOizaGloXT6dIk/De0fdSzjQGyWiv8rzRvA8Kdqr3brEX+dD+Hp586RtoXf/u3/270Je4xk0MMsT9o3/0j8JUDH2G8Om8ON9L3rvBdhUpw6EBnYs7Ix2GiXRW6PMmgU9y0zEhITok4QAdjjszcCIiPGvd8Ccc/qRNZ/V1PPh5+AyHB95PcID+gYnq/QWg2fGbaQH6Q/rmd7ORkdchBcTEPBoLff/oj/5I//E//sewZTBPA524ICHOIR7vbPgDrgHIi7lAwmHKuemBicGcCnExOTIcPqTJi/5Bf/INBdLkRD/gyb+b1reCuEBGXocUPA36vd/7Pf2X//JfwiQ6d0gmtnnNyFdbQzz9HRTH3RMSg6yY22DlOdeBd0yeWjGxT3ycx+13GQ4+aEcIi4daPEihvYE/tGKi3p/G0nfced9wt9/IyOuQAmKBgHwyFiJCm+LuyQppyA1/17CAd1K0LZ5cQXSs6Ia4SIu5DOLQaSEvJz86aobDC9qY5RVMPTDH5fOm9BW0LV/D533hZhDVIGS97pCCiVOWV9CpWKrgbzIw4c7Tw2984xvhfU3upDzy5qkeT3x55M4EPTte8LoKyziISyeFxOiwLFHg/UFwqzpqhtsDbmi0Mf0Exw3LtXD6DCYjy2nS82C3qk/c1KeNGW4faFa0J/ZS48VyiMvntnB0Nu6g6SUg+KOhsQ4IjYxOiCMcjrsupMhWwr5A1zuyo7/j3qqOnOHmgH5CX+ATdGhe3AzxYwqCGx19gU0JaGefL03jZrZ/pnkdUtBp0Lh4jYrFpph7zHNxhITogJAZmhgLM3EseMQ8QPWH1CAmCM3vtnRY1nYxxwGuR1wZDgd4wshEPX2H/kC7s4MFi155c8LXjdH+7m4FMvI6ZHDNCtDJmPti4SC7l0I+EJOvy8EEdHKiw6FdAUgOUvOFhiy1gMx4d5B1XaTjeTgy4jqcoC9AXMyDcjP0eS76DJsNMjUB6E+3Ghl5HTJAIhALnczNRF625Qs8vAPIO2zMVUBOkBvmJKYAR79rco4JgBbGNUzEr3zlK+GlXuY4MhwNoJ0zz8WrS/QFNHaOaFm8tsfrRJCW3wDT8L50M5HNeR1CQEo4OpSTGB0J0mJynvcambTnHVPmt7hGNyAOmpY/WeTxNyYiL+yyANE7JGH6gf8g7OSf4c4HJEU/4ck07YjG7Tc93vVEE0cjd9zqts7I65AC0nKSoYnTjms8WYTMuLuyfAJ/Oh+aFtoVBIbJiYkAkRGHMKQ5qJNmJHX4QHtDYPQR2t1vhn5j7J+gz8grw76ADuadaVATux9hPBxH/P24F3gaGQ4X9tIPbnUfyMjrkCLdrP1NnCarfriGBbg+yEQchIy8Dif2Qg8ZeWXYd+ylidNh99IZM/I6nLiTySt72pghQ4YDiYy8MmTIcCCRmY0ZtuF63SEzDzPcKcg0rwwZMhxIZOSVIUOGA4nMbMyQIcOBRKZ5ZciQ4UAiI68MGTIcSGTklSFDhgOJjLwyZMhwIJGRV4YMGQ4kMvLKkCHDgURGXhkyZDiAkP7/ca1UrwZidUYAAAAASUVORK5CYII=;" vertex="1" parent="1">
          <mxGeometry x="320" y="110.00000000000001" width="54" height="60.42" as="geometry" />
        </mxCell>
      </root>
    </mxGraphModel>
  </diagram>
</mxfile>
